<svg xmlns="http://www.w3.org/2000/svg" width="511" height="313"><path d="M59.514 264.203c-.202 1.205-.81 2.209-1.822 3.013-1.013.803-2.43 1.205-4.05 1.205h-6.887c-3.037 0-5.063-1.406-5.67-4.218l-7.291-27.116h-.608l-7.493 27.116c-.81 2.812-2.633 4.218-5.67 4.218h-6.886c-1.62 0-3.038-.402-4.05-1.205-1.013-.804-1.621-1.808-1.824-3.013L.985 204.949c-.202-1.205-.202-2.009-.202-2.41 0-1.607.607-3.013 1.822-4.219 1.216-1.205 2.836-1.807 4.456-1.807 1.62 0 3.038.602 4.253 1.607 1.215 1.004 1.823 2.41 2.025 3.816l4.456 54.433h.81l6.48-25.308c.608-2.812 2.633-4.218 5.671-4.218h5.063c3.038 0 5.063 1.406 5.67 4.218l6.482 25.308h.81l4.455-54.433c0-1.406.81-2.812 2.026-3.816 1.215-1.005 2.632-1.607 4.252-1.607 1.62 0 3.24.602 4.456 1.807 1.215 1.206 1.823 2.411 1.823 4.018 0 .401 0 1.205-.203 2.41l-6.076 59.455zm59.57-1.363c0 1.807-.607 3.213-2.025 4.619-1.215 1.205-2.835 2.009-4.658 2.009-1.823 0-3.24-.603-4.658-2.009-1.215-1.205-2.025-2.812-2.025-4.619v-59.857c0-1.808.607-3.214 2.025-4.62 1.215-1.205 2.835-2.009 4.658-2.009 1.823 0 3.24.603 4.658 2.009 1.215 1.205 2.025 2.812 2.025 4.62v59.857zm53.434-41.421c.608 8.035 1.013 15.668 1.013 22.698v19.082c0 1.607-.608 3.213-1.621 4.218-1.215 1.205-2.632 1.807-4.253 1.807-1.62 0-3.037-.602-4.05-1.807s-1.62-2.611-1.62-4.218v-59.656c0-1.808.607-3.214 1.62-4.419 1.013-1.205 2.43-1.607 4.253-1.607h2.228c2.633 0 4.455 1.205 5.468 3.415l18.632 43.587c-.608-7.834-1.013-15.668-1.013-23.3v-18.68c0-1.607.608-3.214 1.621-4.219 1.215-1.205 2.43-1.807 4.253-1.807 1.62 0 3.037.602 4.05 1.807 1.013 1.206 1.62 2.612 1.62 4.219v59.655c0 1.808-.607 3.214-1.62 4.419-1.013 1.205-2.43 1.607-4.253 1.607h-2.228c-2.632 0-4.455-1.205-5.468-3.414l-18.632-43.387zm81.631 46.801c-1.822 0-3.24-.602-4.455-1.808-1.215-1.205-1.823-2.611-1.823-4.419v-59.254c0-1.807.608-3.213 1.823-4.419 1.215-1.205 2.633-1.807 4.455-1.807 1.823 0 3.241.602 4.456 1.807 1.215 1.206 1.823 2.612 1.823 4.419v53.63h19.644c1.621 0 3.038.603 4.253 1.607 1.215 1.205 1.823 2.611 1.823 4.218 0 1.607-.608 3.013-1.823 4.218-1.215 1.206-2.632 1.808-4.253 1.808h-25.923zm81.639-5.38c0 1.807-.608 3.213-2.025 4.619-1.215 1.205-2.836 2.009-4.658 2.009-1.823 0-3.241-.603-4.658-2.009-1.216-1.205-2.026-2.812-2.026-4.619v-59.857c0-1.808.608-3.214 2.026-4.62 1.215-1.205 2.835-2.009 4.658-2.009 1.822 0 3.24.603 4.658 2.009 1.215 1.205 2.025 2.812 2.025 4.62v59.857zm53.433-41.421c.607 8.035 1.012 15.668 1.012 22.698v19.082c0 1.607-.607 3.213-1.62 4.218-1.215 1.205-2.633 1.807-4.253 1.807s-3.038-.602-4.05-1.807c-1.013-1.205-1.621-2.611-1.621-4.218v-59.656c0-1.808.608-3.214 1.621-4.419 1.012-1.205 2.43-1.607 4.253-1.607h2.227c2.633 0 4.456 1.205 5.468 3.415l18.633 43.587c-.608-7.834-1.013-15.668-1.013-23.3v-18.68c0-1.607.608-3.214 1.62-4.219 1.215-1.205 2.633-1.807 4.253-1.807s3.038.602 4.051 1.807c1.012 1.206 1.62 2.612 1.62 4.219v59.655c0 1.808-.608 3.214-1.62 4.419-1.013 1.205-2.431 1.607-4.253 1.607h-2.228c-2.633 0-4.456-1.205-5.468-3.414l-18.632-43.387zm100.443 9.458l18.834 28.723c.608 1.205 1.013 2.21 1.013 3.415a6.207 6.207 0 01-1.823 4.419c-1.215 1.205-2.632 1.807-4.455 1.807-2.228 0-4.051-1.004-5.468-3.213l-20.86-34.147v30.933c0 1.808-.608 3.214-1.823 4.419-1.215 1.205-2.835 1.808-4.455 1.808-1.621 0-3.241-.603-4.456-1.808-1.215-1.205-1.823-2.611-1.823-4.419v-60.259c0-1.807.608-3.213 1.823-4.418 1.215-1.206 2.633-1.808 4.456-1.808 1.822 0 3.24.602 4.455 1.808 1.215 1.205 1.823 2.611 1.823 4.418v27.117l20.455-30.732c1.215-1.808 3.038-2.812 5.063-2.812 1.62 0 2.835.603 4.05 1.808 1.215 1.205 1.823 2.41 1.823 4.017 0 1.004-.405 2.209-1.013 3.214l-17.619 25.71zM14.76 302.621l-5.064-2.008c-2.025-.804-3.442-1.808-4.253-3.013-.81-1.205-1.215-2.611-1.215-4.62 0-2.812.81-4.821 2.228-5.825 1.418-1.004 4.05-1.406 7.898-1.406 3.646 0 6.684.402 8.912 1.205l-.406 4.62c-4.455 0-7.29-.201-8.506-.201-1.215 0-2.025 0-2.43.201-.405.201-.607.603-.607 1.205 0 .603.202 1.004.607 1.406.405.402 1.013.603 2.025 1.004l4.658 1.808c2.026.804 3.443 1.808 4.456 3.013.81 1.205 1.215 2.812 1.215 4.62 0 2.812-.81 4.821-2.228 6.026-1.417 1.004-4.05 1.607-7.898 1.607-3.24 0-6.48-.402-9.519-1.205l.405-4.821c5.063.201 8.101.201 8.911.201 1.216 0 2.026-.201 2.43-.402.406-.201.608-.603.608-1.205 0-.603-.202-1.004-.405-1.205a3.923 3.923 0 00-1.823-1.005zm28.57-17.103c2.836 0 5.266.401 6.886 1.205 1.62.803 2.835 2.209 3.645 4.017.81 2.009 1.216 4.62 1.216 8.034 0 3.415-.405 6.227-1.215 8.035-.81 2.008-2.026 3.214-3.646 4.017-1.62.804-3.848 1.205-6.886 1.205-4.253 0-7.29-1.004-8.91-2.812-1.62-1.808-2.431-5.423-2.431-10.445 0-5.222.81-8.637 2.43-10.444 1.418-1.808 4.456-2.812 8.911-2.812zm3.24 7.03c-.607-1.005-1.62-1.607-3.24-1.607s-2.835.602-3.24 1.607c-.608 1.004-.81 3.214-.81 6.226 0 3.214.202 5.223.81 6.227.607 1.004 1.62 1.607 3.24 1.607s2.836-.603 3.24-1.607c.406-1.004.81-3.214.81-6.227 0-3.012-.202-5.222-.81-6.226zm24.07-6.445v18.279c0 1.004.608 1.606 1.823 1.606h8.708l.405 5.223c-2.43.201-6.278.402-11.746.402-1.823 0-3.443-.603-4.455-1.607-1.013-1.005-1.62-2.411-1.62-4.018v-20.086h6.885v.201zm32.822 19.508h-7.899l-1.62 6.026h-7.088l7.088-23.701c.203-.603.405-1.005.81-1.406.405-.402 1.013-.402 1.418-.402h6.481c.607 0 1.012.201 1.417.402.405.401.81.803.81 1.406l7.089 23.701h-6.886l-1.62-6.026zm-1.215-5.021l-1.621-6.628c-.202-1.206-.405-2.21-.405-2.612h-1.215c-.202 1.005-.405 1.808-.607 2.612l-1.62 6.628h5.468zm38.903 11.065h-7.291l-1.822-7.632c-.203-.804-.405-1.206-.81-1.607-.405-.201-.81-.402-1.621-.402h-3.24v9.641h-6.886v-25.509c2.431-.201 5.873-.402 10.329-.402 3.645 0 6.278.603 7.898 1.607 1.621 1.205 2.431 3.214 2.431 6.026 0 3.816-1.621 5.825-5.063 6.227v.2c2.227.402 3.442 1.607 4.05 4.018l2.025 7.833zm-14.784-14.663h3.443c1.418 0 2.228-.2 2.633-.602.405-.402.607-1.205.607-2.411 0-1.205-.202-2.008-.607-2.41-.405-.402-1.418-.602-2.633-.602h-3.443v6.025zm45.977 5.624l-5.063-2.008c-2.026-.804-3.443-1.808-4.253-3.013-.81-1.205-1.215-2.611-1.215-4.62 0-2.812.81-4.821 2.227-5.825 1.418-1.004 4.051-1.406 7.899-1.406 3.645 0 6.683.402 8.911 1.205l-.405 4.62c-4.456 0-7.291-.201-8.506-.201-1.215 0-2.026 0-2.431.201-.405.201-.607.603-.607 1.205 0 .603.202 1.005.607 1.406.405.402 1.013.603 2.026 1.005l4.658 1.807c2.025.804 3.443 1.808 4.455 3.013.81 1.205 1.215 2.812 1.215 4.62 0 2.812-.81 4.821-2.227 6.026-1.418 1.004-4.051 1.607-7.899 1.607-3.24 0-6.481-.402-9.518-1.205l.405-4.821c5.063.201 8.101.201 8.911.201 1.215 0 2.025-.201 2.43-.402.405-.201.608-.602.608-1.205 0-.603-.203-1.004-.406-1.205-.607-.402-1.012-.804-1.822-1.005zm30.561.761v8.236h-7.088v-8.236l-8.506-17.475h7.291l3.645 8.637c.405.804.608 1.808.81 3.415h.405c.406-1.808.608-2.812.811-3.415l3.645-8.637h7.291l-8.304 17.475zm25.097-.761l-5.063-2.008c-2.025-.804-3.443-1.808-4.253-3.013-.81-1.205-1.215-2.611-1.215-4.62 0-2.812.81-4.821 2.227-5.825 1.418-1.004 4.051-1.406 7.899-1.406 3.645 0 6.683.402 8.911 1.205l-.405 4.62c-4.456 0-7.291-.201-8.506-.201-1.215 0-2.025 0-2.43.201-.405.201-.608.603-.608 1.205 0 .603.203 1.005.608 1.406.405.402 1.012.603 2.025 1.005l4.658 1.807c2.025.804 3.443 1.808 4.455 3.013.811 1.205 1.216 2.812 1.216 4.62 0 2.812-.811 4.821-2.228 6.026-1.418 1.004-4.051 1.607-7.899 1.607-3.24 0-6.48-.402-9.518-1.205l.405-4.821c5.063.201 8.101.201 8.911.201 1.215 0 2.025-.201 2.43-.402.405-.201.608-.602.608-1.205 0-.603-.203-1.004-.405-1.205-.608-.402-1.013-.804-1.823-1.005zm37.677-11.065h-7.493v20.086h-7.089v-20.086h-7.291v-5.423h21.873zm26.129 14.864l.405 5.021c-2.43.201-6.683.402-12.759.402-1.822 0-3.24-.402-4.253-1.406-1.012-1.004-1.62-2.41-1.62-4.017v-14.864c0-1.607.608-3.013 1.62-4.017 1.013-1.004 2.431-1.406 4.253-1.406 6.076 0 10.329.201 12.759.402l-.405 5.021h-9.721c-1.013 0-1.62.603-1.62 1.607v3.013h9.923v4.821h-9.923v3.816c0 1.004.607 1.607 1.62 1.607h9.721zm29.961-20.287h6.278c1.62 0 2.43.803 2.633 2.41l1.012 23.099h-6.481l-.81-20.287h-.607l-3.038 14.261c-.203 1.406-1.215 2.21-2.633 2.21h-4.05c-1.621 0-2.431-.804-2.836-2.21l-3.24-14.261h-.608l-.607 20.287H300.3l.81-23.099c0-1.607 1.013-2.41 2.633-2.41h6.278c1.418 0 2.43.803 2.633 2.209l2.43 11.249c.203.803.405 2.008.608 3.615h.405c0-.201 0-.803.202-1.607.203-.803.203-1.607.405-2.008l2.431-11.249c.202-1.406 1.215-2.209 2.633-2.209zm50.849 19.677l.608 5.021c-2.228.804-5.063 1.205-8.709 1.205-4.05 0-7.088-1.004-8.708-3.013-1.62-2.008-2.633-5.423-2.633-10.244 0-4.82.81-8.235 2.633-10.244 1.62-2.008 4.658-3.012 8.708-3.012 3.038 0 5.874.401 8.101 1.004l-.607 5.021c-2.633 0-5.063-.2-7.696-.2-1.62 0-2.633.401-3.038 1.406-.405 1.004-.81 3.012-.81 5.825 0 2.812.202 4.82.81 5.825.608 1.004 1.62 1.406 3.038 1.406 3.848.401 6.481.2 8.303 0zm23.093-.194h-7.898l-1.62 6.026h-7.089l7.089-23.701c.202-.603.405-1.005.81-1.406.405-.402 1.012-.402 1.417-.402h6.481c.608 0 1.013.201 1.418.402.405.401.81.803.81 1.406l7.088 23.701h-7.088l-1.418-6.026zm-1.417-5.021l-1.621-6.628c-.202-1.206-.405-2.21-.405-2.612h-1.012a52.461 52.461 0 01-.608 2.612l-1.62 6.628h5.266zm27.13 2.026l-5.063-2.008c-2.026-.804-3.443-1.808-4.253-3.013-.811-1.205-1.216-2.611-1.216-4.62 0-2.812.81-4.821 2.228-5.825 1.418-1.004 4.051-1.406 7.899-1.406 3.645 0 6.683.402 8.911 1.205l-.405 4.62c-4.456 0-7.291-.201-8.506-.201-1.216 0-2.026 0-2.431.201-.405.201-.607.603-.607 1.205 0 .603.202 1.005.607 1.406.405.402 1.013.603 2.025 1.005l4.659 1.807c2.025.804 3.442 1.808 4.455 3.013.81 1.205 1.215 2.812 1.215 4.62 0 2.812-.81 4.821-2.228 6.026-1.417 1.004-4.05 1.607-7.898 1.607-3.24 0-6.481-.402-9.519-1.205l.405-4.821c5.064.201 8.101.201 8.911.201 1.216 0 2.026-.201 2.431-.402.405-.201.607-.602.607-1.205 0-.603-.202-1.004-.405-1.205-.607-.402-1.012-.804-1.822-1.005zm24.5 9.021h-6.886v-25.509h6.886zm32.607-25.509v23.099c0 1.607-.81 2.41-2.431 2.41h-3.24c-.607 0-1.215-.201-1.62-.401-.405-.402-.81-.804-1.215-1.607l-6.076-10.847c-.607-1.205-1.215-2.611-1.62-4.218h-.203c.203 1.607.203 3.013.203 4.419v12.855h-6.481v-23.099c0-1.607.81-2.41 2.43-2.41h3.241c.607 0 1.215.201 1.62.402.405.401.81.803 1.215 1.606l5.873 10.445c.608 1.205 1.215 2.611 2.025 4.218h.203c-.202-1.607-.203-3.214-.203-4.419v-12.252h6.279v-.201zm20.47-.61c2.835 0 5.266.401 6.886 1.205 1.62.803 2.835 2.209 3.645 4.017.81 2.009 1.215 4.62 1.215 8.034 0 3.415-.405 6.227-1.215 8.035-.81 2.008-2.025 3.214-3.645 4.017-1.62.804-3.848 1.205-6.886 1.205-4.253 0-7.291-1.004-8.911-2.812-1.62-1.808-2.43-5.423-2.43-10.445 0-5.222.81-8.637 2.43-10.444 1.62-1.808 4.658-2.812 8.911-2.812zm3.24 7.03c-.607-1.005-1.62-1.607-3.24-1.607s-2.835.602-3.24 1.607c-.608 1.004-.81 3.214-.81 6.226 0 3.214.202 5.223.81 6.227.607 1.004 1.62 1.607 3.24 1.607s2.835-.603 3.24-1.607c.406-1.004.811-3.214.811-6.227.202-3.012-.203-5.222-.811-6.226zM255.884 0c-47.702 0-86.54 38.838-86.54 86.54 0 47.702 38.838 86.54 86.54 86.54 47.703 0 86.54-38.838 86.54-86.54 0-47.702-38.837-86.54-86.54-86.54zm61.867 34.269c10.509 12.428 17.363 28.055 18.825 45.143h-10.692a70.376 70.376 0 00-15.718-37.558l7.585-7.585zm-10.418 90.287v-.183c-.639-1.554-2.193-2.285-2.376-4.021-.182-1.554.457-3.564-.274-4.935-.914-1.645-2.376-1.736-1.828-4.112.366-1.462 2.468-3.198 2.468-4.66 0-1.188-1.919-3.382-2.468-4.387-.639-1.188-2.01-2.741-2.284-4.02-.366-1.646.365-4.022.548-5.667-1.188-.09-3.198.092-4.295-.456-1.736-.823-1.188-1.828-3.472-1.554-1.28.183-1.737 1.005-2.925 1.37-1.37.366-3.198 0-4.569 0l-.183.458c-1.37 0-2.284.274-3.289-.549-1.554-1.188-2.833-3.29-4.204-4.752-.823-.913-1.554-1.553-1.828-2.65-.274-1.553 0-3.564.092-5.117 1.462-.274 1.188-1.28 1.462-2.559h-1.554l-.639-2.284c2.01-1.463 4.02-2.925 6.031-4.295.457-.366 1.279-.732 1.462-1.28.366-.914 0-2.65 0-3.655 1.279-.731 2.742-1.828 4.204-2.01 1.462-.183 2.924.365 4.295-.092 1.645-.548 2.284-1.097 4.112-1.188 1.828-.183 3.655-.274 5.483-.457v3.838l6.031 1.554c.823.548 1.28 1.005 2.285.822v-2.102c.914-.091 2.559-.64 3.472-.365 1.097.365 1.919 1.736 2.925 2.193.182.091.639.183 1.096.274a63.678 63.678 0 012.833 18.734c-.091 14.347-4.752 27.415-12.611 38.107zm-19.007-81.788c.639-1.28 1.553-1.188 2.832-1.371.549 2.741 1.188 5.026 3.93 6.031-.914 1.097-1.097 1.462-2.376 1.736-1.188.183-2.376.183-3.473.183l.183-2.376 1.645-.365c.091-2.102-3.107-1.737-2.741-3.839zm.822 2.193c-.091 1.553-.274 1.553-1.554 2.467-1.188.823-1.553 1.005-2.924 1.005v-1.37c1.28-2.102 2.102-3.108 4.478-2.102zm-2.467 10.326c1.827-.365 3.198 0 5.026.366l.457-1.92-1.463-.365.549-3.016c.914-.182 2.65-.091 3.472-.548.914-.548 1.371-2.193 2.194-3.016 1.644-1.553 3.929-.457 5.939-.548l-.456-3.29-2.742 1.097-1.005-2.467-1.645-.183c-.274-1.462-.274-2.194 1.005-3.016 6.214 5.483 11.423 12.063 15.17 19.556-.183.183-.274.274-.366.457-.548.914-.639 2.376-.822 3.381-.731-.822-2.102-1.736-2.559-2.741-.365-.823.091-2.01-.365-2.833-.457-.731-2.011-2.01-2.833-2.468-1.006-.64-2.102-.456-3.382-.456.366 1.188.549 2.193 1.463 2.924 1.096.914 2.741 1.096 3.564 2.284l-.732.366v2.102c-2.01.822-2.832.914-4.112-.914 1.188.091 2.468.548 3.016-.731-2.193-1.462-5.026-2.468-5.666-5.118-.548.457-1.371 1.645-2.102 1.92-.548.182-1.645-.275-2.284-.366-1.462 1.919-3.107 3.655-3.93 6.031-1.553.183-3.655.549-5.117.183-2.102-.457-2.102-1.462-2.376-3.381-.274-2.01.091-2.924 2.102-3.29zm21.201-30.888l-7.585 7.585a69.532 69.532 0 00-37.833-15.444V5.757c17.18 1.37 32.898 8.133 45.418 18.642zm-49.256 94.308c-.366.64-1.188 1.554-1.279 2.285-.183 1.096.822 2.467.822 3.564 0 1.736-2.285 3.655-3.381 5.026-1.005 1.279-1.462 2.833-2.742 3.746-1.827 1.28-3.929 1.737-6.031 2.011l-.091 1.096 1.827.549c-.274 1.371-.822 1.827-1.919 2.833 1.097 1.37 1.28 1.279 3.016 1.37-.092 1.188-1.005 3.016-.823 4.113.275.914 2.194 2.01 2.925 2.65l-.366 1.279c-1.096 0-3.016.366-4.021-.091-1.096-.457-2.193-1.919-3.107-2.65-.822-.731-1.188-1.28-1.736-2.285-.64-1.188-1.919-2.65-2.285-3.929-.274-1.006.183-2.559.275-3.656.182-1.736 0-1.827-1.006-3.29-.914-1.188-1.096-1.279-1.005-2.65.183-1.37.548-2.833.731-4.203l-1.371-.366c0-3.472.092-6.945 0-10.418-.091-2.741-3.929-4.02-6.214-4.66-.365-1.919-.639-2.559-1.919-4.112-.914-1.188-3.29-3.107-3.564-4.57-.182-.639.457-1.644.457-2.284.092-1.005-.091-2.01.092-2.924.365-1.554 2.193-2.285 3.564-3.29l-.549-4.204c-1.462-.091-3.107 0-4.569-.365-1.188-.275-1.645-1.188-2.467-2.194-.823-.913-1.554-2.101-2.559-2.558-1.188-.64-3.016-.823-4.386-1.005l.182-1.645-2.376-.366v.914c-1.645-.457-4.02-.548-5.483-1.37-1.188-.732-2.01-2.56-2.741-3.748l1.005-1.736c-1.097-1.645-2.559-3.29-3.472-5.026-.64-1.28-.732-2.924-.914-4.478h-1.28c.183 1.554.183 3.199.914 4.57 1.097 2.01 2.285 2.65 1.828 4.843-1.005-.183-1.736-.092-2.468-.731-.822-.731-1.644-2.56-2.101-3.564-.731-1.737-.366-4.021-.366-5.94l-1.919-.914c4.935-13.342 14.256-24.582 26.136-32.076 1.005.366 2.01.731 3.198 1.006l.183 1.096 4.569.183-.64-1.462-4.02-.092.913-.913-.091-1.097h-1.736c1.919-1.097 3.838-2.102 5.94-3.016.548.274.913 1.371 1.279 1.737.731.73.366.548 1.279.73 2.011.549 2.65-.273 4.021-1.644l1.371.64c-.64.64-1.645 2.101-2.467 2.375-.823.366-2.376.092-3.29.092.183 0 .274 2.102.274 2.376l4.112-.092.457-1.096 2.833-.183.366-1.645-1.645-.274c.457-1.28.639-1.736 2.101-1.92 1.371-.09 2.833.184 4.204.184l-2.467 2.284.365 1.737 2.559.365-.183-3.107c2.011-1.096 4.387-2.102 6.763-1.828 2.101.275 4.477 1.92 6.396 2.833v2.376l2.011.549-1.005 1.919h-2.833l-.823 2.193-6.579-1.554 5.117-2.741c-1.096-.914-1.553-1.554-2.833-1.554-.913 0-3.381 0-3.929.823-1.188 1.37-1.645 1.462-3.473 1.553-.091.731.183 1.28.914 1.371v.365l-1.736.275-.092 1.005-1.644.091-.275-2.01c-3.289 1.005-5.94 2.65-8.955 4.386.457 1.554.457 2.742 2.102 3.381 1.096.457 2.467.457 3.655.64v3.838c.731-.091 1.279-.091 1.736-.548.64-.64.549-1.828 1.188-2.467.731-.823 2.559-1.006 3.656-1.371 0-2.102-.731-4.295 1.188-5.483 1.644-1.005 3.746.091 5.665.548l-.365 3.016c1.827 0 3.198-.914 4.843-1.736 0 1.005-.274 2.924.183 3.838.365.73 1.828 1.279 2.559 1.736l-.092 2.376-2.467.822c-.091 1.28 2.193 1.737 3.107 2.102l-.091 1.645-.823.091c0-.365-3.29-1.096-3.747-1.188l-.182-1.188c.822-.548 1.37-.73 1.096-1.827l-1.188-.274-.274 1.005c-.731.091-1.553.365-2.284.274v.091l-.732.092c-.913-1.92-3.381-2.285-3.381.274.823.274 1.645.457 2.468.64-.549.365-1.006.913-1.463 1.37-1.188-2.376-3.563 1.006-4.569 1.92l.366.365c-1.554.914-3.381 1.645-4.752 2.741-1.097.914-2.102 2.102-3.107 3.199-.914 1.005-.457 1.28-1.005 2.467-.731 1.462-3.29 2.285-4.661 3.473-.822.73-1.462 1.28-1.645 2.284-.183 1.097.092 2.468.183 3.564l-2.833-1.37v-2.468c-2.467 0-5.574-.548-7.95 0-2.925.64-4.752 2.65-5.849 5.21-.365.822-.822 2.1-.731 3.015.274 1.645 1.005 2.376 2.467 2.467 1.737.183 1.828.183 3.29-.731a90.249 90.249 0 003.747-2.559c.548 2.102-.091 2.833-1.097 4.66l3.93.64.365 6.123c1.28.183 4.204 1.371 5.392.914 1.188-.457 2.65-3.016 3.473-3.93 1.736.366 3.655.275 4.752 1.645.822 1.006.548 1.006 1.736 1.188 1.005.092 2.193-.091 3.198-.182l.092-1.188c1.645.822 2.193 1.096 3.198 2.558 1.279 1.92 1.097 2.376 3.381 2.376 2.285 0 2.65-.091 3.656 2.194.548 1.279.456 2.558.548 3.93 1.371.547 2.833 1.279 4.295 1.644 1.371.365 2.741.183 4.112.183 2.102 0 2.102-.183 3.29 1.645.914 1.462 1.736 1.553 3.381 2.101-.457 2.285-1.096 3.108-2.559 4.935-1.188 1.554-1.096 3.199-1.279 5.118-.183 2.101.091 3.655-1.553 4.934-1.828 1.737-2.925 1.371-5.392 1.371zm-5.392-65.887l-.365.822-1.005.091c.091 1.28-1.097 1.463-2.102 1.463 0-.274-.092-.457-.092-.457h-.457v-1.005h1.919l.366-1.006c.64-.091 1.188-.091 1.736.092zm-5.117 1.553l-.183 1.005-1.371.092c-.091-.731.183-1.28.731-1.736l.823.64zm.365-48.524V16.54c-13.981 1.463-26.866 7.037-37.193 15.536l-7.585-7.585c12.429-10.327 27.872-17.089 44.778-18.642zM193.835 34.36l7.585 7.585c-8.499 10.418-14.165 23.303-15.535 37.467h-10.784a81.417 81.417 0 0118.734-45.052zm-.091 104.177c-10.418-12.519-17.18-28.054-18.643-45.143h10.692a70.055 70.055 0 0015.444 37.558l-7.493 7.585zm9.869 9.87l7.585-7.585c10.418 8.59 23.211 14.164 37.376 15.626v10.692c-17.089-1.462-32.624-8.224-44.961-18.733zm58.851 18.916v-10.692c14.347-1.371 27.415-6.945 38.015-15.626l7.585 7.584c-12.611 10.51-28.329 17.363-45.6 18.734zm47.885-36.188a70.04 70.04 0 0015.535-37.741h10.692c-1.462 17.18-8.225 32.807-18.734 45.326l-7.493-7.585z" fill="#718584" opacity=".07"/></svg>