<svg xmlns="http://www.w3.org/2000/svg" xmlns:xlink="http://www.w3.org/1999/xlink" width="2048" height="68"><defs><path id="a" d="M413.871.839H485v1.554h-69.512l-12.933 10.882H.029v-1.554h402.526z"/><path id="d" d="M.058.504h75.979l3.233 3.109h30.714l3.234-3.109h21.015l4.85 4.663h69.512l3.233 1.555-1.616 1.554-1.617-3.109h-69.512l-4.85-4.663h-21.015l-3.234 3.109H77.653L76.037.504z"/><path id="g" d="M14.549 5.586L11.316.922H0v1.555h9.699l3.233 3.109z"/><path id="j" d="M373.267 11.782h64.062v-1.4h-62.606L363.075.581H.546v1.4h362.529z"/><path id="m" d="M.571 7.581l68.43.001 2.912-2.801h27.663l2.911 2.801h18.928l4.368-4.201h62.605l2.912-1.4-1.456-1.4-1.456 2.8h-62.605l-4.368 4.201h-18.928l-2.911-2.801H70.457l-1.456 2.801z"/><path id="p" d="M13.623.414l-2.912 4.2H.52v-1.4h8.735l2.912-2.8z"/><path id="s" d="M78.704.782H0v1.72h76.915l14.31 12.041H536.62v-1.72H91.225z"/><path id="v" d="M234.59.943h-84.07l-3.58 3.44h-33.99L109.38.942H86.12l-5.36 5.161H3.84L.26 7.823l1.79 1.72 1.79-3.44h76.92L86.12.942h23.26l3.57 3.441h35.78l1.79-3.44z"/><path id="y" d="M.55 5.862L4.13.702h12.52v1.72H5.92l-3.58 3.44z"/><path id="B" d="M69.55.179H0v1.52h67.97L80.62 12.34h393.6v-1.52H80.62z"/><path id="E" d="M207.19.74H132.9l-3.16 3.041L99.7 3.78 96.54.74H75.99l-4.74 4.561H3.28L.12 6.821l1.58 1.52 1.58-3.04h67.97L75.99.74h20.55l3.16 3.04 31.62.001L132.9.74z"/><path id="H" d="M69.55.179H0v1.52h67.97L80.62 12.34h393.6v-1.52H80.62z"/><path id="J" d="M390.831 11.937H458v-1.468h-65.643L380.145.192H.027V1.66h380.118z"/><linearGradient id="b" x1="100.129%" x2=".036%" y1="50%" y2="50%"><stop offset="61.29%" stop-color="#E2D2AE"/><stop offset="100%" stop-color="#E2D2AE"/></linearGradient><linearGradient id="e" x1="99.623%" x2=".082%" y1="49.989%" y2="49.989%"><stop offset="61.29%" stop-color="#D9C89B"/><stop offset="100%" stop-color="#D9C89B"/></linearGradient><linearGradient id="h" x1="105.378%" x2="1.222%" y1="34.867%" y2="34.867%"><stop offset="0%" stop-color="#D9C89B"/><stop offset="100%" stop-color="#D9C89B"/></linearGradient><linearGradient id="k" x1="100.129%" x2=".036%" y1="50%" y2="50%"><stop offset="61.29%" stop-color="#E2D2AE"/><stop offset="100%" stop-color="#E2D2AE"/></linearGradient><linearGradient id="n" x1="99.623%" x2=".082%" y1="50.011%" y2="50.011%"><stop offset="61.29%" stop-color="#D9C89B"/><stop offset="100%" stop-color="#D9C89B"/></linearGradient><linearGradient id="q" x1="105.372%" x2="1.221%" y1="65.133%" y2="65.133%"><stop offset="0%" stop-color="#D9C89B"/><stop offset="100%" stop-color="#D9C89B"/></linearGradient><linearGradient id="t" x1="-.129%" x2="99.963%" y1="50%" y2="50%"><stop offset="61.29%" stop-color="#E2D2AE"/><stop offset="100%" stop-color="#E2D2AE"/></linearGradient><linearGradient id="w" x1=".376%" x2="99.919%" y1="49.989%" y2="49.989%"><stop offset="61.29%" stop-color="#D9C89B"/><stop offset="100%" stop-color="#D9C89B"/></linearGradient><linearGradient id="z" x1="-5.404%" x2="98.758%" y1="34.866%" y2="34.866%"><stop offset="0%" stop-color="#D9C89B"/><stop offset="100%" stop-color="#D9C89B"/></linearGradient><linearGradient id="C" x1="-.129%" x2="99.964%" y1="49.375%" y2="49.375%"><stop offset="61.29%" stop-color="#E2D2AE"/><stop offset="100%" stop-color="#E2D2AE"/></linearGradient><linearGradient id="F" x1=".377%" x2="99.918%" y1="49.989%" y2="49.989%"><stop offset="61.29%" stop-color="#D9C89B"/><stop offset="100%" stop-color="#D9C89B"/></linearGradient><linearGradient id="K" x1="100.129%" x2=".036%" y1="50%" y2="50%"><stop offset="61.29%" stop-color="#E2D2AE"/><stop offset="100%" stop-color="#E2D2AE"/></linearGradient></defs><g fill="none" fill-rule="evenodd"><g transform="translate(270 12)"><mask id="c" fill="#fff"><use xlink:href="#a"/></mask><path fill="url(#b)" fill-rule="nonzero" mask="url(#c)" d="M413.872.839h71.129v1.554h-69.512l-12.933 10.882H.03v-1.554h402.526z"/></g><path stroke="#D9C89B" stroke-opacity=".8" stroke-width=".033" d="M755 33.048H599.81l-9.7-7.773"/><path fill="#D9C89B" fill-rule="nonzero" d="M635.395 28.372l-4.85-3.109h-3.233l3.233 3.109zm-8.081 0l-3.233-3.109h-4.85l3.233 3.109zm-1.637 6.198l-9.699-9.327h-3.233l9.699 9.327zm-132.548 0l-9.7-9.327h-3.233l9.7 9.327zm6.444 0l-9.699-9.327h-3.233l9.699 9.327zm6.498 0l-9.699-9.327h-3.233l9.699 9.327zm113.162 0l-8.083-9.327h-3.233l9.699 9.327z"/><path stroke="#D9C89B" stroke-opacity=".2" stroke-width=".033" d="M753.358 36.136H667.68l-1.617 3.109h-46.88l-3.233-3.109h-38.798l-4.85-4.664h-85.678l-4.85 4.664h-32.331"/><path stroke="#D9C89B" stroke-width=".066" d="M624.035 39.245h-6.466l-1.617-1.554"/><path fill="#D9C89B" fill-opacity=".2" fill-rule="nonzero" d="M632.142 39.245l3.233-1.554h19.399l3.233 1.554"/><path stroke="#D9C89B" stroke-width=".066" d="M666.113 37.666l1.617-1.555h24.248"/><path fill="#D9C89B" fill-opacity=".2" fill-rule="nonzero" d="M567.503 25.263h-85.679l3.234 3.109h85.678z"/><path fill="#D9C89B" fill-rule="nonzero" d="M572.339 31.461H552.94l3.233 3.109h17.782z"/><path fill="#D9C89B" fill-opacity=".2" fill-rule="nonzero" d="M449.456 36.149h17.782l-3.233-1.554h-12.932l-8.083-9.328h-4.85z"/><path fill="#D9C89B" fill-rule="nonzero" d="M638.61 28.372l-4.85-3.109h40.414l-4.849 3.109z"/><path stroke="#D9C89B" stroke-opacity=".2" stroke-width=".033" d="M438.127 23.702L412.262.384h-66.279l-6.466 6.218H286.17L281.32.384h-11.316"/><path fill="#D9C89B" fill-opacity=".2" fill-rule="nonzero" d="M312.083 23.702l-19.399-17.1h-3.233l19.399 17.1zm4.802 0l-19.399-17.1h-3.233l19.399 17.1z"/><g transform="translate(270 17)"><mask id="f" fill="#fff"><use xlink:href="#d"/></mask><path fill="url(#e)" fill-rule="nonzero" mask="url(#f)" d="M.054.504h75.979l3.233 3.109h30.715l3.233-3.109h21.016l4.849 4.663h69.513l3.233 1.555-1.617 1.554-1.616-3.109h-69.513L134.23.504h-21.016l-3.233 3.109H77.65L76.033.504z"/></g><path stroke="#D9C89B" stroke-width=".099" d="M391.263 15.937h12.933l4.85 4.664h17.782"/><g transform="translate(270 1)"><mask id="i" fill="#fff"><use xlink:href="#g"/></mask><path fill="url(#h)" fill-rule="nonzero" mask="url(#i)" opacity=".2" d="M14.553 5.582L11.32.918H.004v1.555h9.699l3.233 3.109z"/></g><g transform="translate(679 30)"><mask id="l" fill="#fff"><use xlink:href="#j"/></mask><path fill="url(#k)" fill-rule="nonzero" mask="url(#l)" d="M373.268 11.782h64.061v-1.4h-62.605L363.076.581H.546v1.4h362.53z"/></g><path stroke="#D9C89B" stroke-opacity=".8" stroke-width=".033" d="M1116.329 23.582H976.558l-8.736 7"/><path fill="#D9C89B" fill-rule="nonzero" d="M1008.607 27.793l-4.368 2.8h-2.912l2.912-2.8zm-7.278 0l-2.912 2.8h-4.368l2.912-2.8zm-1.474-5.583l-8.736 8.4h-2.912l8.736-8.4zm-119.378 0l-8.735 8.4h-2.912l8.735-8.4zm5.804 0l-8.735 8.4h-2.912l8.736-8.4zm5.853 0l-8.736 8.4h-2.912l8.736-8.4zm101.917 0l-7.28 8.4h-2.912l8.736-8.4z"/><path stroke="#D9C89B" stroke-opacity=".2" stroke-width=".033" d="M1114.85 20.8h-77.165l-1.456-2.8h-42.223l-2.912 2.8h-34.942l-4.368 4.2h-77.165l-4.368-4.2h-29.119"/><path stroke="#D9C89B" stroke-width=".066" d="M998.376 18h-5.824l-1.456 1.4"/><path fill="#D9C89B" fill-opacity=".2" fill-rule="nonzero" d="M1005.677 18l2.912 1.4h17.472l2.911-1.4"/><path stroke="#D9C89B" stroke-width=".066" d="M1036.273 19.422l1.456 1.4h21.839"/><path fill="#D9C89B" fill-opacity=".2" fill-rule="nonzero" d="M947.461 30.593h-77.165l2.912-2.8h77.165z"/><path fill="#D9C89B" fill-rule="nonzero" d="M951.816 25.01h-17.471l2.912-2.8h16.015z"/><path fill="#D9C89B" fill-opacity=".2" fill-rule="nonzero" d="M841.143 20.788h16.016l-2.912 1.4h-11.648l-7.279 8.401h-4.368z"/><path fill="#D9C89B" fill-rule="nonzero" d="M1011.503 27.793l-4.368 2.8h36.398l-4.367-2.8z"/><path stroke="#D9C89B" stroke-opacity=".2" stroke-width=".033" d="M830.942 31.999L807.647 53h-59.694l-5.824-5.6h-48.046l-4.368 5.6h-10.192"/><path fill="#D9C89B" fill-opacity=".2" fill-rule="nonzero" d="M717.421 31.999L699.95 47.4h-2.912l17.471-15.401zm4.325 0L704.275 47.4h-2.912l17.471-15.401z"/><g transform="translate(679 30)"><mask id="o" fill="#fff"><use xlink:href="#m"/></mask><path fill="url(#n)" fill-rule="nonzero" mask="url(#o)" d="M.569 7.581l68.429.001 2.912-2.801h27.663l2.912 2.801h18.927l4.368-4.201h62.606l2.912-1.4-1.456-1.4-1.456 2.8H125.78l-4.368 4.201h-18.927l-2.912-2.801H70.454l-1.456 2.801z"/></g><path stroke="#D9C89B" stroke-width=".099" d="M788.734 38.992h11.647l4.368-4.2h16.016"/><g transform="translate(679 47)"><mask id="r" fill="#fff"><use xlink:href="#p"/></mask><path fill="url(#q)" fill-rule="nonzero" mask="url(#r)" opacity=".2" d="M13.626.417l-2.912 4.2H.522v-1.4h8.736l2.912-2.8z"/></g><g transform="translate(1044 22)"><mask id="u" fill="#fff"><use xlink:href="#s"/></mask><path fill="url(#t)" fill-rule="nonzero" mask="url(#u)" d="M78.703.782H-.001v1.72h76.916l14.309 12.041H536.62v-1.72H91.224z"/></g><path stroke="#D9C89B" stroke-opacity=".8" stroke-width=".033" d="M1044 45.143h171.718l10.732-8.601"/><path fill="#D9C89B" fill-rule="nonzero" d="M1176.343 39.969l5.366-3.44h3.578l-3.578 3.44zm8.942 0l3.577-3.44h5.367l-3.578 3.44zm1.811 6.858l10.732-10.32h3.578l-10.733 10.32zm146.664 0l10.73-10.32h3.58l-10.73 10.32zm-7.13 0l10.73-10.32h3.58l-10.73 10.32zm-7.19 0l10.73-10.32h3.58l-10.73 10.32zm-125.214 0l8.944-10.32h3.577l-10.732 10.32z"/><path stroke="#D9C89B" stroke-opacity=".2" stroke-width=".033" d="M1045.817 48.56h94.803l1.789 3.44h51.873l3.577-3.44h42.93l5.366-5.16h94.805l5.36 5.16h35.78"/><path stroke="#D9C89B" stroke-width=".066" d="M1188.913 52h7.155l1.788-1.72"/><path fill="#D9C89B" fill-opacity=".2" fill-rule="nonzero" d="M1179.943 52l-3.578-1.72h-21.464l-3.578 1.72"/><path stroke="#D9C89B" stroke-width=".066" d="M1142.354 50.253l-1.789-1.72h-26.831"/><path fill="#D9C89B" fill-opacity=".2" fill-rule="nonzero" d="M1251.465 36.529h94.805l-3.58 3.44h-94.802z"/><path fill="#D9C89B" fill-rule="nonzero" d="M1246.115 43.387h21.465l-3.58 3.44h-19.674z"/><path fill="#D9C89B" fill-opacity=".2" fill-rule="nonzero" d="M1382.08 48.574h-19.67l3.58-1.72h14.31l8.94-10.321h5.37z"/><path fill="#D9C89B" fill-rule="nonzero" d="M1172.786 39.969l5.366-3.44h-44.718l5.366 3.44z"/><path stroke="#D9C89B" stroke-opacity=".2" stroke-width=".033" d="M1394.62 34.802L1423.24 9h73.34l7.15 6.881h59.03L1568.12 9h12.53"/><path fill="#D9C89B" fill-opacity=".2" fill-rule="nonzero" d="M1534.09 34.802l21.46-18.922h3.58l-21.47 18.922zm-5.32 0l21.47-18.922h3.57l-21.46 18.922z"/><g transform="translate(1346 27)"><mask id="x" fill="#fff"><use xlink:href="#v"/></mask><path fill="url(#w)" fill-rule="nonzero" mask="url(#x)" d="M234.59.943h-84.07l-3.58 3.44h-33.98L109.38.942H86.13l-5.37 5.161H3.85L.27 7.823l1.79 1.72 1.79-3.44h76.91L86.13.942h23.25l3.58 3.441h35.77l1.79-3.44z"/></g><path stroke="#D9C89B" stroke-width=".099" d="M1446.47 26.21h-14.31l-5.36 5.16h-19.68"/><g transform="translate(1564 10)"><mask id="A" fill="#fff"><use xlink:href="#y"/></mask><path fill="url(#z)" fill-rule="nonzero" mask="url(#A)" opacity=".2" d="M.55 5.858L4.13.698h12.52v1.72H5.91l-3.57 3.44z"/></g><g transform="translate(1412 41)"><mask id="D" fill="#fff"><use xlink:href="#B"/></mask><path fill="url(#C)" fill-rule="nonzero" mask="url(#D)" d="M69.55.179H0v1.52h67.97L80.62 12.34h393.6v-1.52H80.62z"/></g><path stroke="#D9C89B" stroke-opacity=".8" stroke-width=".033" d="M1412 60.94h151.75l9.49-7.601"/><path fill="#D9C89B" fill-rule="nonzero" d="M1528.95 56.368l4.75-3.04h3.16l-3.16 3.04zm7.91 0l3.16-3.04h4.74l-3.16 3.04zm1.6 6.061l9.48-9.121h3.16l-9.48 9.121zm129.61 0l9.48-9.121h3.16l-9.48 9.121zm-6.3 0l9.48-9.121h3.16l-9.48 9.121zm-6.36 0l9.49-9.121h3.16l-9.49 9.121zm-110.65 0l7.9-9.121h3.16l-9.48 9.121z"/><path stroke="#D9C89B" stroke-opacity=".2" stroke-width=".033" d="M1413.61 63.96h83.78l1.58 3.04h45.84l3.16-3.04h37.94l4.74-4.56h83.78l4.74 4.56h31.61"/><path stroke="#D9C89B" stroke-width=".066" d="M1540.06 67h6.33l1.58-1.52"/><path fill="#D9C89B" fill-opacity=".2" fill-rule="nonzero" d="M1532.14 67l-3.17-1.52h-18.96l-3.17 1.52"/><path stroke="#D9C89B" stroke-width=".066" d="M1498.92 65.456l-1.58-1.52h-23.71"/><path fill="#D9C89B" fill-opacity=".2" fill-rule="nonzero" d="M1595.34 53.328h83.78l-3.16 3.04h-83.78z"/><path fill="#D9C89B" fill-rule="nonzero" d="M1590.61 59.389h18.97l-3.16 3.04h-17.39z"/><path fill="#D9C89B" fill-opacity=".2" fill-rule="nonzero" d="M1710.77 63.973h-17.39l3.17-1.52h12.64l7.9-9.121h4.75z"/><path fill="#D9C89B" fill-rule="nonzero" d="M1525.81 56.368l4.74-3.04h-39.52l4.75 3.04z"/><g transform="translate(1679 45)"><mask id="G" fill="#fff"><use xlink:href="#E"/></mask><path fill="url(#F)" fill-rule="nonzero" mask="url(#G)" d="M207.2.74h-74.3l-3.16 3.041-30.03-.001L96.54.74H76l-4.75 4.561H3.28L.12 6.821l1.58 1.52 1.58-3.04h67.97L76 .74h20.54l3.17 3.04 31.61.001L132.9.74z"/></g><g transform="translate(1573 22)"><mask id="I" fill="#fff"><use xlink:href="#H"/></mask><path fill="url(#C)" fill-rule="nonzero" mask="url(#I)" d="M69.55.179H0v1.52h67.97L80.62 12.34h393.6v-1.52H80.62z"/></g><path stroke="#D9C89B" stroke-opacity=".8" stroke-width=".033" d="M1573 41.94h151.75l9.49-7.601"/><path fill="#D9C89B" fill-rule="nonzero" d="M1689.95 37.368l4.75-3.04h3.16l-3.16 3.04zm7.91 0l3.16-3.04h4.74l-3.16 3.04zm1.6 6.061l9.48-9.121h3.16l-9.48 9.121z"/><path stroke="#D9C89B" stroke-opacity=".2" stroke-width=".033" d="M1574.61 44.96h83.78l1.58 3.04h45.84l3.16-3.04h37.94l4.74-4.56h83.78l4.74 4.56h31.61"/><path stroke="#D9C89B" stroke-width=".066" d="M1701.06 48h6.33l1.58-1.52"/><path fill="#D9C89B" fill-opacity=".2" fill-rule="nonzero" d="M1693.14 48l-3.17-1.52h-18.96l-3.17 1.52"/><path stroke="#D9C89B" stroke-width=".066" d="M1659.92 46.456l-1.58-1.52h-23.71"/><path fill="#D9C89B" fill-rule="nonzero" d="M1686.81 37.368l4.74-3.04h-39.52l4.75 3.04z"/><g transform="translate(0 41)"><mask id="L" fill="#fff"><use xlink:href="#J"/></mask><path fill="url(#K)" fill-rule="nonzero" mask="url(#L)" d="M390.832 11.937h67.17v-1.468h-65.643L380.146.192H.029V1.66h380.117z"/></g><path stroke="#D9C89B" stroke-opacity=".8" stroke-width=".033" d="M458 33.852H311.449l-9.16 7.341"/><path fill="#D9C89B" fill-rule="nonzero" d="M345.053 38.268l-4.58 2.936h-3.053l3.053-2.936zm-7.632 0l-3.053 2.936h-4.58l3.054-2.936zm-1.545-5.853l-9.159 8.808h-3.053l9.159-8.808zm-6.085 0l-7.633 8.808h-3.054l9.16-8.808z"/><path stroke="#D9C89B" stroke-opacity=".2" stroke-width=".033" d="M456.449 30.936H375.54L374.014 28h-44.271l-3.053 2.936h-36.638l-4.579 4.404h-80.909l-4.58-4.404h-30.531"/><path stroke="#D9C89B" stroke-width=".066" d="M334.325 28h-6.106l-1.527 1.468"/><path fill="#D9C89B" fill-opacity=".2" fill-rule="nonzero" d="M341.981 28l3.053 1.468h18.319L366.406 28"/><path stroke="#D9C89B" stroke-width=".066" d="M374.061 29.491l1.527 1.468h22.898"/><path fill="#D9C89B" fill-opacity=".2" fill-rule="nonzero" d="M280.941 41.204h-80.909l3.053-2.936h80.909z"/><path fill="#D9C89B" fill-rule="nonzero" d="M285.507 35.351h-18.319l3.053-2.936h16.792zm62.582 2.917l-4.58 2.936h38.164l-4.579-2.936z"/></g></svg>