<svg xmlns="http://www.w3.org/2000/svg" width="270" height="199" viewBox="0 0 270 199">
    <g fill="none" fill-rule="evenodd">
        <rect width="270" height="199" fill="#252122"/>
        <path fill="#728584" fill-rule="nonzero"
              d="M135,25 C93.6589286,25 60,58.6589286 60,100 C60,141.341071 93.6589286,175 135,175 C176.341071,175 210,141.341071 210,100 C210,58.6589286 176.341071,25 135,25 Z M188.725288,54.494382 C197.779548,65.1662408 203.683829,78.5847273 204.94382,93.258427 L195.732461,93.258427 C194.472469,81.0953658 189.591732,69.9529083 182.191011,61.0073921 L188.725288,54.494382 Z M179.805414,132.865169 C179.805414,132.786232 179.805414,132.786232 179.805414,132.706759 C179.256889,131.357324 177.92506,130.722075 177.768718,129.213694 C177.611845,127.86426 178.16037,126.117459 177.533408,124.926971 C176.750104,123.498063 175.496182,123.41859 175.96627,121.354433 C176.280016,120.084472 178.081933,118.576091 178.081933,117.30613 C178.081933,116.274051 176.436359,114.368841 175.96627,113.495709 C175.417746,112.463631 174.24279,111.114196 174.00748,110.002644 C173.694265,108.573737 174.321226,106.50958 174.477569,105.080672 C173.459486,105.001199 171.735475,105.160145 170.795298,104.683843 C169.306596,103.96912 169.776685,103.095988 167.817895,103.334408 C166.721375,103.492818 166.329723,104.20754 165.31111,104.524896 C164.135624,104.842789 162.569016,104.524896 161.39353,104.524896 L161.236657,104.921725 C160.061701,104.921725 159.277867,105.160145 158.416127,104.445423 C157.084298,103.413881 155.987248,101.587607 154.812292,100.317646 C154.106894,99.5239874 153.480463,98.9682115 153.245154,98.0156064 C153.010375,96.6661719 153.245154,94.919371 153.32359,93.5699365 C154.576983,93.3320537 154.342204,92.4583848 154.576983,91.3473701 L153.245154,91.3473701 L152.696629,89.3626865 C154.42064,88.0921883 156.144121,86.822227 157.867602,85.6312021 C158.259784,85.313846 158.964651,84.99649 159.121524,84.5201874 C159.43474,83.7259917 159.121524,82.2181477 159.121524,81.3444788 C160.218044,80.7097667 161.471966,79.7571615 162.725359,79.598215 C163.979281,79.4392684 165.232673,79.915571 166.407629,79.5187417 C167.817895,79.0424391 168.36642,78.5661365 169.933558,78.4866633 C171.500696,78.3280389 173.067304,78.2486731 174.634442,78.0898876 L174.634442,81.4239521 L179.805414,82.7733866 C180.510812,83.2496891 180.902464,83.6470555 181.764204,83.4881089 L181.764204,81.6623718 C182.547508,81.5828986 183.958303,81.106596 184.741607,81.3444788 C185.681784,81.6623718 186.386652,82.8528598 187.248922,83.2496891 C187.405265,83.3291624 187.796917,83.4086357 188.189099,83.4881089 C189.755707,88.6479641 190.617978,94.1257124 190.617978,99.7618702 C190.539541,112.225211 186.543525,123.577537 179.805414,132.865169 Z M162.834337,62.3982862 C163.389527,61.3134263 164.183654,61.39095 165.294572,61.2359551 C165.770833,63.5606173 166.32656,65.4978709 168.707865,66.3502645 C167.914276,67.2801294 167.755343,67.5901193 166.644425,67.8225855 C165.612437,67.9775281 164.580449,67.9775281 163.627926,67.9775281 L163.786859,65.9628033 L165.215642,65.6528658 C165.294572,63.8706073 162.516472,64.1805448 162.834337,62.3982862 Z M163.79764,64.1898054 C163.722809,65.4605245 163.573652,65.4605245 162.527022,66.2079795 C161.555225,66.8807042 161.256404,67.0302155 160.134944,67.0302155 L160.134944,65.9090076 C161.181573,64.1898054 161.854045,63.3675694 163.79764,64.1898054 Z M162.139691,73.1145028 C163.697019,72.8030292 164.865146,73.1145028 166.421948,73.4260289 L166.811675,71.7906481 L165.565602,71.4791746 L166.032747,68.9093206 C166.811675,68.7536102 168.29053,68.8314654 168.991512,68.442084 C169.769913,67.9748474 170.15964,66.5731376 170.860095,65.8722827 C172.261532,64.5484281 174.20806,65.4829013 175.920752,65.4049934 L175.531552,62.6015738 L173.195823,63.536047 L172.339477,61.4334296 L170.93804,61.2777192 C170.704204,60.0317198 170.704204,59.4087201 171.794386,58.7078652 C177.088879,63.3802839 181.5265,68.9872285 184.719101,75.3728832 C184.56321,75.5285937 184.485265,75.6065016 184.40732,75.762212 C183.940174,76.5409748 183.862755,77.7869742 183.706864,78.6435395 C183.083828,77.9426846 181.916227,77.1639745 181.5265,76.3073565 C181.215245,75.6065016 181.604445,74.5941205 181.215245,73.8932655 C180.826045,73.2702658 179.502553,72.1800295 178.801571,71.7906481 C177.945225,71.2455563 177.010934,71.4013194 175.920752,71.4013194 C176.232534,72.4136478 176.387898,73.2702658 177.166825,73.8932655 C178.101116,74.6719757 179.502553,74.8277388 180.203008,75.8401199 L179.580499,76.1515934 L179.580499,77.9426846 C177.86728,78.6435395 177.166825,78.721184 176.076643,77.1639745 C177.088879,77.2418297 178.179062,77.6312111 178.646207,76.5409748 C176.777625,75.2949754 174.363951,74.4383574 173.81886,72.1800295 C173.351714,72.5694109 172.650732,73.5817394 172.028222,73.8154103 C171.561077,73.9711208 170.626785,73.5817394 170.081694,73.5038842 C168.835621,75.1392649 167.434184,76.61883 166.733729,78.6435395 C165.410237,78.7991446 163.619073,79.1109868 162.373527,78.7991446 C160.58289,78.4099212 160.58289,77.5533032 160.349054,75.9179751 C160.115744,74.2047391 160.426999,73.4260289 162.139691,73.1145028 Z M180.505618,46.2289162 L173.891377,52.8089888 C164.726854,45.35685 153.33063,40.5209099 140.898876,39.4110123 L140.898876,30.0561798 C155.880913,31.2453795 169.588078,37.1119579 180.505618,46.2289162 Z M137.42124,128.172594 C137.103583,128.727702 136.388184,129.520407 136.308635,130.154893 C136.150076,131.106354 137.024035,132.295412 137.024035,133.246872 C137.024035,134.753441 135.037472,136.418766 134.083964,137.607823 C133.210006,138.718039 132.8128,140.065853 131.700196,140.859094 C130.110838,141.968774 128.283372,142.365663 126.455906,142.60326 L126.376358,143.554721 L127.965716,144.030451 C127.72707,145.220045 127.250316,145.616398 126.296809,146.488481 C127.250316,147.677538 127.409413,147.598697 128.919223,147.677538 C128.839674,148.708377 128.044727,150.294323 128.203824,151.245784 C128.442469,152.038489 130.110838,152.98995 130.746689,153.545058 L130.429032,154.655274 C129.475525,154.655274 127.806619,154.972249 126.93266,154.575897 C125.979153,154.179544 125.025645,152.911109 124.230698,152.276623 C123.515836,151.642137 123.198179,151.166406 122.721426,150.294323 C122.165123,149.263485 121.052519,147.995049 120.734863,146.884833 C120.496217,146.01275 120.893422,144.664937 120.972971,143.713476 C121.132068,142.206907 120.972971,142.12753 120.099012,140.859094 C119.304602,139.828256 119.145505,139.748878 119.225053,138.559284 C119.383613,137.370226 119.701807,136.101791 119.860366,134.912197 L118.668751,134.595222 C118.668751,131.582084 118.7483,128.568947 118.668751,125.555809 C118.589202,123.177157 115.251927,122.067477 113.265418,121.512369 C112.9476,119.847045 112.709223,119.291937 111.59678,117.944123 C110.802155,116.913285 108.736204,115.248497 108.497828,113.980061 C108.338946,113.424953 108.89514,112.552334 108.89514,111.997762 C108.974581,111.125143 108.815699,110.25306 108.974581,109.460355 C109.292453,108.112542 110.88165,107.478056 112.073534,106.605973 L111.59678,102.958349 C110.325401,102.879508 108.89514,102.958349 107.623761,102.641374 C106.590813,102.403777 106.193501,101.610536 105.47837,100.738453 C104.76324,99.9457479 104.12755,98.9149094 103.253484,98.5185568 C102.220482,97.9634487 100.631285,97.8046931 99.4394011,97.6459376 L99.5983369,96.2187465 L97.5323866,95.9017718 L97.5323866,96.6944769 C96.102072,96.2981243 94.0361216,96.2187465 92.7647428,95.5054192 C91.7317945,94.8709333 91.016664,93.2849867 90.3809746,92.2546845 L91.2550409,90.7481157 C90.3014798,89.3209246 89.0301547,87.8937336 88.2355295,86.3871648 C87.6793349,85.2769485 87.5998401,83.8497575 87.440958,82.5019442 L86.328515,82.5019442 C86.4874508,83.8497575 86.4874508,85.2769485 87.1230865,86.4665426 C88.0766475,88.2107084 89.1095958,88.7658165 88.7122831,90.6687379 C87.8382707,90.5099824 87.2025812,90.5893601 86.5668918,90.034252 C85.8517614,89.4003024 85.1366309,87.8143558 84.7393183,86.9422729 C84.1036289,85.4357041 84.4214467,83.4534049 84.4214467,81.7880805 L82.752809,80.9953754 C87.0436454,69.4191451 95.1485647,59.666512 105.47837,53.1648282 C106.352436,53.4819638 107.226503,53.7990995 108.259451,54.0369647 L108.418387,54.988479 L112.391405,55.1470201 L111.835157,53.8784237 L108.338892,53.7990995 L109.133517,53.0062335 L109.054076,52.0547728 L107.54432,52.0547728 C109.212958,51.1032585 110.88165,50.2310683 112.709223,49.4382022 C113.185977,49.6760674 113.503795,50.6275281 113.821666,50.9447174 C114.457517,51.5789888 114.139323,51.4204478 114.93427,51.5789888 C116.682188,52.0547728 117.23849,51.3411236 118.430105,50.1517978 L119.622258,50.7068523 C119.065956,51.2618531 118.191997,52.5305031 117.476598,52.7683683 C116.761736,53.085504 115.411024,52.8476388 114.616076,52.8476388 C114.775173,52.8476388 114.854722,54.6712897 114.854722,54.9091549 L118.430105,54.8298844 L118.827848,53.8784237 L121.291165,53.719829 L121.608821,52.292638 L120.17856,52.0547728 C120.575766,50.9447174 120.734863,50.5482576 122.006026,50.3896629 C123.198179,50.3103924 124.469343,50.5482576 125.660958,50.5482576 L123.515836,52.5305031 L123.833492,54.0369647 L126.058701,54.354154 L125.899604,51.658313 C127.647521,50.7068523 129.713633,49.8346621 131.779745,50.0725273 C133.607211,50.3103924 135.673322,51.7375835 137.341691,52.5305031 L137.341691,54.5920192 L139.090146,55.0677496 L138.21565,56.7328058 L135.752871,56.7328058 L135.037472,58.6357808 L129.316428,57.2878603 L133.766308,54.9091549 C132.8128,54.1162889 132.415058,53.5612344 131.302991,53.5612344 C130.508043,53.5612344 128.362921,53.5612344 127.886167,54.2748299 C126.853111,55.4642094 126.455906,55.5434799 124.866548,55.6227504 C124.787,56.2570754 125.025645,56.7328058 125.660958,56.8121299 L125.660958,57.1292656 L124.151687,57.3671308 L124.072138,58.239321 L122.641877,58.3185915 L122.403232,56.5742647 C119.54271,57.4464549 117.23849,58.873646 114.616076,60.3801612 C115.013819,61.7280817 115.013819,62.7588129 116.44408,63.3138674 C117.397587,63.7102736 118.589202,63.7102736 119.622258,63.8688683 L119.622258,67.1990344 C120.258109,67.1197638 120.734863,67.1197638 121.132068,66.723304 C121.68837,66.1682495 121.608821,65.1375183 122.165123,64.5824638 C122.800437,63.8688683 124.389795,63.7102736 125.343302,63.3931379 C125.343302,61.569487 124.707451,59.666512 126.376358,58.6357808 C127.806619,57.7635906 129.634085,58.7150513 131.302991,59.1115112 L130.984797,61.7280817 C132.574155,61.7280817 133.766308,60.935162 135.196569,60.2215665 C135.196569,61.0937567 134.957923,62.7588129 135.355128,63.5517326 C135.673322,64.1860576 136.944486,64.6617879 137.580337,65.0581941 L137.500788,67.1197638 L135.355128,67.8333594 C135.276117,68.9434147 137.262143,69.3398209 138.05709,69.6570102 L137.977542,71.0842013 L137.262143,71.1635254 C137.262143,70.8463361 134.401621,70.2120111 134.004416,70.1327406 L133.845319,69.1019557 C134.560718,68.6262254 135.037472,68.4676844 134.798826,67.51617 L133.766308,67.2783049 L133.527662,68.1504951 C132.891811,68.2298192 132.17695,68.4676844 131.541099,68.3883602 L131.541099,68.4676844 L130.905786,68.5469549 C130.110838,66.8818987 127.965716,66.5647093 127.965716,68.7848201 C128.680577,69.0226852 129.395976,69.1812799 130.110838,69.3398746 C129.634085,69.6570102 129.236879,70.1327406 128.839674,70.5292004 C127.806619,68.4676844 125.740507,71.4013906 124.866548,72.1942567 L125.184205,72.511446 C123.833492,73.304312 122.244672,73.938637 121.052519,74.8900977 C120.099012,75.6830174 119.225053,76.7137486 118.351094,77.6652629 C117.556147,78.5373995 117.953352,78.7752647 117.476598,79.8063177 C116.841285,81.0747532 114.616076,81.7880805 113.424354,82.818919 C112.709223,83.4534049 112.152975,83.9291352 111.994093,84.8012182 C111.835157,85.7526789 112.073534,86.9422729 112.152975,87.8937336 L109.689765,86.7041396 L109.689765,84.5636212 C107.54432,84.5636212 104.842681,84.0878908 102.77673,84.5636212 C100.234026,85.118193 98.6448297,86.8628951 97.6912686,89.0827913 C97.3734508,89.796655 96.9761382,90.9063349 97.0555792,91.6995764 C97.2940098,93.1267674 97.9296455,93.7612534 99.2010243,93.8400948 C100.71078,93.9988504 100.790221,93.9988504 102.0616,93.2061452 C103.174043,92.4922815 104.206991,91.7789542 105.319434,90.9857127 C105.796188,92.8092563 105.239993,93.4437422 104.365927,95.0296888 L107.782697,95.584797 L108.100569,100.897209 C109.212958,101.055428 111.755716,102.086266 112.788664,101.689914 C113.821666,101.293561 115.09283,99.0731286 115.808229,98.2804235 C117.318039,98.5973983 118.986408,98.5185568 119.939915,99.7076145 C120.655314,100.579697 120.416668,100.579697 121.449724,100.738453 C122.323683,100.817831 123.356739,100.659075 124.230698,100.579697 L124.310246,99.548859 C125.740507,100.262723 126.217261,100.500856 127.091219,101.769292 C128.203824,103.43408 128.044727,103.830968 130.03129,103.830968 C132.017853,103.830968 132.336047,103.751591 133.210006,105.73389 C133.686759,106.84357 133.607211,107.953786 133.686759,109.14338 C134.878374,109.61911 136.150076,110.25306 137.42124,110.570571 C138.613393,110.887546 139.805008,110.72879 140.997161,110.72879 C142.824627,110.72879 142.824627,110.570571 143.857682,112.155981 C144.652093,113.424953 145.367492,113.504331 146.797753,113.980061 C146.40001,115.961824 145.844246,116.675688 144.572544,118.261634 C143.539488,119.609448 143.619037,121.036639 143.460477,122.701427 C143.30138,124.525507 143.539488,125.87332 142.109228,126.983 C140.520407,128.489569 139.5669,128.172594 137.42124,128.172594 Z M132.431039,70.4385197 L132.131713,71.1112445 L131.309579,71.1859748 C131.38441,72.2324523 130.412612,72.3819636 129.590478,72.3819636 C129.590478,72.157722 129.515646,72.0082107 129.515646,72.0082107 L129.141994,72.0082107 L129.141994,71.1859748 L130.711938,71.1859748 L131.010758,70.3637894 C131.534073,70.2890085 131.982556,70.2890085 132.431039,70.4385197 Z M128.058141,72.0041601 L127.908478,72.8263961 L126.787523,72.9011264 C126.712692,72.303132 126.936681,71.8546489 127.385164,71.4808961 L128.058141,72.0041601 Z M128.258427,30.0561798 L128.258427,39.3317185 C116.154914,40.6001328 105.000075,45.4361197 96.0605566,52.8089888 L89.494382,46.2289255 C100.253441,37.2704984 113.623226,31.4039283 128.258427,30.0561798 Z M81.2517737,55.3370787 L87.8089888,61.8632523 C80.4617207,70.8269214 75.5635421,81.9133801 74.3785161,94.1011236 L65.0561798,94.1011236 C66.3992164,79.3976469 72.2454158,66.0305936 81.2517737,55.3370787 Z M81.2854508,144.662921 C72.2161589,133.912706 66.3290728,120.572737 65.0561798,105.898876 L74.3641236,105.898876 C75.5574911,118.06154 80.4103361,129.204544 87.8089888,138.150052 L81.2854508,144.662921 Z M89.494382,153.748001 L96.0338973,147.191011 C105.015818,154.617457 116.0464,159.436604 128.258427,160.700441 L128.258427,169.94382 C113.525012,168.679449 100.130901,162.833734 89.494382,153.748001 Z M140.898876,169.94382 L140.898876,160.700759 C153.360209,159.515449 164.710705,154.696189 173.917917,147.191011 L180.505618,153.748155 C169.552424,162.833567 155.900259,168.759045 140.898876,169.94382 Z M182.191011,138.878027 C189.642826,129.695006 194.478783,118.355722 195.668199,105.898876 L204.94382,105.898876 C203.675038,120.911153 197.808397,134.565502 188.691507,145.505618 L182.191011,138.878027 Z"/>
    </g>
</svg>
