<svg width="414" height="136" fill="none" xmlns="http://www.w3.org/2000/svg"><g opacity=".3"><mask id="a" maskUnits="userSpaceOnUse" x="-18" y="9" width="328" height="9"><path d="M261.511 9.412h48.037v1.05h-46.945l-8.735 7.349H-17.98v-1.05h271.848l7.643-7.35z" fill="url(#paint0_linear)"/></mask><g mask="url(#a)"><path d="M261.511 9.412h48.038v1.05h-46.946l-8.734 7.349H-17.98v-1.05h271.85l7.642-7.35z" fill="url(#paint1_linear)"/></g><path d="M309.548 23.06H204.739l-6.55-5.25" stroke="#D9C89B" stroke-opacity=".8" stroke-width=".033" stroke-miterlimit="10"/><path d="M228.772 19.902l-3.276-2.1h-2.183l2.183 2.1h3.276zm-5.458 0l-2.183-2.1h-3.276l2.184 2.1h3.275zm-1.105 4.186l-6.55-6.3h-2.184l6.551 6.3h2.183zm-89.517 0l-6.551-6.3h-2.183l6.55 6.3h2.184zm4.352 0l-6.551-6.3h-2.183l6.55 6.3h2.184zm4.388 0l-6.55-6.3h-2.184l6.551 6.3h2.183zm76.425 0l-5.459-6.3h-2.184l6.551 6.3h1.092z" fill="#D9C89B"/><path d="M308.439 25.145h-57.863l-1.092 2.1h-31.661l-2.184-2.1h-26.202l-3.275-3.15h-57.863l-3.276 3.15h-21.835" stroke="#D9C89B" stroke-opacity=".2" stroke-width=".033" stroke-miterlimit="10"/><path d="M221.1 27.245h-4.367l-1.092-1.05" stroke="#D9C89B" stroke-width=".066" stroke-miterlimit="10"/><path d="M226.575 27.245l2.183-1.05h13.101l2.184 1.05" fill="#D9C89B" fill-opacity=".2"/><path d="M249.518 26.179l1.091-1.05h16.377" stroke="#D9C89B" stroke-width=".066" stroke-miterlimit="10"/><path d="M182.92 17.802h-57.863l2.184 2.1h57.863l-2.184-2.1z" fill="#D9C89B" fill-opacity=".2"/><path d="M186.186 21.988h-13.101l2.184 2.1h12.009l-1.092-2.1z" fill="#D9C89B"/><path d="M103.197 25.154h12.009l-2.183-1.05h-8.734l-5.46-6.299h-3.275l7.643 7.35z" fill="#D9C89B" fill-opacity=".2"/><path d="M230.943 19.902l-3.275-2.1h27.294l-3.275 2.1h-20.744z" fill="#D9C89B"/><path d="M95.546 16.748L78.078 1H33.316l-4.367 4.2H-7.08L-10.355 1h-7.642" stroke="#D9C89B" stroke-opacity=".2" stroke-width=".033" stroke-miterlimit="10"/><path d="M10.421 16.748L-2.679 5.2h-2.184l13.1 11.55h2.184zm3.244 0L.563 5.2H-1.62l13.1 11.55h2.184z" fill="#D9C89B" fill-opacity=".2"/><mask id="b" maskUnits="userSpaceOnUse" x="-18" y="12" width="144" height="6"><path d="M-17.96 12.562h51.312l2.184 2.1h20.743l2.184-2.1h14.193l3.275 3.15h46.946l2.183 1.05-1.092 1.05-1.091-2.1H75.931l-3.275-3.15H58.463l-2.184 2.1H34.444l-1.092-2.1H-17.96z" fill="url(#paint2_linear)"/></mask><g mask="url(#b)"><path d="M-17.963 12.562H33.35l2.183 2.1h20.744l2.183-2.1h14.193l3.275 3.15h46.946l2.184 1.049-1.092 1.05-1.092-2.1H75.928l-3.275-3.15H58.46l-2.183 2.1H34.44l-1.091-2.1h-51.313z" fill="url(#paint3_linear)"/></g><path d="M63.896 11.504h8.734l3.276 3.15h12.009" stroke="#D9C89B" stroke-width=".099" stroke-miterlimit="10"/><mask id="c" maskUnits="userSpaceOnUse" x="183" y="118" width="328" height="9"><path d="M231.038 118H183v1.05h46.946l8.734 7.349h271.849v-1.05H238.68L231.038 118z" fill="url(#paint4_linear)"/></mask><g mask="url(#c)"><path d="M231.037 118H183v1.05h46.945l8.734 7.349h271.849v-1.05H238.679L231.037 118z" fill="url(#paint5_linear)"/></g><path d="M183 131.648h104.809l6.551-5.249" stroke="#D9C89B" stroke-opacity=".8" stroke-width=".033" stroke-miterlimit="10"/><path d="M263.777 128.49l3.275-2.1h2.184l-2.184 2.1h-3.275zm5.457 0l2.184-2.1h3.275l-2.183 2.1h-3.276zm1.105 4.186l6.551-6.299h2.184l-6.551 6.299h-2.184zm89.518 0l6.551-6.299h2.183l-6.551 6.299h-2.183zm-4.352 0l6.55-6.299h2.184l-6.551 6.299h-2.183zm-4.389 0l6.551-6.299h2.183l-6.55 6.299h-2.184zm-76.424 0l5.459-6.299h2.183l-6.55 6.299h-1.092z" fill="#D9C89B"/><path d="M184.109 133.734h57.864l1.092 2.099h31.661l2.183-2.099h26.202l3.276-3.15h57.863l3.275 3.15h21.836" stroke="#D9C89B" stroke-opacity=".2" stroke-width=".033" stroke-miterlimit="10"/><path d="M271.449 135.833h4.367l1.091-1.049" stroke="#D9C89B" stroke-width=".066" stroke-miterlimit="10"/><path d="M265.974 135.833l-2.184-1.049h-13.101l-2.183 1.049" fill="#D9C89B" fill-opacity=".2"/><path d="M243.031 134.767l-1.092-1.05h-16.376" stroke="#D9C89B" stroke-width=".066" stroke-miterlimit="10"/><path d="M309.628 126.39h57.864l-2.184 2.1h-57.863l2.183-2.1z" fill="#D9C89B" fill-opacity=".2"/><path d="M306.362 130.576h13.101l-2.183 2.1h-12.01l1.092-2.1z" fill="#D9C89B"/><path d="M389.352 133.743h-12.01l2.184-1.05h8.734l5.459-6.299h3.275l-7.642 7.349z" fill="#D9C89B" fill-opacity=".2"/><path d="M261.606 128.49l3.275-2.1h-27.294l3.275 2.1h20.744z" fill="#D9C89B"/><path d="M409.002 118.748L426.47 103h44.762l4.367 4.2h36.028l3.275-4.2h7.643" stroke="#D9C89B" stroke-opacity=".2" stroke-width=".033" stroke-miterlimit="10"/><mask id="d" maskUnits="userSpaceOnUse" x="379" y="114" width="144" height="6"><path d="M522.509 114.562h-51.313l-2.184 2.1h-20.743l-2.184-2.1h-14.193l-3.275 3.149h-46.946l-2.183 1.05 1.092 1.05 1.091-2.1h46.946l3.275-3.149h14.193l2.184 2.1h21.835l1.092-2.1h51.313z" fill="url(#paint6_linear)"/></mask><g mask="url(#d)"><path d="M522.511 114.562h-51.313l-2.183 2.099h-20.744l-2.183-2.099-14.193-.001-3.275 3.15h-46.946l-2.184 1.05 1.092 1.05 1.092-2.1h46.946l3.275-3.15 14.193.001 2.183 2.099h21.836l1.091-2.099h51.313z" fill="url(#paint7_linear)"/></g><mask id="e" maskUnits="userSpaceOnUse" x="259" y="102" width="328" height="9"><path d="M307.038 102.412H259v1.05h46.946l8.734 7.349h271.849v-1.05H314.68l-7.642-7.349z" fill="url(#paint8_linear)"/></mask><g mask="url(#e)"><path d="M307.037 102.412h-48.038v1.05h46.946l8.734 7.349h271.849v-1.05H314.679l-7.642-7.349z" fill="url(#paint9_linear)"/></g><path d="M259 116.06h104.809l6.551-5.25" stroke="#D9C89B" stroke-opacity=".8" stroke-width=".033" stroke-miterlimit="10"/><path d="M339.777 112.902l3.275-2.1h2.184l-2.184 2.1h-3.275zm5.457 0l2.184-2.1h3.275l-2.183 2.1h-3.276zm1.105 4.186l6.551-6.299h2.183l-6.55 6.299h-2.184zm4.353 0l5.459-6.299h2.183l-6.55 6.299h-1.092z" fill="#D9C89B"/><path d="M260.109 118.145h57.864l1.091 2.1h31.661l2.184-2.1h26.202l3.276-3.149h57.863l3.275 3.15h21.835" stroke="#D9C89B" stroke-opacity=".2" stroke-width=".033" stroke-miterlimit="10"/><path d="M347.448 120.245h4.368l1.091-1.05" stroke="#D9C89B" stroke-width=".066" stroke-miterlimit="10"/><path d="M341.974 120.245l-2.184-1.05h-13.101l-2.183 1.05" fill="#D9C89B" fill-opacity=".2"/><path d="M319.031 119.179l-1.092-1.05h-16.376" stroke="#D9C89B" stroke-width=".066" stroke-miterlimit="10"/><path d="M385.628 110.802h57.863l-2.183 2.1h-57.864l2.184-2.1z" fill="#D9C89B" fill-opacity=".2"/><path d="M382.362 114.988h13.101l-2.183 2.1h-12.01l1.092-2.1zm-44.757-2.086l3.276-2.1h-27.294l3.275 2.1h20.743z" fill="#D9C89B"/><mask id="f" maskUnits="userSpaceOnUse" x="-130" y="102" width="328" height="9"><path d="M-81.962 102.412H-130v1.05h46.946l8.734 7.349h271.849v-1.05H-74.32l-7.642-7.349z" fill="url(#paint10_linear)"/></mask><g mask="url(#f)"><path d="M-81.963 102.412h-48.038v1.05h46.946l8.734 7.349h271.849v-1.05H-74.321l-7.642-7.349z" fill="url(#paint11_linear)"/></g><path d="M46.857 117.088l6.55-6.299h2.184l-6.55 6.299h-2.184zm-4.352 0l6.55-6.299h2.184l-6.551 6.299h-2.184zm-4.389 0l6.55-6.299h2.184l-6.55 6.299h-2.184z" fill="#D9C89B"/><path d="M-128.891 118.145h57.864l1.091 2.1h31.662l2.183-2.1h26.202l3.276-3.149H51.25l3.275 3.15h21.836" stroke="#D9C89B" stroke-opacity=".2" stroke-width=".033" stroke-miterlimit="10"/><path d="M-3.372 110.802h57.863l-2.183 2.1H-5.555l2.183-2.1z" fill="#D9C89B" fill-opacity=".2"/><path d="M-6.638 114.988H6.463l-2.183 2.1H-7.73l1.092-2.1z" fill="#D9C89B"/><path d="M76.352 118.154h-12.01l2.184-1.049h8.734l5.459-6.3h3.275l-7.642 7.349z" fill="#D9C89B" fill-opacity=".2"/><path d="M84.002 109.748L101.47 94h44.763l4.367 4.2h36.028l3.275-4.2h7.642" stroke="#D9C89B" stroke-opacity=".2" stroke-width=".033" stroke-miterlimit="10"/><path d="M169.127 109.748l13.101-11.549h2.184l-13.101 11.549h-2.184zm-3.243 0l13.101-11.549h2.184l-13.102 11.549h-2.183z" fill="#D9C89B" fill-opacity=".2"/><mask id="g" maskUnits="userSpaceOnUse" x="54" y="105" width="144" height="6"><path d="M197.509 105.562h-51.313l-2.183 2.1h-20.744l-2.183-2.1h-14.193l-3.275 3.149H56.672l-2.184 1.05 1.092 1.05 1.092-2.1h46.946l3.275-3.149h14.193l2.183 2.1h21.836l1.091-2.1h51.313z" fill="url(#paint12_linear)"/></mask><g mask="url(#g)"><path d="M197.512 105.562h-51.313l-2.184 2.099h-20.743l-2.184-2.099-14.193-.001-3.275 3.15H56.674l-2.183 1.05 1.092 1.05 1.091-2.1h46.946l3.275-3.15 14.193.001 2.184 2.099h21.835l1.092-2.099h51.313z" fill="url(#paint13_linear)"/></g><path d="M115.652 104.504h-8.734l-3.275 3.149h-12.01" stroke="#D9C89B" stroke-width=".099" stroke-miterlimit="10"/><mask id="h" maskUnits="userSpaceOnUse" x="187" y="95" width="11" height="4"><path d="M187.722 98.189l2.184-3.15h7.642v1.05h-6.55l-2.184 2.1h-1.092z" fill="url(#paint14_linear)"/></mask><g mask="url(#h)"><path opacity=".2" d="M187.72 98.186l2.183-3.15h7.642v1.05h-6.55l-2.184 2.1h-1.091z" fill="url(#paint15_linear)"/></g><mask id="i" maskUnits="userSpaceOnUse" x="-159" y="42" width="328" height="9"><path d="M-110.962 42.412H-159v1.05h46.946l8.734 7.349h271.849v-1.05H-103.32l-7.642-7.35z" fill="url(#paint16_linear)"/></mask><g mask="url(#i)"><path d="M-110.963 42.412h-48.038v1.05h46.946l8.734 7.349h271.849v-1.05h-271.849l-7.642-7.35z" fill="url(#paint17_linear)"/></g><path d="M17.857 57.088l6.55-6.3h2.184l-6.55 6.3h-2.184zm-4.352 0l6.55-6.3h2.184l-6.551 6.3h-2.184zm-4.389 0l6.55-6.3h2.184l-6.55 6.3H9.116z" fill="#D9C89B"/><path d="M-157.891 58.145h57.864l1.091 2.1h31.662l2.183-2.1h26.202l3.276-3.15H22.25l3.275 3.15h21.836" stroke="#D9C89B" stroke-opacity=".2" stroke-width=".033" stroke-miterlimit="10"/><path d="M-32.372 50.802h57.863l-2.183 2.1h-57.864l2.184-2.1zm79.724 7.352h-12.01l2.184-1.05h8.734l5.459-6.299h3.275l-7.642 7.35z" fill="#D9C89B" fill-opacity=".2"/><path d="M55.002 49.748L72.47 34h44.763l4.367 4.2h36.028l3.275-4.2h7.642" stroke="#D9C89B" stroke-opacity=".2" stroke-width=".033" stroke-miterlimit="10"/><path d="M140.127 49.748L153.228 38.2h2.184l-13.101 11.548h-2.184zm-3.243 0L149.985 38.2h2.184l-13.102 11.548h-2.183z" fill="#D9C89B" fill-opacity=".2"/><mask id="j" maskUnits="userSpaceOnUse" x="25" y="45" width="144" height="6"><path d="M168.509 45.562h-51.313l-2.183 2.1H94.269l-2.183-2.1H77.893l-3.275 3.15H27.672l-2.184 1.05 1.092 1.05 1.092-2.1h46.946l3.275-3.15h14.193l2.183 2.1h21.836l1.091-2.1h51.313z" fill="url(#paint18_linear)"/></mask><g mask="url(#j)"><path d="M168.512 45.562h-51.313l-2.184 2.1H94.272l-2.184-2.1H77.895l-3.275 3.15H27.674l-2.183 1.049 1.091 1.05 1.092-2.1H74.62l3.275-3.15h14.193l2.184 2.1h21.835l1.092-2.1h51.313z" fill="url(#paint19_linear)"/></g><path d="M86.652 44.504h-8.734l-3.275 3.15h-12.01" stroke="#D9C89B" stroke-width=".099" stroke-miterlimit="10"/><mask id="k" maskUnits="userSpaceOnUse" x="158" y="35" width="11" height="4"><path d="M158.722 38.189l2.184-3.15h7.642v1.05h-6.55l-2.184 2.1h-1.092z" fill="url(#paint20_linear)"/></mask><g mask="url(#k)"><path opacity=".2" d="M158.72 38.186l2.183-3.15h7.642v1.05h-6.55l-2.184 2.1h-1.091z" fill="url(#paint21_linear)"/></g><mask id="l" maskUnits="userSpaceOnUse" x="164" y="31" width="328" height="9"><path d="M212.038 31.412H164v1.05h46.946l8.734 7.349h271.849v-1.05H219.68l-7.642-7.35z" fill="url(#paint22_linear)"/></mask><g mask="url(#l)"><path d="M212.037 31.412h-48.038v1.05h46.946l8.734 7.349h271.849v-1.05H219.679l-7.642-7.35z" fill="url(#paint23_linear)"/></g><path d="M164 45.06h104.809l6.551-5.25" stroke="#D9C89B" stroke-opacity=".8" stroke-width=".033" stroke-miterlimit="10"/><path d="M244.777 41.902l3.275-2.1h2.184l-2.184 2.1h-3.275zm5.457 0l2.184-2.1h3.275l-2.183 2.1h-3.276zm1.105 4.186l6.551-6.3h2.183l-6.55 6.3h-2.184zm89.518 0l6.55-6.3h2.184l-6.551 6.3h-2.183zm-4.352 0l6.55-6.3h2.184l-6.551 6.3h-2.183zm-4.389 0l6.551-6.3h2.183l-6.55 6.3h-2.184zm-76.424 0l5.459-6.3h2.183l-6.55 6.3h-1.092z" fill="#D9C89B"/><path d="M165.109 47.145h57.864l1.091 2.1h31.661l2.184-2.1h26.202l3.276-3.15h57.863l3.275 3.15h21.835" stroke="#D9C89B" stroke-opacity=".2" stroke-width=".033" stroke-miterlimit="10"/><path d="M252.448 49.245h4.368l1.091-1.05" stroke="#D9C89B" stroke-width=".066" stroke-miterlimit="10"/><path d="M246.974 49.245l-2.184-1.05h-13.101l-2.183 1.05" fill="#D9C89B" fill-opacity=".2"/><path d="M224.031 48.179l-1.092-1.05h-16.376" stroke="#D9C89B" stroke-width=".066" stroke-miterlimit="10"/><path d="M290.628 39.802h57.863l-2.183 2.1h-57.864l2.184-2.1z" fill="#D9C89B" fill-opacity=".2"/><path d="M287.362 43.988h13.101l-2.183 2.1h-12.01l1.092-2.1z" fill="#D9C89B"/><path d="M370.352 47.154h-12.01l2.184-1.05h8.734l5.459-6.299h3.275l-7.642 7.35z" fill="#D9C89B" fill-opacity=".2"/><path d="M242.605 41.902l3.276-2.1h-27.294l3.275 2.1h20.743z" fill="#D9C89B"/><path d="M378.002 38.748L395.47 23h44.762l4.368 4.2h36.028l3.275-4.2h7.642" stroke="#D9C89B" stroke-opacity=".2" stroke-width=".033" stroke-miterlimit="10"/><mask id="m" maskUnits="userSpaceOnUse" x="348" y="34" width="144" height="6"><path d="M491.509 34.562h-51.313l-2.183 2.1h-20.744l-2.183-2.1h-14.193l-3.275 3.15h-46.946l-2.184 1.05 1.092 1.05 1.092-2.1h46.946l3.275-3.15h14.193l2.183 2.1h21.836l1.091-2.1h51.313z" fill="url(#paint24_linear)"/></mask><g mask="url(#m)"><path d="M491.512 34.562h-51.313l-2.184 2.1h-20.743l-2.184-2.1h-14.193l-3.275 3.15h-46.946l-2.183 1.049 1.091 1.05 1.092-2.1h46.946l3.275-3.15h14.193l2.184 2.1h21.835l1.092-2.1h51.313z" fill="url(#paint25_linear)"/></g><path d="M409.652 33.504h-8.734l-3.275 3.15h-12.01" stroke="#D9C89B" stroke-width=".099" stroke-miterlimit="10"/><mask id="n" maskUnits="userSpaceOnUse" x="270" y="18" width="328" height="9"><path d="M318.038 18.412H270v1.05h46.946l8.734 7.349h271.849v-1.05H325.68l-7.642-7.35z" fill="url(#paint26_linear)"/></mask><g mask="url(#n)"><path d="M318.037 18.412h-48.038v1.05h46.946l8.734 7.349h271.849v-1.05H325.679l-7.642-7.35z" fill="url(#paint27_linear)"/></g><path d="M270 32.06h104.809l6.551-5.25" stroke="#D9C89B" stroke-opacity=".8" stroke-width=".033" stroke-miterlimit="10"/><path d="M350.777 28.902l3.275-2.1h2.184l-2.184 2.1h-3.275zm5.457 0l2.184-2.1h3.275l-2.183 2.1h-3.276zm1.105 4.186l6.551-6.3h2.183l-6.55 6.3h-2.184zm4.353 0l5.459-6.3h2.183l-6.55 6.3h-1.092z" fill="#D9C89B"/><path d="M271.109 34.145h57.864l1.091 2.1h31.661l2.184-2.1h26.202l3.276-3.15h57.863l3.275 3.15h21.835" stroke="#D9C89B" stroke-opacity=".2" stroke-width=".033" stroke-miterlimit="10"/><path d="M358.448 36.245h4.368l1.091-1.05" stroke="#D9C89B" stroke-width=".066" stroke-miterlimit="10"/><path d="M352.974 36.245l-2.184-1.05h-13.101l-2.183 1.05" fill="#D9C89B" fill-opacity=".2"/><path d="M330.031 35.179l-1.092-1.05h-16.376" stroke="#D9C89B" stroke-width=".066" stroke-miterlimit="10"/><path d="M396.628 26.802h57.863l-2.183 2.1h-57.864l2.184-2.1z" fill="#D9C89B" fill-opacity=".2"/><path d="M393.362 30.988h13.101l-2.183 2.1h-12.01l1.092-2.1zm-44.757-2.086l3.276-2.1h-27.294l3.275 2.1h20.743z" fill="#D9C89B"/></g><defs><linearGradient id="paint0_linear" x1="309.97" y1="13.559" x2="-17.862" y2="13.559" gradientUnits="userSpaceOnUse"><stop offset=".613" stop-color="#fff"/><stop offset="1"/></linearGradient><linearGradient id="paint1_linear" x1="309.97" y1="13.559" x2="-17.862" y2="13.559" gradientUnits="userSpaceOnUse"><stop offset=".613" stop-color="#E2D2AE"/><stop offset="1" stop-color="#E2D2AE"/></linearGradient><linearGradient id="paint2_linear" x1="124.521" y1="14.76" x2="-17.843" y2="14.76" gradientUnits="userSpaceOnUse"><stop offset=".613" stop-color="#fff"/><stop offset="1"/></linearGradient><linearGradient id="paint3_linear" x1="124.518" y1="14.76" x2="-17.845" y2="14.76" gradientUnits="userSpaceOnUse"><stop offset=".613" stop-color="#D9C89B"/><stop offset="1" stop-color="#D9C89B"/></linearGradient><linearGradient id="paint4_linear" x1="182.579" y1="122.147" x2="510.411" y2="122.147" gradientUnits="userSpaceOnUse"><stop offset=".613" stop-color="#fff"/><stop offset="1"/></linearGradient><linearGradient id="paint5_linear" x1="182.578" y1="122.147" x2="510.41" y2="122.147" gradientUnits="userSpaceOnUse"><stop offset=".613" stop-color="#E2D2AE"/><stop offset="1" stop-color="#E2D2AE"/></linearGradient><linearGradient id="paint6_linear" x1="380.027" y1="116.76" x2="522.391" y2="116.76" gradientUnits="userSpaceOnUse"><stop offset=".613" stop-color="#fff"/><stop offset="1"/></linearGradient><linearGradient id="paint7_linear" x1="380.03" y1="116.76" x2="522.393" y2="116.76" gradientUnits="userSpaceOnUse"><stop offset=".613" stop-color="#D9C89B"/><stop offset="1" stop-color="#D9C89B"/></linearGradient><linearGradient id="paint8_linear" x1="258.579" y1="106.559" x2="586.411" y2="106.559" gradientUnits="userSpaceOnUse"><stop offset=".613" stop-color="#fff"/><stop offset="1"/></linearGradient><linearGradient id="paint9_linear" x1="258.578" y1="106.559" x2="586.41" y2="106.559" gradientUnits="userSpaceOnUse"><stop offset=".613" stop-color="#E2D2AE"/><stop offset="1" stop-color="#E2D2AE"/></linearGradient><linearGradient id="paint10_linear" x1="-130.421" y1="106.559" x2="197.411" y2="106.559" gradientUnits="userSpaceOnUse"><stop offset=".613" stop-color="#fff"/><stop offset="1"/></linearGradient><linearGradient id="paint11_linear" x1="-130.422" y1="106.559" x2="197.41" y2="106.559" gradientUnits="userSpaceOnUse"><stop offset=".613" stop-color="#E2D2AE"/><stop offset="1" stop-color="#E2D2AE"/></linearGradient><linearGradient id="paint12_linear" x1="55.028" y1="107.76" x2="197.391" y2="107.76" gradientUnits="userSpaceOnUse"><stop offset=".613" stop-color="#fff"/><stop offset="1"/></linearGradient><linearGradient id="paint13_linear" x1="55.03" y1="107.76" x2="197.394" y2="107.76" gradientUnits="userSpaceOnUse"><stop offset=".613" stop-color="#D9C89B"/><stop offset="1" stop-color="#D9C89B"/></linearGradient><linearGradient id="paint14_linear" x1="187.194" y1="96.137" x2="197.428" y2="96.137" gradientUnits="userSpaceOnUse"><stop stop-color="#fff"/><stop offset="1"/></linearGradient><linearGradient id="paint15_linear" x1="187.191" y1="96.135" x2="197.425" y2="96.135" gradientUnits="userSpaceOnUse"><stop stop-color="#D9C89B"/><stop offset="1" stop-color="#D9C89B"/></linearGradient><linearGradient id="paint16_linear" x1="-159.421" y1="46.559" x2="168.411" y2="46.559" gradientUnits="userSpaceOnUse"><stop offset=".613" stop-color="#fff"/><stop offset="1"/></linearGradient><linearGradient id="paint17_linear" x1="-159.422" y1="46.559" x2="168.41" y2="46.559" gradientUnits="userSpaceOnUse"><stop offset=".613" stop-color="#E2D2AE"/><stop offset="1" stop-color="#E2D2AE"/></linearGradient><linearGradient id="paint18_linear" x1="26.028" y1="47.76" x2="168.391" y2="47.76" gradientUnits="userSpaceOnUse"><stop offset=".613" stop-color="#fff"/><stop offset="1"/></linearGradient><linearGradient id="paint19_linear" x1="26.03" y1="47.76" x2="168.394" y2="47.76" gradientUnits="userSpaceOnUse"><stop offset=".613" stop-color="#D9C89B"/><stop offset="1" stop-color="#D9C89B"/></linearGradient><linearGradient id="paint20_linear" x1="158.194" y1="36.137" x2="168.428" y2="36.137" gradientUnits="userSpaceOnUse"><stop stop-color="#fff"/><stop offset="1"/></linearGradient><linearGradient id="paint21_linear" x1="158.191" y1="36.135" x2="168.425" y2="36.135" gradientUnits="userSpaceOnUse"><stop stop-color="#D9C89B"/><stop offset="1" stop-color="#D9C89B"/></linearGradient><linearGradient id="paint22_linear" x1="163.579" y1="35.559" x2="491.411" y2="35.559" gradientUnits="userSpaceOnUse"><stop offset=".613" stop-color="#fff"/><stop offset="1"/></linearGradient><linearGradient id="paint23_linear" x1="163.578" y1="35.559" x2="491.41" y2="35.559" gradientUnits="userSpaceOnUse"><stop offset=".613" stop-color="#E2D2AE"/><stop offset="1" stop-color="#E2D2AE"/></linearGradient><linearGradient id="paint24_linear" x1="349.028" y1="36.76" x2="491.391" y2="36.76" gradientUnits="userSpaceOnUse"><stop offset=".613" stop-color="#fff"/><stop offset="1"/></linearGradient><linearGradient id="paint25_linear" x1="349.03" y1="36.76" x2="491.394" y2="36.76" gradientUnits="userSpaceOnUse"><stop offset=".613" stop-color="#D9C89B"/><stop offset="1" stop-color="#D9C89B"/></linearGradient><linearGradient id="paint26_linear" x1="269.579" y1="22.559" x2="597.411" y2="22.559" gradientUnits="userSpaceOnUse"><stop offset=".613" stop-color="#fff"/><stop offset="1"/></linearGradient><linearGradient id="paint27_linear" x1="269.578" y1="22.559" x2="597.41" y2="22.559" gradientUnits="userSpaceOnUse"><stop offset=".613" stop-color="#E2D2AE"/><stop offset="1" stop-color="#E2D2AE"/></linearGradient></defs></svg>