<svg xmlns="http://www.w3.org/2000/svg" xmlns:xlink="http://www.w3.org/1999/xlink" width="1401" height="109"><defs><path id="a" d="M274.39 9.217h47.16V8.168h-46.09l-8.57-7.35H0v1.05h266.89z"/><path id="d" d="M.04 6.067h46.3l1.97-2.1h18.71l1.97 2.1H81.8l2.95-3.149h42.36l1.97-1.05-.98-1.05-.99 2.1H84.75L81.8 6.067H68.99l-1.97-2.1h-19.7l-.98 2.1z"/><path id="g" d="M8.87.441L6.9 3.59H0V2.54h5.91L7.88.441z"/><path id="j" d="M252.204 9.085h43.345v-1.05h-42.36l-7.88-7.349H.018v1.05h245.291z"/><path id="m" d="M.036 5.935h46.3l1.97-2.1h18.717l1.97 2.1h12.806l2.956-3.15h42.359l1.97-1.049-.985-1.05-.985 2.099H84.755l-2.956 3.15H68.993l-1.97-2.1H47.321l-.985 2.1z"/><path id="p" d="M8.867.309l-1.97 3.149H.001v-1.05h5.911L7.882.309z"/><path id="s" d="M252.204 8.678h43.345v-1.05h-42.36l-7.88-7.349H.018v1.05h245.291z"/><path id="v" d="M.036 5.528h46.3l1.97-2.1h18.717l1.97 2.1h12.806l2.956-3.15h42.359l1.97-1.05-.985-1.049-.985 2.099H84.755l-2.956 3.15H68.993l-1.97-2.1H47.321l-.985 2.1z"/><path id="x" d="M8.867.901l-1.97 3.15H.001v-1.05h5.911l1.97-2.1z"/><path id="z" d="M43.346 8.995H.002v-1.05h42.359L50.242.596h245.29v1.05H50.242z"/><path id="C" d="M129.515 5.845h-46.3l-1.97-2.1H62.528l-1.97 2.1H47.752l-2.956-3.149H2.437l-1.97-1.05.985-1.05.985 2.1h42.359l2.956 3.149h12.806l1.97-2.1H82.23l.985 2.1z"/><path id="F" d="M.684.218l1.97 3.15H9.55v-1.05H3.639l-1.97-2.1z"/><path id="I" d="M43.346 8.456H.002v-1.05h42.359L50.24.057h245.29v1.05H50.24z"/><path id="L" d="M129.51 5.306H83.22l-1.98-2.099H62.53l-1.97 2.099H47.75L44.8 2.157H2.44L.47 1.107l.98-1.05.99 2.1H44.8l2.95 3.149h12.81l1.97-2.099h19.7l.99 2.099z"/><path id="O" d="M.68.68l1.97 3.149h6.9V2.78H3.64L1.67.68z"/><path id="R" d="M252.2 9.312h43.35v-1.05h-42.36L245.31.913H.018v1.05H245.31z"/><path id="U" d="M.036 6.162h46.3l1.97-2.1h18.717l1.97 2.1h12.806l2.956-3.15h42.359l1.97-1.05-.985-1.049-.985 2.099H84.755l-2.956 3.15H68.993l-1.97-2.1H47.321l-.985 2.1z"/><path id="X" d="M8.867.535l-1.97 3.15H.001v-1.05h5.911l1.97-2.1z"/><path id="aa" d="M252.2 8.773h43.35v-1.05h-42.36L245.31.374H.02v1.05h245.29z"/><path id="ad" d="M.04 5.623h46.3l1.97-2.1h18.71l1.97 2.1H81.8l2.95-3.15h42.36l1.97-1.05-.98-1.05-.99 2.1H84.75l-2.95 3.15H68.99l-1.97-2.1h-19.7l-.98 2.1z"/><path id="ag" d="M8.87.996L6.9 4.146H0v-1.05h5.91l1.97-2.1z"/><path id="aj" d="M47.16.048H0v1.05h46.09l8.57 7.349h266.89v-1.05H54.66z"/><path id="am" d="M129.52.198h-46.3l-1.97 2.1H62.53l-1.97-2.1H47.75l-2.95 3.15H2.44L.47 4.397l.98 1.05.99-2.099H44.8l2.95-3.15h12.81l1.97 2.1h19.7l.99-2.1z"/><path id="ap" d="M.68 3.825L2.65.675h6.9v1.05H3.64l-1.97 2.1z"/><path id="as" d="M43.346.546H.002v1.049h42.359l7.881 7.35H295.53v-1.05H50.242z"/><path id="av" d="M129.52.696h-46.3l-1.97 2.099H62.53l-1.97-2.1H47.75l-2.95 3.15H2.44L.47 4.895l.98 1.05.99-2.1H44.8l2.95-3.15h12.81l1.97 2.1h19.7l.99-2.099z"/><path id="ay" d="M.68 3.322L2.65.172h6.9v1.05H3.64l-1.97 2.1z"/><path id="aB" d="M47.16.099H0v1.05h46.088l8.575 7.349h266.884v-1.05H54.663z"/><path id="aE" d="M129.513.249h-46.3l-1.97 2.1H62.526l-1.97-2.1H47.75l-2.956 3.15H2.435l-1.97 1.05.985 1.049.985-2.099h42.359L47.75.249h12.806l1.97 2.1h19.702l.985-2.1z"/><path id="aH" d="M.682 3.876l1.97-3.15h6.896v1.05H3.637l-1.97 2.1z"/><path id="aK" d="M43.344.231H0v1.05h42.359L50.24 8.63h245.29V7.58H50.24z"/><path id="aN" d="M129.513.381h-46.3l-1.97 2.1H62.526l-1.97-2.1H47.75l-2.956 3.15H2.435L.465 4.58l.985 1.05.985-2.099h42.359L47.75.381h12.806l1.97 2.1h19.702l.985-2.1z"/><path id="aQ" d="M.682 4.008l1.97-3.15h6.896v1.05H3.637l-1.97 2.1z"/><path id="aT" d="M43.344.639H0v1.049h42.359l7.881 7.35h245.29v-1.05H50.24z"/><path id="aW" d="M129.513.788h-46.3l-1.97 2.1H62.526l-1.97-2.1H47.75l-2.956 3.15H2.435l-1.97 1.05.985 1.05.985-2.1h42.359L47.75.788h12.806l1.97 2.1h19.702l.985-2.1z"/><path id="aY" d="M.682 3.415l1.97-3.15h6.896v1.05H3.637l-1.97 2.1z"/><path id="ba" d="M252.202.321h43.345v1.05h-42.359l-7.881 7.349H.016V7.671h245.291z"/><path id="bd" d="M.034.471h46.3l1.97 2.1h18.717l1.97-2.1h12.806l2.956 3.15h42.359l1.97 1.05-.985 1.05-.985-2.1H84.753L81.797.471H68.991l-1.97 2.1H47.319l-.985-2.1z"/><path id="bg" d="M9.865 4.098L7.895.948H.999v1.05H6.91l1.97 2.1z"/><path id="bj" d="M252.202.86h43.345v1.05h-42.359l-7.881 7.349H.016v-1.05h245.291z"/><path id="bm" d="M.034.01h46.3l1.97 2.1h18.717l1.97-2.1h12.806l2.956 3.15h42.359l1.97 1.05-.985 1.05-.985-2.1H84.753L81.797.01H68.991l-1.97 2.1H47.319l-.985-2.1z"/><path id="bp" d="M9.865 3.637L7.895.487H.999v1.05H6.91l1.97 2.1z"/><path id="br" d="M43.344.004H0v1.05h42.359l7.881 7.349h245.29V7.354H50.24z"/><path id="bt" d="M129.513.154h-46.3l-1.97 2.1H62.526l-1.97-2.1H47.75l-2.956 3.15H2.435l-1.97 1.05.985 1.05.985-2.1h42.359L47.75.154h12.806l1.97 2.1h19.702l.985-2.1z"/><path id="bv" d="M.682 3.781l1.97-3.15h6.896v1.05H3.637l-1.97 2.1z"/><path id="by" d="M43.344.544H0v1.049h42.359l7.881 7.35h245.29v-1.05H50.24z"/><path id="bB" d="M129.513.694h-46.3l-1.97 2.099H62.526L60.556.694H47.75l-2.956 3.149H2.435l-1.97 1.05.985 1.05.985-2.1h42.359L47.75.694h12.806l1.97 2.099h19.702l.985-2.099z"/><path id="bD" d="M.682 3.32L2.652.17h6.896v1.05H3.637l-1.97 2.1z"/><path id="bG" d="M274.387 9.268h47.16V8.219h-46.089l-8.574-7.35H0v1.05h266.884z"/><path id="bJ" d="M.034 6.118h46.3l1.97-2.099h18.717l1.97 2.099h12.806l2.956-3.149h42.359l1.97-1.05-.985-1.05-.985 2.1H84.753l-2.956 3.149H68.991l-1.97-2.099H47.319l-.985 2.099z"/><path id="bM" d="M9.865.491l-1.97 3.15H.999v-1.05H6.91l1.97-2.1z"/><path id="bP" d="M252.202 8.771h43.345v-1.05h-42.36l-7.88-7.349H.016v1.05h245.291z"/><path id="bS" d="M.034 5.621h46.3l1.97-2.1h18.717l1.97 2.1h12.806l2.956-3.15h42.359l1.97-1.05-.985-1.049-.985 2.099H84.753l-2.956 3.15H68.991l-1.97-2.1H47.319l-.985 2.1z"/><path id="bV" d="M9.865.994l-1.97 3.15H.999v-1.05H6.91l1.97-2.1z"/><linearGradient id="b" x1="100.128%" x2=".037%" y1="50.625%" y2="50.625%"><stop offset="61.29%" stop-color="#E2D2AE"/><stop offset="100%" stop-color="#E2D2AE"/></linearGradient><linearGradient id="e" x1="99.628%" x2=".085%" y1="58.121%" y2="58.121%"><stop offset="61.29%" stop-color="#D9C89B"/><stop offset="100%" stop-color="#D9C89B"/></linearGradient><linearGradient id="h" x1="105.411%" x2="1.24%" y1="65.132%" y2="65.132%"><stop offset="0%" stop-color="#D9C89B"/><stop offset="100%" stop-color="#D9C89B"/></linearGradient><linearGradient id="k" x1="100.129%" x2=".036%" y1="50.625%" y2="50.625%"><stop offset="61.29%" stop-color="#E2D2AE"/><stop offset="100%" stop-color="#E2D2AE"/></linearGradient><linearGradient id="n" x1="99.623%" x2=".082%" y1="58.121%" y2="58.121%"><stop offset="61.29%" stop-color="#D9C89B"/><stop offset="100%" stop-color="#D9C89B"/></linearGradient><linearGradient id="q" x1="105.369%" x2="1.218%" y1="65.132%" y2="65.132%"><stop offset="0%" stop-color="#D9C89B"/><stop offset="100%" stop-color="#D9C89B"/></linearGradient><linearGradient id="t" x1="100.129%" x2=".036%" y1="50.625%" y2="50.625%"><stop offset="61.29%" stop-color="#E2D2AE"/><stop offset="100%" stop-color="#E2D2AE"/></linearGradient><linearGradient id="A" x1="-.129%" x2="99.964%" y1="50.624%" y2="50.624%"><stop offset="61.29%" stop-color="#E2D2AE"/><stop offset="100%" stop-color="#E2D2AE"/></linearGradient><linearGradient id="D" x1=".377%" x2="99.918%" y1="58.121%" y2="58.121%"><stop offset="61.29%" stop-color="#D9C89B"/><stop offset="100%" stop-color="#D9C89B"/></linearGradient><linearGradient id="G" x1="-5.38%" x2="98.782%" y1="65.135%" y2="65.135%"><stop offset="0%" stop-color="#D9C89B"/><stop offset="100%" stop-color="#D9C89B"/></linearGradient><linearGradient id="J" x1="-.129%" x2="99.964%" y1="50.625%" y2="50.625%"><stop offset="61.29%" stop-color="#E2D2AE"/><stop offset="100%" stop-color="#E2D2AE"/></linearGradient><linearGradient id="M" x1=".38%" x2="99.915%" y1="58.121%" y2="58.121%"><stop offset="61.29%" stop-color="#D9C89B"/><stop offset="100%" stop-color="#D9C89B"/></linearGradient><linearGradient id="P" x1="-5.411%" x2="98.76%" y1="65.132%" y2="65.132%"><stop offset="0%" stop-color="#D9C89B"/><stop offset="100%" stop-color="#D9C89B"/></linearGradient><linearGradient id="S" x1="100.129%" x2=".036%" y1="50.625%" y2="50.625%"><stop offset="61.29%" stop-color="#E2D2AE"/><stop offset="100%" stop-color="#E2D2AE"/></linearGradient><linearGradient id="V" x1="99.623%" x2=".083%" y1="58.121%" y2="58.121%"><stop offset="61.29%" stop-color="#D9C89B"/><stop offset="100%" stop-color="#D9C89B"/></linearGradient><linearGradient id="Y" x1="105.369%" x2="1.218%" y1="65.135%" y2="65.135%"><stop offset="0%" stop-color="#D9C89B"/><stop offset="100%" stop-color="#D9C89B"/></linearGradient><linearGradient id="ab" x1="100.129%" x2=".037%" y1="50.626%" y2="50.626%"><stop offset="61.29%" stop-color="#E2D2AE"/><stop offset="100%" stop-color="#E2D2AE"/></linearGradient><linearGradient id="ae" x1="99.628%" x2=".085%" y1="58.119%" y2="58.119%"><stop offset="61.29%" stop-color="#D9C89B"/><stop offset="100%" stop-color="#D9C89B"/></linearGradient><linearGradient id="ah" x1="105.411%" x2="1.24%" y1="65.111%" y2="65.111%"><stop offset="0%" stop-color="#D9C89B"/><stop offset="100%" stop-color="#D9C89B"/></linearGradient><linearGradient id="ak" x1="-.128%" x2="99.963%" y1="49.376%" y2="49.376%"><stop offset="61.29%" stop-color="#E2D2AE"/><stop offset="100%" stop-color="#E2D2AE"/></linearGradient><linearGradient id="an" x1=".38%" x2="99.915%" y1="41.881%" y2="41.881%"><stop offset="61.29%" stop-color="#D9C89B"/><stop offset="100%" stop-color="#D9C89B"/></linearGradient><linearGradient id="aq" x1="-5.411%" x2="98.76%" y1="34.867%" y2="34.867%"><stop offset="0%" stop-color="#D9C89B"/><stop offset="100%" stop-color="#D9C89B"/></linearGradient><linearGradient id="at" x1="-.129%" x2="99.966%" y1="49.999%" y2="49.999%"><stop offset="61.29%" stop-color="#E2D2AE"/><stop offset="100%" stop-color="#E2D2AE"/></linearGradient><linearGradient id="aw" x1=".38%" x2="99.915%" y1="49.987%" y2="49.987%"><stop offset="61.29%" stop-color="#D9C89B"/><stop offset="100%" stop-color="#D9C89B"/></linearGradient><linearGradient id="az" x1="-5.411%" x2="98.76%" y1="34.867%" y2="34.867%"><stop offset="0%" stop-color="#D9C89B"/><stop offset="100%" stop-color="#D9C89B"/></linearGradient><linearGradient id="aC" x1="-.129%" x2="99.964%" y1="50%" y2="50%"><stop offset="61.29%" stop-color="#E2D2AE"/><stop offset="100%" stop-color="#E2D2AE"/></linearGradient><linearGradient id="aF" x1=".377%" x2="99.918%" y1="49.987%" y2="49.987%"><stop offset="61.29%" stop-color="#D9C89B"/><stop offset="100%" stop-color="#D9C89B"/></linearGradient><linearGradient id="aI" x1="-5.38%" x2="98.782%" y1="34.868%" y2="34.868%"><stop offset="0%" stop-color="#D9C89B"/><stop offset="100%" stop-color="#D9C89B"/></linearGradient><linearGradient id="aL" x1="-.129%" x2="99.964%" y1="49.376%" y2="49.376%"><stop offset="61.29%" stop-color="#E2D2AE"/><stop offset="100%" stop-color="#E2D2AE"/></linearGradient><linearGradient id="aO" x1=".377%" x2="99.918%" y1="41.881%" y2="41.881%"><stop offset="61.29%" stop-color="#D9C89B"/><stop offset="100%" stop-color="#D9C89B"/></linearGradient><linearGradient id="aR" x1="-5.38%" x2="98.782%" y1="34.867%" y2="34.867%"><stop offset="0%" stop-color="#D9C89B"/><stop offset="100%" stop-color="#D9C89B"/></linearGradient><linearGradient id="aU" x1="-.129%" x2="99.964%" y1="49.999%" y2="49.999%"><stop offset="61.29%" stop-color="#E2D2AE"/><stop offset="100%" stop-color="#E2D2AE"/></linearGradient><linearGradient id="bb" x1="100.129%" x2=".036%" y1="49.376%" y2="49.376%"><stop offset="61.29%" stop-color="#E2D2AE"/><stop offset="100%" stop-color="#E2D2AE"/></linearGradient><linearGradient id="be" x1="99.623%" x2=".083%" y1="41.88%" y2="41.88%"><stop offset="61.29%" stop-color="#D9C89B"/><stop offset="100%" stop-color="#D9C89B"/></linearGradient><linearGradient id="bh" x1="105.369%" x2="1.218%" y1="34.868%" y2="34.868%"><stop offset="0%" stop-color="#D9C89B"/><stop offset="100%" stop-color="#D9C89B"/></linearGradient><linearGradient id="bk" x1="100.129%" x2=".036%" y1="49.375%" y2="49.375%"><stop offset="61.29%" stop-color="#E2D2AE"/><stop offset="100%" stop-color="#E2D2AE"/></linearGradient><linearGradient id="bn" x1="99.623%" x2=".082%" y1="41.879%" y2="41.879%"><stop offset="61.29%" stop-color="#D9C89B"/><stop offset="100%" stop-color="#D9C89B"/></linearGradient><linearGradient id="bw" x1="-5.38%" x2="98.782%" y1="34.866%" y2="34.866%"><stop offset="0%" stop-color="#D9C89B"/><stop offset="100%" stop-color="#D9C89B"/></linearGradient><linearGradient id="bz" x1="-.129%" x2="99.964%" y1="49.375%" y2="49.375%"><stop offset="61.29%" stop-color="#E2D2AE"/><stop offset="100%" stop-color="#E2D2AE"/></linearGradient><linearGradient id="bE" x1="-5.38%" x2="98.782%" y1="34.867%" y2="34.867%"><stop offset="0%" stop-color="#D9C89B"/><stop offset="100%" stop-color="#D9C89B"/></linearGradient><linearGradient id="bH" x1="100.129%" x2=".036%" y1="50%" y2="50%"><stop offset="61.29%" stop-color="#E2D2AE"/><stop offset="100%" stop-color="#E2D2AE"/></linearGradient><linearGradient id="bK" x1="99.623%" x2=".082%" y1="50.013%" y2="50.013%"><stop offset="61.29%" stop-color="#D9C89B"/><stop offset="100%" stop-color="#D9C89B"/></linearGradient><linearGradient id="bN" x1="105.378%" x2="1.223%" y1="65.133%" y2="65.133%"><stop offset="0%" stop-color="#D9C89B"/><stop offset="100%" stop-color="#D9C89B"/></linearGradient><linearGradient id="bQ" x1="100.129%" x2=".036%" y1="50.001%" y2="50.001%"><stop offset="61.29%" stop-color="#E2D2AE"/><stop offset="100%" stop-color="#E2D2AE"/></linearGradient><linearGradient id="bT" x1="99.623%" x2=".083%" y1="50.013%" y2="50.013%"><stop offset="61.29%" stop-color="#D9C89B"/><stop offset="100%" stop-color="#D9C89B"/></linearGradient><linearGradient id="bW" x1="105.369%" x2="1.218%" y1="65.132%" y2="65.132%"><stop offset="0%" stop-color="#D9C89B"/><stop offset="100%" stop-color="#D9C89B"/></linearGradient><linearGradient id="bY" x1="77.5%" x2="6.667%" y1="100%" y2="100%"><stop offset="0%" stop-color="#252122"/><stop offset="100%" stop-color="#252122" stop-opacity="0"/></linearGradient><linearGradient id="bZ" x1="77.499%" x2="6.667%" y1="100%" y2="100%"><stop offset="0%" stop-color="#252122"/><stop offset="100%" stop-color="#252122" stop-opacity="0"/></linearGradient></defs><g fill="none" fill-rule="evenodd"><g opacity=".5"><g opacity=".3"><g transform="translate(1079 30)"><mask id="c" fill="#fff"><use xlink:href="#a"/></mask><path fill="url(#b)" fill-rule="nonzero" mask="url(#c)" d="M274.39 9.217h47.16V8.168h-46.09l-8.57-7.35H0v1.05h266.89z"/></g><path stroke="#D9C89B" stroke-opacity=".8" stroke-width=".033" d="M1400.55 25.569h-94.57l-5.91 5.25"/><path fill="#D9C89B" fill-rule="nonzero" d="M1327.66 28.727l-2.95 2.1h-1.97l1.97-2.1zm-4.92 0l-1.97 2.1h-2.96l1.97-2.1zm-1-4.186l-5.91 6.3h-1.97l5.91-6.3zm-80.77 0l-5.91 6.3h-1.97l5.91-6.3zm3.93 0l-5.91 6.3h-1.97l5.91-6.3zm3.96 0l-5.91 6.3h-1.97l5.91-6.3zm68.96 0l-4.93 6.3h-1.97l5.91-6.3z"/><path stroke="#D9C89B" stroke-opacity=".2" stroke-width=".033" d="M1399.55 23.484h-52.21l-.99-2.1h-28.57l-1.97 2.1h-23.64l-2.95 3.149h-52.21l-2.96-3.149h-19.7"/><path stroke="#D9C89B" stroke-width=".066" d="M1320.74 21.384h-3.94l-.98 1.05"/><path fill="#D9C89B" fill-opacity=".2" fill-rule="nonzero" d="M1325.68 21.384l1.97 1.05h11.82l1.97-1.05"/><path stroke="#D9C89B" stroke-width=".066" d="M1346.38 22.45l.99 1.05h14.77"/><path fill="#D9C89B" fill-opacity=".2" fill-rule="nonzero" d="M1286.29 30.827h-52.21l1.97-2.1h52.21z"/><path fill="#D9C89B" fill-rule="nonzero" d="M1289.24 26.641h-11.82l1.97-2.1h10.83z"/><path fill="#D9C89B" fill-opacity=".2" fill-rule="nonzero" d="M1214.36 23.475h10.83l-1.97 1.05h-7.88l-4.92 6.299h-2.96z"/><path fill="#D9C89B" fill-rule="nonzero" d="M1329.62 28.727l-2.95 2.1h24.63l-2.96-2.1z"/><path stroke="#D9C89B" stroke-opacity=".2" stroke-width=".033" d="M1207.45 31.881l-15.76 15.748h-40.39l-3.94-4.2h-32.51l-2.95 4.2h-6.9"/><path fill="#D9C89B" fill-opacity=".2" fill-rule="nonzero" d="M1130.65 31.881l-11.83 11.548h-1.97l11.83-11.548zm2.92 0l-11.82 11.548h-1.97l11.82-11.548z"/><g transform="translate(1105 30)"><mask id="f" fill="#fff"><use xlink:href="#d"/></mask><path fill="url(#e)" fill-rule="nonzero" mask="url(#f)" d="M.03 6.067h46.3l1.97-2.099h18.72l1.97 2.099H81.8l2.95-3.149h42.36l1.97-1.05-.98-1.05-.99 2.1H84.75L81.8 6.067H68.99l-1.97-2.099h-19.7l-.99 2.099z"/></g><path stroke="#D9C89B" stroke-width=".099" d="M1178.9 37.125h7.88l2.95-3.149h10.84"/><g transform="translate(1105 43)"><mask id="i" fill="#fff"><use xlink:href="#g"/></mask><path fill="url(#h)" fill-rule="nonzero" mask="url(#i)" opacity=".2" d="M8.87.443L6.9 3.593H0v-1.05h5.91l1.97-2.1z"/></g></g><g opacity=".3"><g transform="translate(694 28)"><mask id="l" fill="#fff"><use xlink:href="#j"/></mask><path fill="url(#k)" fill-rule="nonzero" mask="url(#l)" d="M252.205 9.085h43.344v-1.05H253.19L245.309.686H.019v1.05h245.29z"/></g><path stroke="#D9C89B" stroke-opacity=".8" stroke-width=".033" d="M989.549 23.437h-94.57l-5.911 5.25"/><path fill="#D9C89B" fill-rule="nonzero" d="M916.664 26.595l-2.956 2.1h-1.97l1.97-2.1zm-4.925 0l-1.97 2.1h-2.955l1.97-2.1zm-.997-4.186l-5.91 6.3h-1.971l5.911-6.3zm-80.772 0l-5.91 6.3h-1.971l5.911-6.3zm3.927 0l-5.91 6.3h-1.97l5.91-6.3zm3.96 0l-5.911 6.3h-1.97l5.911-6.3zm68.958 0l-4.925 6.3h-1.971l5.911-6.3z"/><path stroke="#D9C89B" stroke-opacity=".2" stroke-width=".033" d="M988.548 21.352h-52.21l-.985-2.1h-28.568l-1.971 2.1h-23.642l-2.955 3.149h-52.211l-2.955-3.149h-19.702"/><path stroke="#D9C89B" stroke-width=".066" d="M909.741 19.252h-3.94l-.985 1.05"/><path fill="#D9C89B" fill-opacity=".2" fill-rule="nonzero" d="M914.681 19.252l1.971 1.05h11.821l1.97-1.05"/><path stroke="#D9C89B" stroke-width=".066" d="M935.383 20.318l.985 1.05h14.777"/><path fill="#D9C89B" fill-opacity=".2" fill-rule="nonzero" d="M875.292 28.695h-52.21l1.97-2.1h52.21z"/><path fill="#D9C89B" fill-rule="nonzero" d="M878.239 24.509h-11.821l1.97-2.1h10.836z"/><path fill="#D9C89B" fill-opacity=".2" fill-rule="nonzero" d="M803.357 21.343h10.836l-1.97 1.05h-7.881l-4.925 6.299h-2.956z"/><path fill="#D9C89B" fill-rule="nonzero" d="M918.623 26.595l-2.955 2.1h24.627l-2.955-2.1z"/><path stroke="#D9C89B" stroke-opacity=".2" stroke-width=".033" d="M796.454 29.748l-15.762 15.749h-40.389l-3.94-4.2h-32.508l-2.956 4.2h-6.895"/><path fill="#D9C89B" fill-opacity=".2" fill-rule="nonzero" d="M719.645 29.748l-11.821 11.549h-1.97l11.821-11.549zm2.927 0l-11.821 11.549h-1.971l11.822-11.549z"/><g transform="translate(694 28)"><mask id="o" fill="#fff"><use xlink:href="#m"/></mask><path fill="url(#n)" fill-rule="nonzero" mask="url(#o)" d="M.034 5.935h46.299l1.971-2.099H67.02l1.971 2.099h12.806l2.955-3.149h42.36l1.97-1.05-.985-1.05-.985 2.1h-42.36l-2.955 3.149H68.991L67.02 3.836H47.318l-.985 2.099z"/></g><path stroke="#D9C89B" stroke-width=".099" d="M767.896 34.993h7.881l2.955-3.149h10.836"/><g transform="translate(694 41)"><mask id="r" fill="#fff"><use xlink:href="#p"/></mask><path fill="url(#q)" fill-rule="nonzero" mask="url(#r)" opacity=".2" d="M8.87.311l-1.971 3.15H.004v-1.05h5.91l1.971-2.1z"/></g></g><g opacity=".3"><g transform="translate(581 38)"><mask id="u" fill="#fff"><use xlink:href="#s"/></mask><path fill="url(#t)" fill-rule="nonzero" mask="url(#u)" d="M252.205 8.678h43.344v-1.05H253.19L245.309.279H.019v1.049h245.29z"/></g><path stroke="#D9C89B" stroke-opacity=".8" stroke-width=".033" d="M876.549 33.03h-94.57l-5.911 5.249"/><path fill="#D9C89B" fill-rule="nonzero" d="M803.664 36.188l-2.956 2.1h-1.97l1.97-2.1zm-4.925 0l-1.97 2.1h-2.955l1.97-2.1zm-.997-4.186l-5.91 6.299h-1.971l5.911-6.299zm-80.772 0l-5.91 6.299h-1.971L715 32.002zm3.927 0l-5.91 6.299h-1.97l5.91-6.299zm3.96 0l-5.911 6.299h-1.97l5.911-6.299zm68.958 0l-4.925 6.299h-1.971l5.911-6.299z"/><path stroke="#D9C89B" stroke-opacity=".2" stroke-width=".033" d="M875.548 30.944h-52.21l-.985-2.099h-28.568l-1.971 2.099h-23.642l-2.955 3.15h-52.211l-2.955-3.15h-19.702"/><path stroke="#D9C89B" stroke-width=".066" d="M796.741 28.845h-3.94l-.985 1.049"/><path fill="#D9C89B" fill-opacity=".2" fill-rule="nonzero" d="M801.681 28.845l1.971 1.049h11.821l1.97-1.049"/><path stroke="#D9C89B" stroke-width=".066" d="M822.383 29.911l.985 1.05h14.777"/><path fill="#D9C89B" fill-opacity=".2" fill-rule="nonzero" d="M762.292 38.288h-52.21l1.97-2.1h52.21z"/><path fill="#D9C89B" fill-rule="nonzero" d="M765.239 34.102h-11.821l1.97-2.1h10.836z"/><path fill="#D9C89B" fill-opacity=".2" fill-rule="nonzero" d="M690.357 30.936h10.836l-1.97 1.049h-7.881l-4.925 6.3h-2.956z"/><path fill="#D9C89B" fill-rule="nonzero" d="M805.623 36.188l-2.955 2.1h24.627l-2.955-2.1z"/><path stroke="#D9C89B" stroke-opacity=".2" stroke-width=".033" d="M683.454 39.341L667.692 55.09h-40.389l-3.94-4.2h-32.508l-2.956 4.2h-6.895"/><path fill="#D9C89B" fill-opacity=".2" fill-rule="nonzero" d="M606.645 39.341L594.824 50.89h-1.97l11.821-11.549zm2.927 0L597.751 50.89h-1.971l11.822-11.549z"/><g transform="translate(581 38)"><mask id="w" fill="#fff"><use xlink:href="#v"/></mask><path fill="url(#n)" fill-rule="nonzero" mask="url(#w)" d="M.034 5.528h46.299l1.971-2.1H67.02l1.971 2.1h12.806l2.955-3.149h42.36l1.97-1.05-.985-1.05-.985 2.1h-42.36l-2.955 3.149H68.991l-1.971-2.1H47.318l-.985 2.1z"/></g><path stroke="#D9C89B" stroke-width=".099" d="M654.896 44.586h7.881l2.955-3.15h10.836"/><g transform="translate(581 50)"><mask id="y" fill="#fff"><use xlink:href="#x"/></mask><path fill="url(#q)" fill-rule="nonzero" mask="url(#y)" opacity=".2" d="M8.87.904l-1.971 3.15H.004v-1.05h5.91l1.971-2.1z"/></g></g><g opacity=".3"><g transform="translate(703 59)"><mask id="B" fill="#fff"><use xlink:href="#z"/></mask><path fill="url(#A)" fill-rule="nonzero" mask="url(#B)" d="M43.346 8.995H.001v-1.05h42.36l7.88-7.349h245.291v1.05H50.241z"/></g><path stroke="#D9C89B" stroke-opacity=".8" stroke-width=".033" d="M703.002 54.347h94.57l5.91 5.25"/><path fill="#D9C89B" fill-rule="nonzero" d="M775.887 57.505l2.955 2.1h1.971l-1.971-2.1zm4.924 0l1.971 2.1h2.955l-1.97-2.1zm.998-4.186l5.91 6.299h1.97l-5.91-6.299zm80.772 0l5.91 6.299h1.97l-5.91-6.299zm-3.928 0l5.911 6.299h1.97l-5.91-6.299zm-3.959 0l5.91 6.299h1.971l-5.911-6.299zm-68.958 0l4.925 6.299h1.97l-5.91-6.299z"/><path stroke="#D9C89B" stroke-opacity=".2" stroke-width=".033" d="M704.003 52.261h52.21l.985-2.099h28.568l1.97 2.099h23.643l2.955 3.15h52.21l2.956-3.15h19.702"/><path stroke="#D9C89B" stroke-width=".066" d="M782.809 50.162h3.941l.985 1.05"/><path fill="#D9C89B" fill-opacity=".2" fill-rule="nonzero" d="M777.869 50.162l-1.97 1.05h-11.821l-1.97-1.05"/><path stroke="#D9C89B" stroke-width=".066" d="M757.168 51.228l-.985 1.05h-14.777"/><path fill="#D9C89B" fill-opacity=".2" fill-rule="nonzero" d="M817.259 59.605h52.21l-1.97-2.1h-52.21z"/><path fill="#D9C89B" fill-rule="nonzero" d="M814.312 55.419h11.821l-1.97-2.1h-10.836z"/><path fill="#D9C89B" fill-opacity=".2" fill-rule="nonzero" d="M889.194 52.253h-10.836l1.97 1.05h7.881l4.925 6.299h2.956z"/><path fill="#D9C89B" fill-rule="nonzero" d="M773.928 57.505l2.955 2.1h-24.627l2.955-2.1z"/><path stroke="#D9C89B" stroke-opacity=".2" stroke-width=".033" d="M896.097 60.658l15.761 15.749h40.39l3.94-4.2h32.508l2.956 4.2h6.895"/><path fill="#D9C89B" fill-opacity=".2" fill-rule="nonzero" d="M972.905 60.658l11.822 11.549h1.97l-11.821-11.549zm-2.926 0L981.8 72.207h1.971l-11.822-11.549z"/><g transform="translate(869 59)"><mask id="E" fill="#fff"><use xlink:href="#C"/></mask><path fill="url(#D)" fill-rule="nonzero" mask="url(#E)" d="M129.517 5.845H83.218l-1.971-2.099H62.53l-1.97 2.099H47.754l-2.955-3.149H2.439l-1.97-1.05.985-1.05.985 2.1h42.36l2.955 3.149H60.56l1.97-2.099h19.702l.986 2.099z"/></g><path stroke="#D9C89B" stroke-width=".099" d="M924.655 65.903h-7.881l-2.955-3.15h-10.836"/><g transform="translate(989 72)"><mask id="H" fill="#fff"><use xlink:href="#F"/></mask><path fill="url(#G)" fill-rule="nonzero" mask="url(#H)" opacity=".2" d="M.681.221l1.97 3.15h6.896v-1.05h-5.91L1.666.221z"/></g></g><g opacity=".3"><g transform="translate(951 67)"><mask id="K" fill="#fff"><use xlink:href="#I"/></mask><path fill="url(#J)" fill-rule="nonzero" mask="url(#K)" d="M66 8.742H.002V7.676H64.5l12-7.46H450v1.065H76.5z"/></g><path stroke="#D9C89B" stroke-opacity=".8" stroke-width=".033" d="M951.002 61.808h94.568l5.91 5.25"/><path fill="#D9C89B" fill-rule="nonzero" d="M1023.89 64.966l2.95 2.1h1.97l-1.97-2.1zm4.92 0l1.97 2.1h2.96l-1.97-2.1zm1-4.186l5.91 6.299h1.97l-5.91-6.299zm80.77 0l5.91 6.299h1.97l-5.91-6.299zm-3.93 0l5.91 6.299h1.97l-5.91-6.299zm-3.96 0l5.91 6.299h1.97l-5.91-6.299zm-68.95 0l4.92 6.299h1.97l-5.91-6.299z"/><path stroke="#D9C89B" stroke-opacity=".2" stroke-width=".033" d="M952.003 59.723h52.207l.99-2.1h28.57l1.97 2.1h23.64l2.95 3.149h52.21l2.96-3.149h19.7"/><path stroke="#D9C89B" stroke-width=".066" d="M1030.81 57.623h3.94l.98 1.05"/><path fill="#D9C89B" fill-opacity=".2" fill-rule="nonzero" d="M1025.87 57.623l-1.97 1.05h-11.82l-1.97-1.05"/><path stroke="#D9C89B" stroke-width=".066" d="M1005.17 58.689l-.99 1.05h-14.774"/><path fill="#D9C89B" fill-opacity=".2" fill-rule="nonzero" d="M1065.26 67.066h52.21l-1.97-2.1h-52.21z"/><path fill="#D9C89B" fill-rule="nonzero" d="M1062.31 62.88h11.82l-1.97-2.1h-10.83z"/><path fill="#D9C89B" fill-opacity=".2" fill-rule="nonzero" d="M1137.19 59.714h-10.83l1.97 1.05h7.88l4.92 6.299h2.96z"/><path fill="#D9C89B" fill-rule="nonzero" d="M1021.93 64.966l2.95 2.1h-24.62l2.95-2.1z"/><path stroke="#D9C89B" stroke-opacity=".2" stroke-width=".033" d="M1144.1 68.12l15.76 15.748h40.39l3.94-4.2h32.51l2.95 4.2h6.9"/><path fill="#D9C89B" fill-opacity=".2" fill-rule="nonzero" d="M1220.91 68.12l11.82 11.548h1.97l-11.82-11.548zm-2.93 0l11.82 11.548h1.97l-11.82-11.548z"/><g transform="translate(1117 67)"><mask id="N" fill="#fff"><use xlink:href="#L"/></mask><path fill="url(#M)" fill-rule="nonzero" mask="url(#N)" d="M129.52 5.306h-46.3l-1.97-2.099H62.53l-1.97 2.099H47.75L44.8 2.157H2.44L.47 1.107l.98-1.05.99 2.1H44.8l2.95 3.149h12.81l1.97-2.099h19.7l.99 2.099z"/></g><path stroke="#D9C89B" stroke-width=".099" d="M1172.66 73.364h-7.89l-2.95-3.149h-10.84"/><g transform="translate(1237 79)"><mask id="Q" fill="#fff"><use xlink:href="#O"/></mask><path fill="url(#P)" fill-rule="nonzero" mask="url(#Q)" opacity=".2" d="M.68.682l1.97 3.15h6.9v-1.05H3.64L1.67.682z"/></g></g><g opacity=".3"><g transform="translate(801 80)"><mask id="T" fill="#fff"><use xlink:href="#R"/></mask><path fill="url(#S)" fill-rule="nonzero" mask="url(#T)" d="M252.21 9.312h43.34v-1.05h-42.36L245.31.913H.019v1.049H245.31z"/></g><path stroke="#D9C89B" stroke-opacity=".8" stroke-width=".033" d="M1096.55 75.664h-94.57l-5.912 5.25"/><path fill="#D9C89B" fill-rule="nonzero" d="M1023.66 78.822l-2.95 2.1h-1.97l1.97-2.1zm-4.92 0l-1.97 2.1h-2.96l1.97-2.1zm-1-4.186l-5.91 6.299h-1.97l5.91-6.299zm-80.77 0l-5.91 6.299h-1.971L935 74.636zm3.927 0l-5.91 6.299h-1.97l5.91-6.299zm3.96 0l-5.911 6.299h-1.97l5.911-6.299zm68.963 0l-4.93 6.299h-1.97l5.91-6.299z"/><path stroke="#D9C89B" stroke-opacity=".2" stroke-width=".033" d="M1095.55 73.578h-52.21l-.99-2.1h-28.57l-1.97 2.1h-23.638l-2.955 3.15h-52.211l-2.955-3.15h-19.702"/><path stroke="#D9C89B" stroke-width=".066" d="M1016.74 71.478h-3.94l-.98 1.05"/><path fill="#D9C89B" fill-opacity=".2" fill-rule="nonzero" d="M1021.68 71.478l1.97 1.05h11.82l1.97-1.05"/><path stroke="#D9C89B" stroke-width=".066" d="M1042.38 72.545l.99 1.05h14.77"/><path fill="#D9C89B" fill-opacity=".2" fill-rule="nonzero" d="M982.292 80.922h-52.21l1.97-2.1h52.21z"/><path fill="#D9C89B" fill-rule="nonzero" d="M985.239 76.736h-11.821l1.97-2.1h10.836z"/><path fill="#D9C89B" fill-opacity=".2" fill-rule="nonzero" d="M910.357 73.57h10.836l-1.97 1.049h-7.881l-4.926 6.3h-2.955z"/><path fill="#D9C89B" fill-rule="nonzero" d="M1025.62 78.822l-2.95 2.1h24.63l-2.96-2.1z"/><path stroke="#D9C89B" stroke-opacity=".2" stroke-width=".033" d="M903.454 81.975l-15.762 15.749h-40.389l-3.94-4.2h-32.509l-2.955 4.2h-6.896"/><path fill="#D9C89B" fill-opacity=".2" fill-rule="nonzero" d="M826.645 81.975l-11.821 11.549h-1.97l11.821-11.549zm2.927 0l-11.821 11.549h-1.971l11.822-11.549z"/><g transform="translate(801 80)"><mask id="W" fill="#fff"><use xlink:href="#U"/></mask><path fill="url(#V)" fill-rule="nonzero" mask="url(#W)" d="M.033 6.162h46.3l1.97-2.099H67.02l1.971 2.099h12.806l2.955-3.149h42.36l1.97-1.05-.985-1.05-.985 2.1h-42.36l-2.955 3.149H68.991L67.02 4.063H47.318l-.985 2.099z"/></g><path stroke="#D9C89B" stroke-width=".099" d="M874.896 87.22h7.881l2.955-3.15h10.836"/><g transform="translate(801 93)"><mask id="Z" fill="#fff"><use xlink:href="#X"/></mask><path fill="url(#Y)" fill-rule="nonzero" mask="url(#Z)" opacity=".2" d="M8.87.538l-1.971 3.15H.004v-1.05h5.91l1.97-2.1z"/></g></g><g opacity=".3"><g transform="translate(1097 88)"><mask id="ac" fill="#fff"><use xlink:href="#aa"/></mask><path fill="url(#ab)" fill-rule="nonzero" mask="url(#ac)" d="M252.21 8.773h43.34v-1.05h-42.36l-7.88-7.35H.02v1.05h245.29z"/></g><path stroke="#D9C89B" stroke-opacity=".8" stroke-width=".033" d="M1392.55 83.125h-94.57l-5.91 5.249"/><path fill="#D9C89B" fill-rule="nonzero" d="M1319.66 86.283l-2.95 2.1h-1.97l1.97-2.1zm-4.92 0l-1.97 2.1h-2.96l1.97-2.1zm-1-4.186l-5.91 6.299h-1.97l5.91-6.299zm-80.77 0l-5.91 6.299h-1.97l5.91-6.299zm3.93 0l-5.91 6.299h-1.97l5.91-6.299zm3.96 0l-5.91 6.299h-1.97l5.91-6.299zm68.96 0l-4.93 6.299h-1.97l5.91-6.299z"/><path stroke="#D9C89B" stroke-opacity=".2" stroke-width=".033" d="M1391.55 81.039h-52.21l-.99-2.099h-28.57l-1.97 2.099h-23.64l-2.95 3.15h-52.21l-2.96-3.15h-19.7"/><path stroke="#D9C89B" stroke-width=".066" d="M1312.74 78.94h-3.94l-.98 1.049"/><path fill="#D9C89B" fill-opacity=".2" fill-rule="nonzero" d="M1317.68 78.94l1.97 1.049h11.82l1.97-1.049"/><path stroke="#D9C89B" stroke-width=".066" d="M1338.38 80.006l.99 1.05h14.77"/><path fill="#D9C89B" fill-opacity=".2" fill-rule="nonzero" d="M1278.29 88.383h-52.21l1.97-2.1h52.21z"/><path fill="#D9C89B" fill-rule="nonzero" d="M1281.24 84.197h-11.82l1.97-2.1h10.83z"/><path fill="#D9C89B" fill-opacity=".2" fill-rule="nonzero" d="M1206.36 81.03h10.83l-1.97 1.05h-7.88l-4.92 6.3h-2.96z"/><path fill="#D9C89B" fill-rule="nonzero" d="M1321.62 86.283l-2.95 2.1h24.63l-2.96-2.1z"/><path stroke="#D9C89B" stroke-opacity=".2" stroke-width=".033" d="M1199.45 89.436l-15.76 15.748h-40.39l-3.94-4.199h-32.51l-2.95 4.199h-6.9"/><path fill="#D9C89B" fill-opacity=".2" fill-rule="nonzero" d="M1122.65 89.436l-11.83 11.549h-1.97l11.83-11.549zm2.92 0l-11.82 11.549h-1.97l11.82-11.549z"/><g transform="translate(1097 88)"><mask id="af" fill="#fff"><use xlink:href="#ad"/></mask><path fill="url(#ae)" fill-rule="nonzero" mask="url(#af)" d="M.03 5.623h46.3l1.97-2.1h18.72l1.97 2.1H81.8l2.95-3.149h42.36l1.97-1.05-.98-1.05-.99 2.1H84.75L81.8 5.623H68.99l-1.97-2.1h-19.7l-.99 2.1z"/></g><path stroke="#D9C89B" stroke-width=".099" d="M1170.9 94.681h7.88l2.95-3.15h10.84"/><g transform="translate(1097 100)"><mask id="ai" fill="#fff"><use xlink:href="#ag"/></mask><path fill="url(#ah)" fill-rule="nonzero" mask="url(#ai)" opacity=".2" d="M8.87.999L6.9 4.149H0v-1.05h5.91l1.97-2.1z"/></g></g><g opacity=".3"><g transform="translate(1078 50)"><mask id="al" fill="#fff"><use xlink:href="#aj"/></mask><path fill="url(#ak)" fill-rule="nonzero" mask="url(#al)" d="M47.16.048H0v1.05h46.09l8.57 7.349h266.89v-1.05H54.66z"/></g><path stroke="#D9C89B" stroke-opacity=".8" stroke-width=".033" d="M1078 63.696h94.57l5.91-5.25"/><path fill="#D9C89B" fill-rule="nonzero" d="M1150.89 60.538l2.95-2.1h1.97l-1.97 2.1zm4.92 0l1.97-2.1h2.96l-1.97 2.1zm1 4.186l5.91-6.299h1.97l-5.91 6.299zm80.77 0l5.91-6.299h1.97l-5.91 6.299zm-3.93 0l5.91-6.299h1.97l-5.91 6.299zm-3.96 0l5.91-6.299h1.97l-5.91 6.299zm-68.95 0l4.92-6.299h1.97l-5.91 6.299z"/><path stroke="#D9C89B" stroke-opacity=".2" stroke-width=".033" d="M1079 65.782h52.21l.99 2.099h28.57l1.97-2.099h23.64l2.95-3.15h52.21l2.96 3.15h19.7"/><path stroke="#D9C89B" stroke-width=".066" d="M1157.81 67.881h3.94l.98-1.05"/><path fill="#D9C89B" fill-opacity=".2" fill-rule="nonzero" d="M1152.87 67.881l-1.97-1.05h-11.82l-1.97 1.05"/><path stroke="#D9C89B" stroke-width=".066" d="M1132.17 66.815l-.99-1.05h-14.77"/><path fill="#D9C89B" fill-opacity=".2" fill-rule="nonzero" d="M1192.26 58.438h52.21l-1.97 2.1h-52.21z"/><path fill="#D9C89B" fill-rule="nonzero" d="M1189.31 62.624h11.82l-1.97 2.1h-10.83z"/><path fill="#D9C89B" fill-opacity=".2" fill-rule="nonzero" d="M1264.19 65.791h-10.83l1.97-1.05h7.88l4.92-6.3h2.96z"/><path fill="#D9C89B" fill-rule="nonzero" d="M1148.93 60.538l2.95-2.1h-24.62l2.95 2.1z"/><path stroke="#D9C89B" stroke-opacity=".2" stroke-width=".033" d="M1271.1 57.384l15.76-15.748h40.39l3.94 4.2h32.51l2.95-4.2h6.9"/><path fill="#D9C89B" fill-opacity=".2" fill-rule="nonzero" d="M1347.91 57.384l11.82-11.548h1.97l-11.82 11.548zm-2.93 0l11.82-11.548h1.97l-11.82 11.548z"/><g transform="translate(1244 53)"><mask id="ao" fill="#fff"><use xlink:href="#am"/></mask><path fill="url(#an)" fill-rule="nonzero" mask="url(#ao)" d="M129.52.198h-46.3l-1.97 2.099H62.53L60.56.198H47.75L44.8 3.347H2.44L.47 4.397l.98 1.05.99-2.1H44.8L47.75.198h12.81l1.97 2.099h19.7l.99-2.099z"/></g><path stroke="#D9C89B" stroke-width=".099" d="M1299.66 52.14h-7.89l-2.95 3.15h-10.84"/><g transform="translate(1364 42)"><mask id="ar" fill="#fff"><use xlink:href="#ap"/></mask><path fill="url(#aq)" fill-rule="nonzero" mask="url(#ar)" opacity=".2" d="M.68 3.822L2.65.672h6.9v1.05H3.64l-1.97 2.1z"/></g></g><g opacity=".3"><g transform="translate(903 9)"><mask id="au" fill="#fff"><use xlink:href="#as"/></mask><path fill="url(#at)" fill-rule="nonzero" mask="url(#au)" d="M43.346.546H.001v1.05h42.36l7.881 7.349H295.53v-1.05H50.242z"/></g><path stroke="#D9C89B" stroke-opacity=".8" stroke-width=".033" d="M903.002 23.193h94.57l5.908-5.249"/><path fill="#D9C89B" fill-rule="nonzero" d="M975.887 20.035l2.955-2.099h1.971l-1.971 2.099zm4.924 0l1.971-2.099h2.955l-1.97 2.099zm.998 4.187l5.91-6.3h1.97l-5.91 6.3zm80.771 0l5.91-6.3h1.97l-5.91 6.3zm-3.93 0l5.91-6.3h1.97l-5.91 6.3zm-3.96 0l5.91-6.3h1.97l-5.91 6.3zm-68.954 0l4.925-6.3h1.97l-5.91 6.3z"/><path stroke="#D9C89B" stroke-opacity=".2" stroke-width=".033" d="M904.003 25.279h52.21l.985 2.1h28.568l1.97-2.1h23.644l2.95-3.149h52.21l2.96 3.149h19.7"/><path stroke="#D9C89B" stroke-width=".066" d="M982.809 27.379h3.941l.985-1.05"/><path fill="#D9C89B" fill-opacity=".2" fill-rule="nonzero" d="M977.869 27.379l-1.97-1.05h-11.821l-1.97 1.05"/><path stroke="#D9C89B" stroke-width=".066" d="M957.168 26.313l-.985-1.05h-14.777"/><path fill="#D9C89B" fill-opacity=".2" fill-rule="nonzero" d="M1017.26 17.936h52.21l-1.97 2.099h-52.21z"/><path fill="#D9C89B" fill-rule="nonzero" d="M1014.31 22.122h11.82l-1.97 2.1h-10.83z"/><path fill="#D9C89B" fill-opacity=".2" fill-rule="nonzero" d="M1089.19 25.288h-10.83l1.97-1.05h7.88l4.92-6.299h2.96z"/><path fill="#D9C89B" fill-rule="nonzero" d="M973.928 20.035l2.955-2.099h-24.627l2.955 2.099z"/><path stroke="#D9C89B" stroke-opacity=".2" stroke-width=".033" d="M1096.1 16.882l15.76-15.748h40.39l3.94 4.199h32.51l2.95-4.199h6.9"/><path fill="#D9C89B" fill-opacity=".2" fill-rule="nonzero" d="M1172.91 16.882l11.82-11.549h1.97l-11.82 11.549zm-2.93 0l11.82-11.549h1.97l-11.82 11.549z"/><g transform="translate(1069 12)"><mask id="ax" fill="#fff"><use xlink:href="#av"/></mask><path fill="url(#aw)" fill-rule="nonzero" mask="url(#ax)" d="M129.52.695h-46.3l-1.97 2.1H62.53l-1.97-2.1H47.75l-2.95 3.15H2.44L.47 4.895l.98 1.05.99-2.1H44.8l2.95-3.15h12.81l1.97 2.1h19.7l.99-2.1z"/></g><path stroke="#D9C89B" stroke-width=".099" d="M1124.66 11.637h-7.89l-2.95 3.15h-10.84"/><g transform="translate(1189 2)"><mask id="aA" fill="#fff"><use xlink:href="#ay"/></mask><path fill="url(#az)" fill-rule="nonzero" mask="url(#aA)" opacity=".2" d="M.68 3.319L2.65.17h6.9v1.05H3.64L1.67 3.319z"/></g></g></g><g opacity=".4"><g opacity=".3"><g transform="translate(28 67)"><mask id="aD" fill="#fff"><use xlink:href="#aB"/></mask><path fill="url(#aC)" fill-rule="nonzero" mask="url(#aD)" d="M47.16.099H0v1.05h46.088l8.575 7.349h266.884v-1.05H54.663z"/></g><path stroke="#D9C89B" stroke-opacity=".8" stroke-width=".033" d="M28 80.747h94.57l5.91-5.249"/><path fill="#D9C89B" fill-rule="nonzero" d="M100.885 77.589l2.956-2.1h1.97l-1.97 2.1zm4.924 0l1.971-2.1h2.955l-1.97 2.1zm.998 4.186l5.91-6.299h1.97l-5.91 6.299zm80.772 0l5.91-6.299h1.97l-5.91 6.299zm-3.928 0l5.911-6.299h1.97l-5.91 6.299zm-3.959 0l5.91-6.299h1.971l-5.911 6.299zm-68.958 0l4.925-6.299h1.97l-5.91 6.299z"/><path stroke="#D9C89B" stroke-opacity=".2" stroke-width=".033" d="M29.001 82.833h52.21l.985 2.1h28.568l1.97-2.1h23.643l2.955-3.15h52.21l2.956 3.15H214.2"/><path stroke="#D9C89B" stroke-width=".066" d="M107.807 84.933h3.941l.985-1.05"/><path fill="#D9C89B" fill-opacity=".2" fill-rule="nonzero" d="M102.867 84.933l-1.97-1.05H89.076l-1.97 1.05"/><path stroke="#D9C89B" stroke-width=".066" d="M82.166 83.866l-.985-1.05H66.404"/><path fill="#D9C89B" fill-opacity=".2" fill-rule="nonzero" d="M142.257 75.489h52.21l-1.97 2.1h-52.21z"/><path fill="#D9C89B" fill-rule="nonzero" d="M139.31 79.676h11.821l-1.97 2.099h-10.836z"/><path fill="#D9C89B" fill-opacity=".2" fill-rule="nonzero" d="M214.192 82.842h-10.836l1.97-1.05h7.881l4.925-6.299h2.956z"/><path fill="#D9C89B" fill-rule="nonzero" d="M98.926 77.589l2.955-2.1H77.254l2.955 2.1z"/><path stroke="#D9C89B" stroke-opacity=".2" stroke-width=".033" d="M221.095 74.436l15.761-15.748h40.39l3.94 4.199h32.508l2.956-4.199h6.895"/><path fill="#D9C89B" fill-opacity=".2" fill-rule="nonzero" d="M297.904 74.436l11.821-11.549h1.97l-11.821 11.549zm-2.927 0l11.821-11.549h1.971l-11.822 11.549z"/><g transform="translate(194 70)"><mask id="aG" fill="#fff"><use xlink:href="#aE"/></mask><path fill="url(#aF)" fill-rule="nonzero" mask="url(#aG)" d="M129.515.249H83.216l-1.971 2.1H62.528l-1.97-2.1H47.752l-2.955 3.149H2.437l-1.97 1.05.985 1.05.985-2.1h42.36L47.752.249h12.806l1.97 2.1H82.23l.986-2.1z"/></g><path stroke="#D9C89B" stroke-width=".099" d="M249.653 69.191h-7.881l-2.955 3.15h-10.836"/><g transform="translate(314 59)"><mask id="aJ" fill="#fff"><use xlink:href="#aH"/></mask><path fill="url(#aI)" fill-rule="nonzero" mask="url(#aJ)" opacity=".2" d="M.679 3.873l1.97-3.15h6.896v1.05h-5.91l-1.971 2.1z"/></g></g><g opacity=".3"><g transform="translate(439 69)"><mask id="aM" fill="#fff"><use xlink:href="#aK"/></mask><path fill="url(#aL)" fill-rule="nonzero" mask="url(#aM)" d="M43.344.231H-.001v1.05h42.36l7.88 7.349H295.53V7.58H50.239z"/></g><path stroke="#D9C89B" stroke-opacity=".8" stroke-width=".033" d="M439 82.879h94.57l5.91-5.249"/><path fill="#D9C89B" fill-rule="nonzero" d="M511.885 79.721l2.955-2.1h1.971l-1.971 2.1zm4.924 0l1.971-2.1h2.955l-1.97 2.1zm.998 4.186l5.91-6.299h1.97l-5.91 6.299zm80.772 0l5.91-6.299h1.97l-5.91 6.299zm-3.928 0l5.911-6.299h1.97l-5.91 6.299zm-3.959 0l5.91-6.299h1.971l-5.911 6.299zm-68.958 0l4.925-6.299h1.97l-5.91 6.299z"/><path stroke="#D9C89B" stroke-opacity=".2" stroke-width=".033" d="M440.001 84.965h52.21l.985 2.099h28.568l1.97-2.099h23.643l2.955-3.15h52.21l2.956 3.15H625.2"/><path stroke="#D9C89B" stroke-width=".066" d="M518.807 87.064h3.941l.985-1.049"/><path fill="#D9C89B" fill-opacity=".2" fill-rule="nonzero" d="M513.867 87.064l-1.97-1.049h-11.821l-1.97 1.049"/><path stroke="#D9C89B" stroke-width=".066" d="M493.166 85.998l-.985-1.05h-14.777"/><path fill="#D9C89B" fill-opacity=".2" fill-rule="nonzero" d="M553.257 77.621h52.21l-1.97 2.1h-52.21z"/><path fill="#D9C89B" fill-rule="nonzero" d="M550.31 81.807h11.821l-1.97 2.1h-10.836z"/><path fill="#D9C89B" fill-opacity=".2" fill-rule="nonzero" d="M625.192 84.974h-10.836l1.97-1.05h7.881l4.925-6.299h2.956z"/><path fill="#D9C89B" fill-rule="nonzero" d="M509.926 79.721l2.955-2.1h-24.627l2.955 2.1z"/><path stroke="#D9C89B" stroke-opacity=".2" stroke-width=".033" d="M632.095 76.568l15.761-15.748h40.39l3.94 4.199h32.508l2.956-4.199h6.895"/><path fill="#D9C89B" fill-opacity=".2" fill-rule="nonzero" d="M708.903 76.568l11.822-11.549h1.97l-11.821 11.549zm-2.926 0l11.821-11.549h1.97l-11.821 11.549z"/><g transform="translate(605 72)"><mask id="aP" fill="#fff"><use xlink:href="#aN"/></mask><path fill="url(#aO)" fill-rule="nonzero" mask="url(#aP)" d="M129.515.381H83.216l-1.971 2.1H62.528l-1.97-2.1H47.752L44.797 3.53H2.437L.467 4.58l.985 1.05.985-2.1h42.36L47.752.381h12.806l1.97 2.1H82.23l.986-2.1z"/></g><path stroke="#D9C89B" stroke-width=".099" d="M660.653 71.323h-7.881l-2.955 3.15h-10.836"/><g transform="translate(725 61)"><mask id="aS" fill="#fff"><use xlink:href="#aQ"/></mask><path fill="url(#aR)" fill-rule="nonzero" mask="url(#aS)" opacity=".2" d="M.679 4.005l1.97-3.15h6.896v1.05h-5.91l-1.971 2.1z"/></g></g><g opacity=".3"><g transform="translate(552 59)"><mask id="aV" fill="#fff"><use xlink:href="#aT"/></mask><path fill="url(#aU)" fill-rule="nonzero" mask="url(#aV)" d="M43.344.639H-.001v1.05h42.36l7.88 7.349H295.53v-1.05H50.239z"/></g><path stroke="#D9C89B" stroke-opacity=".8" stroke-width=".033" d="M552 73.286h94.57l5.91-5.249"/><path fill="#D9C89B" fill-rule="nonzero" d="M624.885 70.128l2.955-2.099h1.971l-1.971 2.099zm4.924 0l1.971-2.099h2.955l-1.97 2.099zm.998 4.186l5.91-6.299h1.97l-5.91 6.299zm80.772 0l5.91-6.299h1.97l-5.91 6.299zm-3.928 0l5.911-6.299h1.97l-5.91 6.299zm-3.959 0l5.91-6.299h1.971l-5.911 6.299zm-68.958 0l4.925-6.299h1.97l-5.91 6.299z"/><path stroke="#D9C89B" stroke-opacity=".2" stroke-width=".033" d="M553.001 75.372h52.21l.985 2.1h28.568l1.97-2.1h23.643l2.955-3.149h52.21l2.956 3.149H738.2"/><path stroke="#D9C89B" stroke-width=".066" d="M631.807 77.472h3.941l.985-1.05"/><path fill="#D9C89B" fill-opacity=".2" fill-rule="nonzero" d="M626.867 77.472l-1.97-1.05h-11.821l-1.97 1.05"/><path stroke="#D9C89B" stroke-width=".066" d="M606.166 76.405l-.985-1.049h-14.777"/><path fill="#D9C89B" fill-opacity=".2" fill-rule="nonzero" d="M666.257 68.029h52.21l-1.97 2.099h-52.21z"/><path fill="#D9C89B" fill-rule="nonzero" d="M663.31 72.215h11.821l-1.97 2.099h-10.836z"/><path fill="#D9C89B" fill-opacity=".2" fill-rule="nonzero" d="M738.192 75.381h-10.836l1.97-1.05h7.881l4.925-6.299h2.956z"/><path fill="#D9C89B" fill-rule="nonzero" d="M622.926 70.128l2.955-2.099h-24.627l2.955 2.099z"/><path stroke="#D9C89B" stroke-opacity=".2" stroke-width=".033" d="M745.095 66.975l15.761-15.748h40.39l3.94 4.199h32.508l2.956-4.199h6.895"/><path fill="#D9C89B" fill-opacity=".2" fill-rule="nonzero" d="M821.903 66.975l11.822-11.549h1.97l-11.821 11.549zm-2.926 0l11.821-11.549h1.97l-11.821 11.549z"/><g transform="translate(718 62)"><mask id="aX" fill="#fff"><use xlink:href="#aW"/></mask><path fill="url(#aO)" fill-rule="nonzero" mask="url(#aX)" d="M129.515.788H83.216l-1.971 2.1H62.528l-1.97-2.1H47.752l-2.955 3.15H2.437l-1.97 1.05.985 1.05.985-2.1h42.36l2.955-3.15h12.806l1.97 2.1H82.23l.986-2.1z"/></g><path stroke="#D9C89B" stroke-width=".099" d="M773.653 61.73h-7.881l-2.955 3.15h-10.836"/><g transform="translate(838 52)"><mask id="aZ" fill="#fff"><use xlink:href="#aY"/></mask><path fill="url(#aR)" fill-rule="nonzero" mask="url(#aZ)" opacity=".2" d="M.679 3.412L2.649.263h6.896v1.05h-5.91L1.664 3.412z"/></g></g><g opacity=".3"><g transform="translate(430 38)"><mask id="bc" fill="#fff"><use xlink:href="#ba"/></mask><path fill="url(#bb)" fill-rule="nonzero" mask="url(#bc)" d="M252.203.322h43.345v1.049h-42.36l-7.881 7.35H.017v-1.05h245.29z"/></g><path stroke="#D9C89B" stroke-opacity=".8" stroke-width=".033" d="M725.547 51.969h-94.57l-5.911-5.249"/><path fill="#D9C89B" fill-rule="nonzero" d="M652.662 48.811l-2.956-2.099h-1.97l1.97 2.099zm-4.925 0l-1.97-2.099h-2.955l1.97 2.099zm-.997 4.186l-5.91-6.299h-1.971l5.911 6.299zm-80.772 0l-5.91-6.299h-1.971l5.911 6.299zm3.927 0l-5.91-6.299h-1.97l5.91 6.299zm3.96 0l-5.911-6.299h-1.97l5.911 6.299zm68.958 0l-4.925-6.299h-1.971l5.911 6.299z"/><path stroke="#D9C89B" stroke-opacity=".2" stroke-width=".033" d="M724.546 54.055h-52.21l-.985 2.1h-28.568l-1.971-2.1H617.17l-2.955-3.15h-52.211l-2.955 3.15h-19.702"/><path stroke="#D9C89B" stroke-width=".066" d="M645.74 56.155h-3.941l-.985-1.05"/><path fill="#D9C89B" fill-opacity=".2" fill-rule="nonzero" d="M650.679 56.155l1.971-1.05h11.821l1.97 1.05"/><path stroke="#D9C89B" stroke-width=".066" d="M671.381 55.088l.985-1.05h14.777"/><path fill="#D9C89B" fill-opacity=".2" fill-rule="nonzero" d="M611.29 46.712h-52.21l1.97 2.099h52.21z"/><path fill="#D9C89B" fill-rule="nonzero" d="M614.237 50.898h-11.821l1.97 2.099h10.836z"/><path fill="#D9C89B" fill-opacity=".2" fill-rule="nonzero" d="M539.355 54.064h10.836l-1.97-1.05h-7.881l-4.925-6.299h-2.956z"/><path fill="#D9C89B" fill-rule="nonzero" d="M654.621 48.811l-2.955-2.099h24.627l-2.955 2.099z"/><path stroke="#D9C89B" stroke-opacity=".2" stroke-width=".033" d="M532.452 45.658L516.69 29.91h-40.389l-3.94 4.199h-32.508l-2.956-4.199h-6.896"/><path fill="#D9C89B" fill-opacity=".2" fill-rule="nonzero" d="M455.643 45.658l-11.821-11.549h-1.97l11.821 11.549zm2.927 0l-11.821-11.549h-1.971L456.6 45.658z"/><g transform="translate(430 41)"><mask id="bf" fill="#fff"><use xlink:href="#bd"/></mask><path fill="url(#be)" fill-rule="nonzero" mask="url(#bf)" d="M.031.471h46.3l1.97 2.1h18.717l1.971-2.1h12.806l2.955 3.15h42.36l1.97 1.05-.985 1.05-.985-2.1H84.75L81.795.471H68.989l-1.971 2.1H47.316l-.985-2.1z"/></g><path stroke="#D9C89B" stroke-width=".099" d="M503.894 40.413h7.881l2.955 3.15h10.836"/><g transform="translate(429 30)"><mask id="bi" fill="#fff"><use xlink:href="#bg"/></mask><path fill="url(#bh)" fill-rule="nonzero" mask="url(#bi)" opacity=".2" d="M9.868 4.095L7.897.946H1.002v1.05h5.91l1.971 2.099z"/></g></g><g opacity=".3"><g transform="translate(182 30)"><mask id="bl" fill="#fff"><use xlink:href="#bj"/></mask><path fill="url(#bk)" fill-rule="nonzero" mask="url(#bl)" d="M229.547.574h66V1.64h-64.5l-12 7.461h-373.5V8.035h373.5z"/></g><path stroke="#D9C89B" stroke-opacity=".8" stroke-width=".033" d="M477.547 44.508h-94.57l-5.911-5.249"/><path fill="#D9C89B" fill-rule="nonzero" d="M404.662 41.35l-2.956-2.1h-1.97l1.97 2.1zm-4.925 0l-1.97-2.1h-2.955l1.97 2.1zm-.997 4.186l-5.91-6.299h-1.971l5.911 6.299zm-80.772 0l-5.91-6.299h-1.971l5.911 6.299zm3.927 0l-5.91-6.299h-1.97l5.91 6.299zm3.96 0l-5.91-6.299h-1.971l5.911 6.299zm68.958 0l-4.925-6.299h-1.971l5.911 6.299z"/><path stroke="#D9C89B" stroke-opacity=".2" stroke-width=".033" d="M476.546 46.594h-52.21l-.985 2.1h-28.568l-1.971-2.1H369.17l-2.955-3.15h-52.211l-2.955 3.15h-19.702"/><path stroke="#D9C89B" stroke-width=".066" d="M397.74 48.694h-3.941l-.985-1.05"/><path fill="#D9C89B" fill-opacity=".2" fill-rule="nonzero" d="M402.679 48.694l1.971-1.05h11.821l1.97 1.05"/><path stroke="#D9C89B" stroke-width=".066" d="M423.381 47.627l.985-1.05h14.776"/><path fill="#D9C89B" fill-opacity=".2" fill-rule="nonzero" d="M363.29 39.25h-52.21l1.97 2.1h52.21z"/><path fill="#D9C89B" fill-rule="nonzero" d="M366.237 43.436h-11.821l1.97 2.1h10.836z"/><path fill="#D9C89B" fill-opacity=".2" fill-rule="nonzero" d="M291.355 46.602h10.836l-1.97-1.049h-7.881l-4.925-6.3h-2.956z"/><path fill="#D9C89B" fill-rule="nonzero" d="M406.621 41.35l-2.955-2.1h24.627l-2.955 2.1z"/><path stroke="#D9C89B" stroke-opacity=".2" stroke-width=".033" d="M284.452 38.197L268.69 22.449h-40.389l-3.94 4.199h-32.508l-2.956-4.199h-6.896"/><path fill="#D9C89B" fill-opacity=".2" fill-rule="nonzero" d="M207.643 38.197l-11.821-11.549h-1.97l11.821 11.549zm2.927 0l-11.821-11.549h-1.971L208.6 38.197z"/><g transform="translate(182 34)"><mask id="bo" fill="#fff"><use xlink:href="#bm"/></mask><path fill="url(#bn)" fill-rule="nonzero" mask="url(#bo)" d="M.032.01h46.299l1.971 2.1h18.716l1.971-2.1h12.806l2.955 3.149h42.36l1.97 1.05-.985 1.05-.985-2.1H84.75L81.795.01H68.989l-1.971 2.1H47.316l-.985-2.1z"/></g><path stroke="#D9C89B" stroke-width=".099" d="M255.894 32.952h7.881l2.955 3.15h10.836"/><g transform="translate(181 23)"><mask id="bq" fill="#fff"><use xlink:href="#bp"/></mask><path fill="url(#bh)" fill-rule="nonzero" mask="url(#bq)" opacity=".2" d="M9.868 3.634L7.897.484H1.002v1.05h5.91l1.971 2.1z"/></g></g><g opacity=".3"><g transform="translate(332 17)"><mask id="bs" fill="#fff"><use xlink:href="#br"/></mask><path fill="url(#aL)" fill-rule="nonzero" mask="url(#bs)" d="M43.344.004H-.001v1.05h42.36l7.881 7.35h245.29v-1.05H50.24z"/></g><path stroke="#D9C89B" stroke-opacity=".8" stroke-width=".033" d="M332 30.652h94.57l5.91-5.249"/><path fill="#D9C89B" fill-rule="nonzero" d="M404.885 27.494l2.955-2.1h1.971l-1.971 2.1zm4.924 0l1.971-2.1h2.955l-1.97 2.1zm.998 4.186l5.91-6.299h1.97l-5.91 6.299zm80.772 0l5.91-6.299h1.97l-5.91 6.299zm-3.928 0l5.911-6.299h1.97l-5.91 6.299zm-3.959 0l5.91-6.299h1.971l-5.911 6.299zm-68.958 0l4.925-6.299h1.97l-5.91 6.299z"/><path stroke="#D9C89B" stroke-opacity=".2" stroke-width=".033" d="M333.001 32.738h52.21l.985 2.1h28.568l1.97-2.1h23.643l2.955-3.15h52.21l2.956 3.15H518.2"/><path stroke="#D9C89B" stroke-width=".066" d="M411.807 34.838h3.941l.985-1.05"/><path fill="#D9C89B" fill-opacity=".2" fill-rule="nonzero" d="M406.867 34.838l-1.97-1.05h-11.821l-1.97 1.05"/><path stroke="#D9C89B" stroke-width=".066" d="M386.166 33.771l-.985-1.05h-14.777"/><path fill="#D9C89B" fill-opacity=".2" fill-rule="nonzero" d="M446.257 25.394h52.21l-1.97 2.1h-52.21z"/><path fill="#D9C89B" fill-rule="nonzero" d="M443.31 29.58h11.821l-1.97 2.1h-10.836z"/><path fill="#D9C89B" fill-opacity=".2" fill-rule="nonzero" d="M518.192 32.747h-10.836l1.97-1.05h7.881l4.925-6.299h2.956z"/><path fill="#D9C89B" fill-rule="nonzero" d="M402.926 27.494l2.955-2.1h-24.627l2.955 2.1z"/><path stroke="#D9C89B" stroke-opacity=".2" stroke-width=".033" d="M525.095 24.341l15.761-15.748h40.39l3.94 4.199h32.508l2.956-4.199h6.895"/><path fill="#D9C89B" fill-opacity=".2" fill-rule="nonzero" d="M601.904 24.341l11.821-11.549h1.97l-11.821 11.549zm-2.927 0l11.821-11.549h1.97l-11.821 11.549z"/><g transform="translate(498 20)"><mask id="bu" fill="#fff"><use xlink:href="#bt"/></mask><path fill="url(#aO)" fill-rule="nonzero" mask="url(#bu)" d="M129.515.154H83.216l-1.971 2.1H62.528l-1.97-2.1H47.752l-2.955 3.15H2.437L.467 4.353l.985 1.05.985-2.099h42.36l2.955-3.15h12.806l1.97 2.1H82.23l.986-2.1z"/></g><path stroke="#D9C89B" stroke-width=".099" d="M553.653 19.096h-7.881l-2.955 3.15h-10.836"/><g transform="translate(618 9)"><mask id="bx" fill="#fff"><use xlink:href="#bv"/></mask><path fill="url(#bw)" fill-rule="nonzero" mask="url(#bx)" opacity=".2" d="M.679 3.778l1.97-3.15h6.896v1.05h-5.91l-1.971 2.1z"/></g></g><g opacity=".3"><g transform="translate(36 9)"><mask id="bA" fill="#fff"><use xlink:href="#by"/></mask><path fill="url(#bz)" fill-rule="nonzero" mask="url(#bA)" d="M43.344.544H-.001v1.05h42.36l7.88 7.349H295.53v-1.05H50.239z"/></g><path stroke="#D9C89B" stroke-opacity=".8" stroke-width=".033" d="M36 23.191h94.57l5.91-5.249"/><path fill="#D9C89B" fill-rule="nonzero" d="M108.885 20.033l2.956-2.099h1.97l-1.97 2.099zm4.924 0l1.971-2.099h2.955l-1.97 2.099zm.998 4.187l5.91-6.3h1.97l-5.91 6.3zm80.772 0l5.91-6.3h1.97l-5.91 6.3zm-3.928 0l5.911-6.3h1.97l-5.91 6.3zm-3.959 0l5.91-6.3h1.971l-5.911 6.3zm-68.958 0l4.925-6.3h1.97l-5.91 6.3z"/><path stroke="#D9C89B" stroke-opacity=".2" stroke-width=".033" d="M37.001 25.277h52.21l.985 2.1h28.568l1.97-2.1h23.643l2.955-3.149h52.21l2.956 3.149H222.2"/><path stroke="#D9C89B" stroke-width=".066" d="M115.807 27.377h3.941l.985-1.05"/><path fill="#D9C89B" fill-opacity=".2" fill-rule="nonzero" d="M110.867 27.377l-1.97-1.05H97.076l-1.97 1.05"/><path stroke="#D9C89B" stroke-width=".066" d="M90.166 26.311l-.985-1.05H74.404"/><path fill="#D9C89B" fill-opacity=".2" fill-rule="nonzero" d="M150.257 17.934h52.21l-1.97 2.1-52.21-.001z"/><path fill="#D9C89B" fill-rule="nonzero" d="M147.31 22.12h11.821l-1.97 2.1h-10.836z"/><path fill="#D9C89B" fill-opacity=".2" fill-rule="nonzero" d="M222.192 25.286h-10.836l1.97-1.05h7.881l4.925-6.299h2.956z"/><path fill="#D9C89B" fill-rule="nonzero" d="M106.926 20.033l2.955-2.099H85.254l2.955 2.099z"/><path stroke="#D9C89B" stroke-opacity=".2" stroke-width=".033" d="M229.095 16.88l15.761-15.748h40.39l3.94 4.199h32.508l2.956-4.199h6.895"/><path fill="#D9C89B" fill-opacity=".2" fill-rule="nonzero" d="M305.904 16.88l11.821-11.549h1.97L307.874 16.88zm-2.927 0l11.821-11.549h1.971L304.947 16.88z"/><g transform="translate(202 12)"><mask id="bC" fill="#fff"><use xlink:href="#bB"/></mask><path fill="url(#aO)" fill-rule="nonzero" mask="url(#bC)" d="M129.515.693H83.216l-1.971 2.1H62.528l-1.97-2.1H47.752l-2.955 3.15H2.437l-1.97 1.05.985 1.05.985-2.1h42.36l2.955-3.15h12.806l1.97 2.1H82.23l.986-2.1z"/></g><path stroke="#D9C89B" stroke-width=".099" d="M257.653 11.636h-7.881l-2.955 3.149h-10.836"/><g transform="translate(322 2)"><mask id="bF" fill="#fff"><use xlink:href="#bD"/></mask><path fill="url(#bE)" fill-rule="nonzero" mask="url(#bF)" opacity=".2" d="M.679 3.317L2.649.168h6.896v1.05h-5.91L1.664 3.317z"/></g></g><g opacity=".3"><g transform="translate(29 47)"><mask id="bI" fill="#fff"><use xlink:href="#bG"/></mask><path fill="url(#bH)" fill-rule="nonzero" mask="url(#bI)" d="M274.387 9.268h47.16V8.219h-46.089l-8.574-7.35H0v1.05h266.884z"/></g><path stroke="#D9C89B" stroke-opacity=".8" stroke-width=".033" d="M350.547 42.62h-94.57l-5.91 5.25"/><path fill="#D9C89B" fill-rule="nonzero" d="M277.662 45.778l-2.956 2.1h-1.97l1.97-2.1zm-4.925 0l-1.97 2.1h-2.955l1.97-2.1zm-.997-4.186l-5.91 6.299h-1.971l5.911-6.299zm-80.772 0l-5.91 6.299h-1.971l5.911-6.299zm3.927 0l-5.91 6.299h-1.97l5.91-6.299zm3.96 0l-5.911 6.299h-1.97l5.911-6.299zm68.958 0l-4.925 6.299h-1.971l5.911-6.299z"/><path stroke="#D9C89B" stroke-opacity=".2" stroke-width=".033" d="M349.546 40.535h-52.21l-.985-2.1h-28.568l-1.97 2.1-23.643-.001-2.955 3.15h-52.211l-2.955-3.15h-19.702"/><path stroke="#D9C89B" stroke-width=".066" d="M270.74 38.435h-3.941l-.985 1.05"/><path fill="#D9C89B" fill-opacity=".2" fill-rule="nonzero" d="M275.679 38.435l1.971 1.05h11.821l1.97-1.05"/><path stroke="#D9C89B" stroke-width=".066" d="M296.381 39.501l.985 1.05h14.777"/><path fill="#D9C89B" fill-opacity=".2" fill-rule="nonzero" d="M236.29 47.878h-52.21l1.97-2.1h52.21z"/><path fill="#D9C89B" fill-rule="nonzero" d="M239.237 43.692h-11.821l1.97-2.1h10.836z"/><path fill="#D9C89B" fill-opacity=".2" fill-rule="nonzero" d="M164.355 40.526h10.836l-1.97 1.049h-7.881l-4.925 6.3h-2.956z"/><path fill="#D9C89B" fill-rule="nonzero" d="M279.621 45.778l-2.955 2.1h24.627l-2.955-2.1z"/><path stroke="#D9C89B" stroke-opacity=".2" stroke-width=".033" d="M157.452 48.932L141.69 64.68h-40.389l-3.94-4.2H64.852l-2.955 4.2h-6.895"/><path fill="#D9C89B" fill-opacity=".2" fill-rule="nonzero" d="M80.643 48.932L68.822 60.48h-1.97l11.821-11.548zm2.927 0L71.749 60.48h-1.971L81.6 48.932z"/><g transform="translate(55 47)"><mask id="bL" fill="#fff"><use xlink:href="#bJ"/></mask><path fill="url(#bK)" fill-rule="nonzero" mask="url(#bL)" d="M.032 6.119h46.299l1.971-2.1h18.716l1.971 2.1h12.806l2.955-3.15h42.36l1.97-1.05-.985-1.05-.985 2.1H84.75l-2.955 3.15H68.989l-1.971-2.1H47.316l-.985 2.1z"/></g><path stroke="#D9C89B" stroke-width=".099" d="M128.894 54.176h7.881l2.955-3.149h10.836"/><g transform="translate(54 60)"><mask id="bO" fill="#fff"><use xlink:href="#bM"/></mask><path fill="url(#bN)" fill-rule="nonzero" mask="url(#bO)" opacity=".2" d="M9.868.494l-1.971 3.15H1.002v-1.05h5.91l1.971-2.1z"/></g></g><g opacity=".3"><g transform="translate(230 88)"><mask id="bR" fill="#fff"><use xlink:href="#bP"/></mask><path fill="url(#bQ)" fill-rule="nonzero" mask="url(#bR)" d="M252.203 8.771h43.344v-1.05h-42.359L245.307.372.017.371v1.05h245.29z"/></g><path stroke="#D9C89B" stroke-opacity=".8" stroke-width=".033" d="M525.547 83.123h-94.57l-5.911 5.249"/><path fill="#D9C89B" fill-rule="nonzero" d="M452.662 86.281l-2.956 2.1h-1.97l1.97-2.1zm-4.925 0l-1.97 2.1h-2.955l1.97-2.1zm-.997-4.186l-5.91 6.299h-1.971l5.911-6.299zm-80.772 0l-5.91 6.299h-1.971l5.911-6.299zm3.927 0l-5.91 6.299h-1.97l5.91-6.299zm3.96 0l-5.911 6.299h-1.97l5.911-6.299zm68.958 0l-4.925 6.299h-1.971l5.911-6.299z"/><path stroke="#D9C89B" stroke-opacity=".2" stroke-width=".033" d="M524.546 81.037h-52.21l-.985-2.099h-28.568l-1.971 2.099H417.17l-2.955 3.15h-52.211l-2.955-3.15h-19.702"/><path stroke="#D9C89B" stroke-width=".066" d="M445.74 78.938h-3.941l-.985 1.049"/><path fill="#D9C89B" fill-opacity=".2" fill-rule="nonzero" d="M450.679 78.938l1.971 1.049h11.821l1.97-1.049"/><path stroke="#D9C89B" stroke-width=".066" d="M471.381 80.004l.985 1.05h14.777"/><path fill="#D9C89B" fill-opacity=".2" fill-rule="nonzero" d="M411.29 88.381h-52.21l1.97-2.1h52.21z"/><path fill="#D9C89B" fill-rule="nonzero" d="M414.237 84.194h-11.821l1.97-2.099h10.836z"/><path fill="#D9C89B" fill-opacity=".2" fill-rule="nonzero" d="M339.355 81.028h10.836l-1.97 1.05h-7.881l-4.926 6.299h-2.955z"/><path fill="#D9C89B" fill-rule="nonzero" d="M454.621 86.281l-2.955 2.1h24.627l-2.955-2.1z"/><path stroke="#D9C89B" stroke-opacity=".2" stroke-width=".033" d="M332.452 89.434l-15.762 15.749h-40.389l-3.94-4.2h-32.509l-2.955 4.199h-6.896"/><path fill="#D9C89B" fill-opacity=".2" fill-rule="nonzero" d="M255.643 89.434l-11.821 11.549h-1.97l11.821-11.549zm2.927 0l-11.821 11.549h-1.971L256.6 89.434z"/><g transform="translate(230 88)"><mask id="bU" fill="#fff"><use xlink:href="#bS"/></mask><path fill="url(#bT)" fill-rule="nonzero" mask="url(#bU)" d="M.031 5.621h46.3l1.97-2.1h18.717l1.971 2.1h12.806l2.955-3.149h42.36l1.97-1.05-.985-1.05-.985 2.1H84.75l-2.955 3.149H68.989l-1.971-2.1H47.316l-.985 2.1z"/></g><path stroke="#D9C89B" stroke-width=".099" d="M303.894 94.679h7.881l2.955-3.15h10.836"/><g transform="translate(229 100)"><mask id="bX" fill="#fff"><use xlink:href="#bV"/></mask><path fill="url(#bW)" fill-rule="nonzero" mask="url(#bX)" opacity=".2" d="M9.868.997L7.897 4.146H1.002V3.097h5.91l1.97-2.1z"/></g></g></g><path fill="url(#bY)" fill-rule="nonzero" transform="rotate(-180 249.5 50.5)" d="M0 0h499v101H0z"/><path fill="url(#bZ)" fill-rule="nonzero" d="M907 0h489v109H907z"/></g></svg>