<svg xmlns="http://www.w3.org/2000/svg" width="1548" height="50"><defs><linearGradient id="a" x1="0%" x2="100%" y1="50%" y2="50%"><stop offset="0%"/><stop offset=".738%" stop-color="#090909"/><stop offset="4.768%" stop-color="#373737"/><stop offset="9.309%" stop-color="#626262"/><stop offset="14.19%" stop-color="#888"/><stop offset="19.5%" stop-color="#A8A8A8"/><stop offset="25.37%" stop-color="#C4C4C4"/><stop offset="32%" stop-color="#DADADA"/><stop offset="39.74%" stop-color="#EBEBEB"/><stop offset="49.31%" stop-color="#F6F6F6"/><stop offset="62.74%" stop-color="#FDFDFD"/><stop offset="100%" stop-color="#FFF"/></linearGradient><linearGradient id="b" x1="100%" x2="0%" y1="50%" y2="50%"><stop offset="0%"/><stop offset=".738%" stop-color="#090909"/><stop offset="4.768%" stop-color="#373737"/><stop offset="9.309%" stop-color="#626262"/><stop offset="14.19%" stop-color="#888"/><stop offset="19.5%" stop-color="#A8A8A8"/><stop offset="25.37%" stop-color="#C4C4C4"/><stop offset="32%" stop-color="#DADADA"/><stop offset="39.74%" stop-color="#EBEBEB"/><stop offset="49.31%" stop-color="#F6F6F6"/><stop offset="62.74%" stop-color="#FDFDFD"/><stop offset="100%" stop-color="#FFF"/></linearGradient><linearGradient id="c" x1="0%" x2="100%" y1="46.171%" y2="46.171%"><stop offset="1.03%" stop-color="#E1D2AB" stop-opacity="0"/><stop offset="8.62%" stop-color="#E1D2AB" stop-opacity=".145"/><stop offset="53.18%" stop-color="#E1D2AB"/><stop offset="93.27%" stop-color="#E1D2AB" stop-opacity=".14"/><stop offset="99.82%" stop-color="#E1D2AB" stop-opacity="0"/></linearGradient></defs><g fill="none"><path fill="url(#a)" d="M414.219 10.913H0v-.917h413.803l8.409-8.913.666.583z"/><path fill="#E1D2AB" d="M414.219 10.913H0v-.917h413.803l8.409-8.913.666.583z"/><path fill="#E1D2AB" opacity=".2" d="M240.122 10.913l20.149 19.742h65.942l11.157-10.746h220.139L575.41 1.916H421.213l-8.992 8.997H311.809z"/><path fill="#E1D2AB" d="M339.701 1l-29.557 29.656h-4.58L335.039 1zm10.657 0l-29.474 29.656h-4.579L345.779 1z"/><path fill="#E1D2AB" d="M580.073 19.909H331.542v-.916H579.74l7.826-8.08h117.647L715.62.5l.666.666-10.657 10.663h-117.73z"/><path fill="#E1D2AB" d="M581.322 22.575h-51.621V19.91h50.539l5.911-5.915 1.832 1.916zM314.057 10.413l-6.661 6.748h-38.549l-6.744-6.748"/><path fill="#E1D2AB" opacity=".8" d="M774.402 36.902h-51.288l-.083-.166-17.402-17.743H584.403v-.917h121.643l.166.167 17.318 17.743h50.872z"/><g opacity=".6"><path fill="#E1D2AB" opacity=".8" d="M773.57 48.565h-51.205l-17.402-17.493h-32.887l-7.161-7.164H624.95l-7.243 7.164H482.909l-4.913-4.915h-58.781l-5.246-5.248.583-.667 5.079 4.998h58.698l4.913 4.915h134.132l7.16-7.164h40.714l7.161 7.164h32.887l17.485 17.494h50.789z"/></g><path fill="#E1D2AB" opacity=".2" d="M673.158 30.655l-4.496-4.498h27.309l4.496 4.498"/><path fill="#E1D2AB" d="M750.257 49.482h-26.81l-.333-.25-8.493-8.497 1.249-1.333 8.243 8.247h26.144zM616.624 32.405h-17.901v-1.75h17.068l7.66-8.08h7.577v1.75h-6.827z"/><path fill="url(#b)" d="M1547.31 10.913h-412.64l-.17-.167-8.49-9.08.67-.583 8.4 8.913h412.23z"/><path fill="#E1D2AB" d="M1547.31 10.913h-412.64l-.17-.167-8.49-9.08.67-.583 8.4 8.913h412.23z"/><path fill="#E1D2AB" opacity=".2" d="M1308.77 10.913l-20.15 19.742h-65.95l-11.15-10.746H991.378L973.477 1.916h154.193l9 8.997h100.41z"/><path fill="#E1D2AB" d="M1209.19 1l29.55 29.656h4.58L1213.85 1zm-10.66 0L1228 30.656h4.58L1203.11 1z"/><path fill="#E1D2AB" d="M1217.35 19.909H968.814l-.166-.166-7.743-7.914H843.258L832.601 1.166l.666-.666 10.407 10.413h117.647l.167.166 7.659 7.914h248.203z"/><path fill="#E1D2AB" d="M1019.187 22.575h-51.621l-6.661-6.664 1.832-1.916 5.911 5.915h50.539zm215.643-12.162l6.66 6.748h38.55l6.74-6.748"/><path fill="#E1D2AB" d="M825.69 36.903h-51.288v-.917h50.955l17.485-17.91h121.643v.916h-121.31z"/><g opacity=".6"><path fill="#E1D2AB" opacity=".8" d="M826.439 48.565h-52.87v-.916h52.537l17.485-17.494h32.888l7.16-7.164h40.714l7.161 7.164h134.136l4.91-4.915h58.7l5.08-4.998.58.667-5.25 5.248h-58.78l-4.91 4.915H931.181l-7.244-7.164h-39.965l-7.16 7.164h-32.888z"/></g><path fill="#E1D2AB" opacity=".2" d="M875.73 30.655l4.496-4.498h-27.31l-4.496 4.498"/><path fill="#E1D2AB" d="M825.44 49.482h-26.809v-1.833h26.06l8.243-8.247 1.332 1.333zm124.724-17.077h-17.901l-7.576-8.08h-6.828v-1.75h7.577l7.66 8.08h17.068z"/><path fill="url(#c)" d="M1224.76 0H324.048v1.083h900.712z"/></g></svg>