<svg xmlns="http://www.w3.org/2000/svg" width="85" height="61"><path fill="#544C46" d="M1.413 5.443V1.96c0-.378.216-.747.819-.747h1.332c.603 0 .774.333.774.747v3.492c0 .486-.252.747-.783.747H2.241c-.396 0-.828-.162-.828-.756zm-.828.063C.585 6.586 1.296 7 2.16 7h1.476c.927 0 1.53-.432 1.53-1.494v-3.6c0-.792-.396-1.494-1.521-1.494H2.169c-.9 0-1.584.513-1.584 1.512v3.582zm6.846-3.762l1.45-.441V7h.827V.412H8.88l-1.449.756v.576zm4.628 0l1.45-.441V7h.827V.412h-.828l-1.449.756v.576zm5.709 3.699V1.96c0-.378.216-.747.819-.747h1.332c.603 0 .774.333.774.747v3.492c0 .486-.252.747-.783.747h-1.314c-.396 0-.828-.162-.828-.756zm-.828.063c0 1.08.71 1.494 1.575 1.494h1.476c.927 0 1.53-.432 1.53-1.494v-3.6c0-.792-.396-1.494-1.521-1.494h-1.476c-.9 0-1.584.513-1.584 1.512v3.582zm6.846-3.762l1.449-.441V7h.828V.412h-.828l-1.45.756v.576zm4.628 0l1.45-.441V7h.827V.412h-.828l-1.449.756v.576zm4.628 0l1.45-.441V7h.827V.412h-.828l-1.449.756v.576zm4.629 0l1.449-.441V7h.828V.412h-.828l-1.45.756v.576zm5.708 3.699V1.96c0-.378.216-.747.819-.747h1.332c.603 0 .774.333.774.747v3.492c0 .486-.252.747-.783.747h-1.314c-.396 0-.828-.162-.828-.756zm-.828.063c0 1.08.711 1.494 1.575 1.494h1.476c.927 0 1.53-.432 1.53-1.494v-3.6c0-.792-.396-1.494-1.521-1.494h-1.476c-.9 0-1.584.513-1.584 1.512v3.582zm6.846-3.762l1.45-.441V7h.827V.412h-.828l-1.449.756v.576zm4.628 0l1.45-.441V7h.827V.412h-.828l-1.449.756v.576zm4.629 0l1.449-.441V7h.828V.412h-.828l-1.45.756v.576zm4.628 0l1.449-.441V7h.828V.412h-.828l-1.449.756v.576zm4.628 0l1.45-.441V7h.827V.412h-.828l-1.449.756v.576zm5.709 3.699V1.96c0-.378.216-.747.819-.747h1.332c.603 0 .774.333.774.747v3.492c0 .486-.252.747-.783.747h-1.314c-.396 0-.828-.162-.828-.756zm-.828.063c0 1.08.71 1.494 1.575 1.494h1.476c.927 0 1.53-.432 1.53-1.494v-3.6c0-.792-.396-1.494-1.521-1.494h-1.476c-.9 0-1.584.513-1.584 1.512v3.582zm7.926-.063V1.96c0-.378.216-.747.819-.747h1.332c.603 0 .774.333.774.747v3.492c0 .486-.252.747-.783.747h-1.314c-.396 0-.828-.162-.828-.756zm-.828.063c0 1.08.71 1.494 1.575 1.494h1.476c.927 0 1.53-.432 1.53-1.494v-3.6c0-.792-.396-1.494-1.521-1.494h-1.476c-.9 0-1.584.513-1.584 1.512v3.582zM1.413 14.443V10.96c0-.378.216-.747.819-.747h1.332c.603 0 .774.333.774.747v3.492c0 .486-.252.747-.783.747H2.241c-.396 0-.828-.162-.828-.756zm-.828.063c0 1.08.711 1.494 1.575 1.494h1.476c.927 0 1.53-.432 1.53-1.494v-3.6c0-.792-.396-1.494-1.521-1.494H2.169c-.9 0-1.584.513-1.584 1.512v3.582zm7.926-.063V10.96c0-.378.216-.747.82-.747h1.331c.603 0 .774.333.774.747v3.492c0 .486-.252.747-.783.747H9.339c-.396 0-.828-.162-.828-.756zm-.828.063c0 1.08.711 1.494 1.575 1.494h1.476c.927 0 1.53-.432 1.53-1.494v-3.6c0-.792-.396-1.494-1.521-1.494H9.267c-.9 0-1.584.513-1.584 1.512v3.582zm7.926-.063V10.96c0-.378.216-.747.82-.747h1.331c.603 0 .774.333.774.747v3.492c0 .486-.252.747-.783.747h-1.314c-.396 0-.828-.162-.828-.756zm-.828.063c0 1.08.711 1.494 1.575 1.494h1.476c.927 0 1.53-.432 1.53-1.494v-3.6c0-.792-.396-1.494-1.52-1.494h-1.477c-.9 0-1.584.513-1.584 1.512v3.582zm6.846-3.762l1.45-.441V16h.827V9.412h-.828l-1.449.756v.576zm4.629 0l1.448-.441V16h.828V9.412h-.828l-1.448.756v.576zm4.628 0l1.449-.441V16h.828V9.412h-.828l-1.45.756v.576zm4.628 0l1.45-.441V16h.827V9.412h-.828l-1.449.756v.576zm5.708 3.699V10.96c0-.378.216-.747.82-.747h1.331c.603 0 .774.333.774.747v3.492c0 .486-.252.747-.783.747h-1.314c-.396 0-.828-.162-.828-.756zm-.828.063c0 1.08.711 1.494 1.575 1.494h1.476c.927 0 1.53-.432 1.53-1.494v-3.6c0-.792-.396-1.494-1.52-1.494h-1.477c-.9 0-1.584.513-1.584 1.512v3.582zm6.846-3.762l1.45-.441V16h.828V9.412h-.828l-1.45.756v.576zm4.629 0l1.449-.441V16h.828V9.412h-.828l-1.45.756v.576zm4.628 0l1.45-.441V16h.827V9.412h-.828l-1.449.756v.576zm4.628 0l1.45-.441V16h.827V9.412h-.828l-1.449.756v.576zm5.709 3.699V10.96c0-.378.216-.747.819-.747h1.332c.603 0 .774.333.774.747v3.492c0 .486-.252.747-.783.747H67.66c-.396 0-.828-.162-.828-.756zm-.828.063c0 1.08.71 1.494 1.575 1.494h1.476c.927 0 1.53-.432 1.53-1.494v-3.6c0-.792-.396-1.494-1.521-1.494h-1.476c-.9 0-1.584.513-1.584 1.512v3.582zm6.846-3.762l1.449-.441V16h.828V9.412h-.828l-1.45.756v.576zm4.628 0l1.45-.441V16h.827V9.412h-.828l-1.449.756v.576zm4.628 0l1.45-.441V16h.827V9.412h-.828l-1.449.756v.576zm-81.773 9l1.449-.441V25h.828v-6.588h-.828l-1.449.756v.576zm4.628 0l1.45-.441V25h.827v-6.588H6.41l-1.449.756v.576zm4.629 0l1.449-.441V25h.828v-6.588h-.828l-1.45.756v.576zm4.628 0l1.449-.441V25h.828v-6.588h-.828l-1.449.756v.576zm4.628 0l1.45-.441V25h.827v-6.588h-.828l-1.449.756v.576zm5.709 3.699V19.96c0-.378.216-.747.819-.747h1.332c.603 0 .774.333.774.747v3.492c0 .486-.252.747-.783.747h-1.314c-.396 0-.828-.162-.828-.756zm-.828.063c0 1.08.71 1.494 1.575 1.494h1.476c.927 0 1.53-.432 1.53-1.494v-3.6c0-.792-.396-1.494-1.521-1.494H25.31c-.9 0-1.584.513-1.584 1.512v3.582zm6.846-3.762l1.449-.441V25h.828v-6.588h-.828l-1.45.756v.576zm4.628 0l1.449-.441V25h.828v-6.588h-.828l-1.449.756v.576zm5.708 3.699V19.96c0-.378.216-.747.82-.747h1.331c.603 0 .774.333.774.747v3.492c0 .486-.252.747-.783.747h-1.314c-.396 0-.828-.162-.828-.756zm-.828.063c0 1.08.711 1.494 1.575 1.494h1.476c.927 0 1.53-.432 1.53-1.494v-3.6c0-.792-.396-1.494-1.52-1.494h-1.477c-.9 0-1.584.513-1.584 1.512v3.582zm6.846-3.762l1.45-.441V25h.827v-6.588h-.828l-1.449.756v.576zm4.629 0l1.449-.441V25h.828v-6.588h-.828l-1.45.756v.576zm4.628 0l1.449-.441V25h.828v-6.588h-.828l-1.449.756v.576zm4.628 0l1.45-.441V25h.827v-6.588h-.828l-1.449.756v.576zm5.709 3.699V19.96c0-.378.216-.747.819-.747h1.332c.603 0 .774.333.774.747v3.492c0 .486-.252.747-.783.747h-1.314c-.396 0-.828-.162-.828-.756zm-.828.063c0 1.08.71 1.494 1.575 1.494h1.476c.927 0 1.53-.432 1.53-1.494v-3.6c0-.792-.396-1.494-1.521-1.494h-1.476c-.9 0-1.584.513-1.584 1.512v3.582zm6.846-3.762l1.449-.441V25h.828v-6.588h-.828l-1.45.756v.576zm4.628 0l1.449-.441V25h.828v-6.588h-.828l-1.449.756v.576zm4.628 0l1.45-.441V25h.827v-6.588h-.828l-1.449.756v.576zm4.629 0v-.576.576zM1.413 32.443V28.96c0-.378.216-.747.819-.747h1.332c.603 0 .774.333.774.747v3.492c0 .486-.252.747-.783.747H2.241c-.396 0-.828-.162-.828-.756zm-.828.063c0 1.08.711 1.494 1.575 1.494h1.476c.927 0 1.53-.432 1.53-1.494v-3.6c0-.792-.396-1.494-1.521-1.494H2.169c-.9 0-1.584.513-1.584 1.512v3.582zm6.846-3.762l1.45-.441V34h.827v-6.588H8.88l-1.449.756v.576zm4.628 0l1.45-.441V34h.827v-6.588h-.828l-1.449.756v.576zm5.709 3.699V28.96c0-.378.216-.747.819-.747h1.332c.603 0 .774.333.774.747v3.492c0 .486-.252.747-.783.747h-1.314c-.396 0-.828-.162-.828-.756zm-.828.063c0 1.08.71 1.494 1.575 1.494h1.476c.927 0 1.53-.432 1.53-1.494v-3.6c0-.792-.396-1.494-1.521-1.494h-1.476c-.9 0-1.584.513-1.584 1.512v3.582zm6.846-3.762l1.449-.441V34h.828v-6.588h-.828l-1.45.756v.576zm4.628 0l1.45-.441V34h.827v-6.588h-.828l-1.449.756v.576zm4.628 0l1.45-.441V34h.827v-6.588h-.828l-1.449.756v.576zm4.629 0l1.449-.441V34h.828v-6.588h-.828l-1.45.756v.576zm5.708 3.699V28.96c0-.378.216-.747.819-.747h1.332c.603 0 .774.333.774.747v3.492c0 .486-.252.747-.783.747h-1.314c-.396 0-.828-.162-.828-.756zm-.828.063c0 1.08.711 1.494 1.575 1.494h1.476c.927 0 1.53-.432 1.53-1.494v-3.6c0-.792-.396-1.494-1.521-1.494h-1.476c-.9 0-1.584.513-1.584 1.512v3.582zm6.846-3.762l1.45-.441V34h.827v-6.588h-.828l-1.449.756v.576zm4.628 0l1.45-.441V34h.827v-6.588h-.828l-1.449.756v.576zm4.629 0l1.449-.441V34h.828v-6.588h-.828l-1.45.756v.576zm4.628 0l1.449-.441V34h.828v-6.588h-.828l-1.449.756v.576zm4.628 0l1.45-.441V34h.827v-6.588h-.828l-1.449.756v.576zm5.709 3.699V28.96c0-.378.216-.747.819-.747h1.332c.603 0 .774.333.774.747v3.492c0 .486-.252.747-.783.747h-1.314c-.396 0-.828-.162-.828-.756zm-.828.063c0 1.08.71 1.494 1.575 1.494h1.476c.927 0 1.53-.432 1.53-1.494v-3.6c0-.792-.396-1.494-1.521-1.494h-1.476c-.9 0-1.584.513-1.584 1.512v3.582zm7.926-.063V28.96c0-.378.216-.747.819-.747h1.332c.603 0 .774.333.774.747v3.492c0 .486-.252.747-.783.747h-1.314c-.396 0-.828-.162-.828-.756zm-.828.063c0 1.08.71 1.494 1.575 1.494h1.476c.927 0 1.53-.432 1.53-1.494v-3.6c0-.792-.396-1.494-1.521-1.494h-1.476c-.9 0-1.584.513-1.584 1.512v3.582zM1.413 41.443V37.96c0-.378.216-.747.819-.747h1.332c.603 0 .774.333.774.747v3.492c0 .486-.252.747-.783.747H2.241c-.396 0-.828-.162-.828-.756zm-.828.063c0 1.08.711 1.494 1.575 1.494h1.476c.927 0 1.53-.432 1.53-1.494v-3.6c0-.792-.396-1.494-1.521-1.494H2.169c-.9 0-1.584.513-1.584 1.512v3.582zm7.926-.063V37.96c0-.378.216-.747.82-.747h1.331c.603 0 .774.333.774.747v3.492c0 .486-.252.747-.783.747H9.339c-.396 0-.828-.162-.828-.756zm-.828.063c0 1.08.711 1.494 1.575 1.494h1.476c.927 0 1.53-.432 1.53-1.494v-3.6c0-.792-.396-1.494-1.521-1.494H9.267c-.9 0-1.584.513-1.584 1.512v3.582zm7.926-.063V37.96c0-.378.216-.747.82-.747h1.331c.603 0 .774.333.774.747v3.492c0 .486-.252.747-.783.747h-1.314c-.396 0-.828-.162-.828-.756zm-.828.063c0 1.08.711 1.494 1.575 1.494h1.476c.927 0 1.53-.432 1.53-1.494v-3.6c0-.792-.396-1.494-1.52-1.494h-1.477c-.9 0-1.584.513-1.584 1.512v3.582zm6.846-3.762l1.45-.441V43h.827v-6.588h-.828l-1.449.756v.576zm4.629 0l1.448-.441V43h.828v-6.588h-.828l-1.448.756v.576zm4.628 0l1.449-.441V43h.828v-6.588h-.828l-1.45.756v.576zm4.628 0l1.45-.441V43h.827v-6.588h-.828l-1.449.756v.576zm5.708 3.699V37.96c0-.378.216-.747.82-.747h1.331c.603 0 .774.333.774.747v3.492c0 .486-.252.747-.783.747h-1.314c-.396 0-.828-.162-.828-.756zm-.828.063c0 1.08.711 1.494 1.575 1.494h1.476c.927 0 1.53-.432 1.53-1.494v-3.6c0-.792-.396-1.494-1.52-1.494h-1.477c-.9 0-1.584.513-1.584 1.512v3.582zm6.846-3.762l1.45-.441V43h.828v-6.588h-.828l-1.45.756v.576zm4.629 0l1.449-.441V43h.828v-6.588h-.828l-1.45.756v.576zm4.628 0l1.45-.441V43h.827v-6.588h-.828l-1.449.756v.576zm4.628 0l1.45-.441V43h.827v-6.588h-.828l-1.449.756v.576zm5.709 3.699V37.96c0-.378.216-.747.819-.747h1.332c.603 0 .774.333.774.747v3.492c0 .486-.252.747-.783.747H67.66c-.396 0-.828-.162-.828-.756zm-.828.063c0 1.08.71 1.494 1.575 1.494h1.476c.927 0 1.53-.432 1.53-1.494v-3.6c0-.792-.396-1.494-1.521-1.494h-1.476c-.9 0-1.584.513-1.584 1.512v3.582zm6.846-3.762l1.449-.441V43h.828v-6.588h-.828l-1.45.756v.576zm4.628 0l1.45-.441V43h.827v-6.588h-.828l-1.449.756v.576zm4.628 0l1.45-.441V43h.827v-6.588h-.828l-1.449.756v.576zm-81.773 9l1.449-.441V52h.828v-6.588h-.828l-1.449.756v.576zm4.628 0l1.45-.441V52h.827v-6.588H6.41l-1.449.756v.576zm4.629 0l1.449-.441V52h.828v-6.588h-.828l-1.45.756v.576zm4.628 0l1.449-.441V52h.828v-6.588h-.828l-1.449.756v.576zm4.628 0l1.45-.441V52h.827v-6.588h-.828l-1.449.756v.576zm5.709 3.699V46.96c0-.378.216-.747.819-.747h1.332c.603 0 .774.333.774.747v3.492c0 .486-.252.747-.783.747h-1.314c-.396 0-.828-.162-.828-.756zm-.828.063c0 1.08.71 1.494 1.575 1.494h1.476c.927 0 1.53-.432 1.53-1.494v-3.6c0-.792-.396-1.494-1.521-1.494H25.31c-.9 0-1.584.513-1.584 1.512v3.582zm6.846-3.762l1.449-.441V52h.828v-6.588h-.828l-1.45.756v.576zm4.628 0l1.449-.441V52h.828v-6.588h-.828l-1.449.756v.576zm5.708 3.699V46.96c0-.378.216-.747.82-.747h1.331c.603 0 .774.333.774.747v3.492c0 .486-.252.747-.783.747h-1.314c-.396 0-.828-.162-.828-.756zm-.828.063c0 1.08.711 1.494 1.575 1.494h1.476c.927 0 1.53-.432 1.53-1.494v-3.6c0-.792-.396-1.494-1.52-1.494h-1.477c-.9 0-1.584.513-1.584 1.512v3.582zm6.846-3.762l1.45-.441V52h.827v-6.588h-.828l-1.449.756v.576zm4.629 0l1.449-.441V52h.828v-6.588h-.828l-1.45.756v.576zm4.628 0l1.449-.441V52h.828v-6.588h-.828l-1.449.756v.576zm4.628 0l1.45-.441V52h.827v-6.588h-.828l-1.449.756v.576zm5.709 3.699V46.96c0-.378.216-.747.819-.747h1.332c.603 0 .774.333.774.747v3.492c0 .486-.252.747-.783.747h-1.314c-.396 0-.828-.162-.828-.756zm-.828.063c0 1.08.71 1.494 1.575 1.494h1.476c.927 0 1.53-.432 1.53-1.494v-3.6c0-.792-.396-1.494-1.521-1.494h-1.476c-.9 0-1.584.513-1.584 1.512v3.582zm6.846-3.762l1.449-.441V52h.828v-6.588h-.828l-1.45.756v.576zm4.628 0l1.449-.441V52h.828v-6.588h-.828l-1.449.756v.576zm4.628 0l1.45-.441V52h.827v-6.588h-.828l-1.449.756v.576zm4.629 0v-.576.576zM1.413 59.443V55.96c0-.378.216-.747.819-.747h1.332c.603 0 .774.333.774.747v3.492c0 .486-.252.747-.783.747H2.241c-.396 0-.828-.162-.828-.756zm-.828.063c0 1.08.711 1.494 1.575 1.494h1.476c.927 0 1.53-.432 1.53-1.494v-3.6c0-.792-.396-1.494-1.521-1.494H2.169c-.9 0-1.584.513-1.584 1.512v3.582zm6.846-3.762l1.45-.441V61h.827v-6.588H8.88l-1.449.756v.576zm4.628 0l1.45-.441V61h.827v-6.588h-.828l-1.449.756v.576zm5.709 3.699V55.96c0-.378.216-.747.819-.747h1.332c.603 0 .774.333.774.747v3.492c0 .486-.252.747-.783.747h-1.314c-.396 0-.828-.162-.828-.756zm-.828.063c0 1.08.71 1.494 1.575 1.494h1.476c.927 0 1.53-.432 1.53-1.494v-3.6c0-.792-.396-1.494-1.521-1.494h-1.476c-.9 0-1.584.513-1.584 1.512v3.582zm6.846-3.762l1.449-.441V61h.828v-6.588h-.828l-1.45.756v.576zm4.628 0l1.45-.441V61h.827v-6.588h-.828l-1.449.756v.576zm4.628 0l1.45-.441V61h.827v-6.588h-.828l-1.449.756v.576zm4.629 0l1.449-.441V61h.828v-6.588h-.828l-1.45.756v.576zm5.708 3.699V55.96c0-.378.216-.747.819-.747h1.332c.603 0 .774.333.774.747v3.492c0 .486-.252.747-.783.747h-1.314c-.396 0-.828-.162-.828-.756zm-.828.063c0 1.08.711 1.494 1.575 1.494h1.476c.927 0 1.53-.432 1.53-1.494v-3.6c0-.792-.396-1.494-1.521-1.494h-1.476c-.9 0-1.584.513-1.584 1.512v3.582zm6.846-3.762l1.45-.441V61h.827v-6.588h-.828l-1.449.756v.576zm4.628 0l1.45-.441V61h.827v-6.588h-.828l-1.449.756v.576zm4.629 0l1.449-.441V61h.828v-6.588h-.828l-1.45.756v.576zm4.628 0l1.449-.441V61h.828v-6.588h-.828l-1.449.756v.576zm4.628 0l1.45-.441V61h.827v-6.588h-.828l-1.449.756v.576zm5.709 3.699V55.96c0-.378.216-.747.819-.747h1.332c.603 0 .774.333.774.747v3.492c0 .486-.252.747-.783.747h-1.314c-.396 0-.828-.162-.828-.756zm-.828.063c0 1.08.71 1.494 1.575 1.494h1.476c.927 0 1.53-.432 1.53-1.494v-3.6c0-.792-.396-1.494-1.521-1.494h-1.476c-.9 0-1.584.513-1.584 1.512v3.582zm7.926-.063V55.96c0-.378.216-.747.819-.747h1.332c.603 0 .774.333.774.747v3.492c0 .486-.252.747-.783.747h-1.314c-.396 0-.828-.162-.828-.756zm-.828.063c0 1.08.71 1.494 1.575 1.494h1.476c.927 0 1.53-.432 1.53-1.494v-3.6c0-.792-.396-1.494-1.521-1.494h-1.476c-.9 0-1.584.513-1.584 1.512v3.582z"/></svg>